<?xml version="1.0" encoding="iso-8859-1"?>
<!-- Generator: Adobe Illustrator 19.0.0, SVG Export Plug-In . SVG Version: 6.00 Build 0)  -->
<svg version="1.1" id="Layer_1" xmlns="http://www.w3.org/2000/svg" xmlns:xlink="http://www.w3.org/1999/xlink" x="0px" y="0px"
	 viewBox="0 0 512 512" style="enable-background:new 0 0 512 512;" xml:space="preserve">
<g>
	<g>
		<g>
			<path d="M64,0C28.645,0,0,28.645,0,64s28.645,64,64,64s64-28.645,64-64S99.355,0,64,0z M64,85.333
				c-11.791,0-21.333-9.542-21.333-21.333S52.209,42.667,64,42.667S85.333,52.209,85.333,64S75.791,85.333,64,85.333z"/>
			<path d="M64,192c-35.355,0-64,28.645-64,64s28.645,64,64,64s64-28.645,64-64S99.355,192,64,192z M64,277.333
				c-11.791,0-21.333-9.542-21.333-21.333S52.209,234.667,64,234.667S85.333,244.209,85.333,256S75.791,277.333,64,277.333z"/>
			<path d="M64,384c-35.355,0-64,28.645-64,64c0,35.355,28.645,64,64,64s64-28.645,64-64C128,412.645,99.355,384,64,384z
				 M64,469.333c-11.791,0-21.333-9.542-21.333-21.333S52.209,426.667,64,426.667S85.333,436.209,85.333,448
				S75.791,469.333,64,469.333z"/>
			<path d="M256,0c-35.355,0-64,28.645-64,64s28.645,64,64,64s64-28.645,64-64S291.355,0,256,0z M256,85.333
				c-11.791,0-21.333-9.542-21.333-21.333S244.209,42.667,256,42.667S277.333,52.209,277.333,64S267.791,85.333,256,85.333z"/>
			<path d="M256,192c-35.355,0-64,28.645-64,64s28.645,64,64,64s64-28.645,64-64S291.355,192,256,192z M256,277.333
				c-11.791,0-21.333-9.542-21.333-21.333s9.542-21.333,21.333-21.333s21.333,9.542,21.333,21.333S267.791,277.333,256,277.333z"/>
			<path d="M256,384c-35.355,0-64,28.645-64,64c0,35.355,28.645,64,64,64s64-28.645,64-64C320,412.645,291.355,384,256,384z
				 M256,469.333c-11.791,0-21.333-9.542-21.333-21.333s9.542-21.333,21.333-21.333s21.333,9.542,21.333,21.333
				S267.791,469.333,256,469.333z"/>
			<path d="M448,128c35.355,0,64-28.645,64-64S483.355,0,448,0c-35.355,0-64,28.645-64,64S412.645,128,448,128z M448,42.667
				c11.791,0,21.333,9.542,21.333,21.333S459.791,85.333,448,85.333S426.667,75.791,426.667,64S436.209,42.667,448,42.667z"/>
			<path d="M448,192c-35.355,0-64,28.645-64,64s28.645,64,64,64c35.355,0,64-28.645,64-64S483.355,192,448,192z M448,277.333
				c-11.791,0-21.333-9.542-21.333-21.333s9.542-21.333,21.333-21.333s21.333,9.542,21.333,21.333S459.791,277.333,448,277.333z"/>
			<path d="M448,384c-35.355,0-64,28.645-64,64c0,35.355,28.645,64,64,64c35.355,0,64-28.645,64-64C512,412.645,483.355,384,448,384
				z M448,469.333c-11.791,0-21.333-9.542-21.333-21.333s9.542-21.333,21.333-21.333s21.333,9.542,21.333,21.333
				S459.791,469.333,448,469.333z"/>
		</g>
	</g>
</g>
<g>
</g>
<g>
</g>
<g>
</g>
<g>
</g>
<g>
</g>
<g>
</g>
<g>
</g>
<g>
</g>
<g>
</g>
<g>
</g>
<g>
</g>
<g>
</g>
<g>
</g>
<g>
</g>
<g>
</g>
</svg>
