<svg width="1104" height="711" xmlns="http://www.w3.org/2000/svg"><defs><linearGradient x1="72.736%" y1="40.356%" x2="33.238%" y2="73.156%" id="a"><stop stop-color="#079992" offset="0%"/><stop stop-color="#335EAC" offset="100%"/></linearGradient><linearGradient x1="33.238%" y1="73.156%" x2="72.736%" y2="40.356%" id="b"><stop stop-color="#079992" offset="0%"/><stop stop-color="#335EAC" offset="100%"/></linearGradient><linearGradient x1="33.238%" y1="73.156%" x2="72.736%" y2="40.356%" id="c"><stop stop-color="#335EAC" offset="0%"/><stop stop-color="#079992" offset="100%"/></linearGradient></defs><g fill="none" fill-rule="evenodd"><path d="M164.504 225C190.661 225 212 203.661 212 177.495 212 151.339 190.661 130 164.504 130 138.339 130 117 151.339 117 177.495 117 203.661 138.339 225 164.504 225" fill="#2E2E2E"/><path d="M57 178.5C57 119.124 105.1 71 164.444 71c31.305 0 59.48 13.395 79.118 34.765-10.456 13.153-18.141 28.603-22.167 45.478-10.169-21.236-31.852-35.905-56.951-35.905-34.864 0-63.12 28.28-63.12 63.152 0 34.891 28.256 63.163 63.12 63.163 34.856 0 63.12-28.272 63.12-63.153 0-59.366 48.1-107.491 107.436-107.491v44.348c-34.855 0-63.12 28.27-63.12 63.143 0 59.375-48.1 107.5-107.436 107.5C105.1 286 57 237.875 57 178.5z" fill="#335EAC"/><path d="M334.5 225c26.163 0 47.5-21.339 47.5-47.505C382 151.339 360.663 130 334.5 130S287 151.339 287 177.495C287 203.661 308.337 225 334.5 225" fill="#2E2E2E"/><path d="M334.44 286C275.107 286 227 237.875 227 178.5v-.01C227 119.124 275.107 71 334.44 71c31.305 0 59.478 13.395 79.116 34.765-10.455 13.153-18.14 28.603-22.166 45.478-10.169-21.236-31.842-35.905-56.95-35.905-34.853 0-63.117 28.28-63.117 63.152v.01c0 34.881 28.264 63.153 63.117 63.153 34.855 0 63.119-28.272 63.119-63.153 0-59.366 48.108-107.491 107.441-107.491v44.348c-34.863 0-63.117 28.27-63.117 63.143 0 59.375-48.108 107.5-107.443 107.5" fill="#079992"/><path d="M504.504 225C530.661 225 552 203.661 552 177.495 552 151.339 530.661 130 504.504 130 478.339 130 457 151.339 457 177.495 457 203.661 478.339 225 504.504 225" fill="#2E2E2E"/><path d="M504.444 286C445.099 286 397 237.875 397 178.5v-.01C397 119.124 445.1 71 504.444 71c31.304 0 59.479 13.395 79.108 34.765-10.446 13.153-18.132 28.603-22.158 45.478-10.168-21.236-31.851-35.905-56.95-35.905-34.865 0-63.12 28.28-63.12 63.152v.01c0 34.881 28.255 63.153 63.12 63.153 34.856 0 63.11-28.272 63.11-63.153h.01c0-59.366 48.099-107.491 107.436-107.491v44.348c-34.857 0-63.12 28.27-63.12 63.143 0 59.375-48.101 107.5-107.436 107.5" fill="#335EAC"/><path d="M674.5 225c26.163 0 47.5-21.339 47.5-47.505C722 151.339 700.663 130 674.5 130c-26.154 0-47.5 21.339-47.5 47.495C627 203.661 648.346 225 674.5 225" fill="#2E2E2E"/><path d="M674.436 286C615.1 286 567 237.875 567 178.5v-.01C567 119.124 615.1 71 674.436 71c31.304 0 59.478 13.395 79.116 34.765a116.63 116.63 0 0 0-22.166 45.478c-10.16-21.236-31.843-35.905-56.95-35.905-34.855 0-63.12 28.28-63.12 63.152v.01c0 34.881 28.265 63.153 63.12 63.153 34.864 0 63.119-28.272 63.119-63.153.01-59.366 48.108-107.491 107.445-107.491v44.348c-34.864 0-63.12 28.27-63.12 63.143 0 59.375-48.108 107.5-107.444 107.5" fill="#079992"/><path d="M844.496 225C870.66 225 892 203.661 892 177.495 892 151.339 870.66 130 844.496 130 818.339 130 797 151.339 797 177.495 797 203.661 818.339 225 844.496 225" fill="#2E2E2E"/><path d="M845.19 286C785.99 286 738 237.82 738 178.375v-.009c0-59.435 47.989-107.614 107.19-107.614 31.233 0 59.343 13.41 78.936 34.805a116.802 116.802 0 0 0-22.107 45.531c-10.146-21.26-31.779-35.947-56.829-35.947-34.777 0-62.967 28.313-62.967 63.225v.01c0 34.921 28.19 63.226 62.967 63.226 34.784 0 62.975-28.305 62.975-63.227.009-58.598 46.657-106.25 104.7-107.587V54L1085 92.93l-72.135 38.883v-16.6c-33.62 1.312-60.476 29.093-60.476 63.162C952.39 237.82 904.4 286 845.19 286M161 327h6v-42h-6z" fill="#335EAC"/><path fill="#079992" d="M331 496h6V285h-6z"/><path fill="#335EAC" d="M501 327h6v-42h-6z"/><path fill="#079992" d="M672 496h6V285h-6z"/><path fill="#335EAC" d="M842 327h6v-42h-6zm-677.002 12.877a5.877 5.877 0 1 0 0-11.755 5.876 5.876 0 0 0-5.874 5.878 5.876 5.876 0 0 0 5.874 5.877zm0 3.123a9 9 0 1 0-8.998-9c0 4.971 4.028 9 8.998 9z"/><path d="M333.999 508.877a5.877 5.877 0 0 0 5.876-5.877 5.877 5.877 0 1 0-5.876 5.877zm0 3.123a9 9 0 1 0-8.999-9c0 4.971 4.028 9 8.999 9z" fill="#079992"/><path d="M503.999 339.877a5.877 5.877 0 0 0 5.877-5.877 5.877 5.877 0 1 0-5.877 5.877zm0 3.123a9 9 0 1 0-8.999-9c0 4.971 4.028 9 8.999 9z" fill="#335EAC"/><path d="M674.999 507.877a5.877 5.877 0 1 0 0-11.755 5.876 5.876 0 0 0-5.874 5.878 5.876 5.876 0 0 0 5.874 5.877zm0 3.123a9 9 0 1 0-8.999-9c0 4.971 4.028 9 8.999 9z" fill="#079992"/><path d="M843.999 338.877a5.877 5.877 0 0 0 5.877-5.877 5.877 5.877 0 1 0-5.877 5.877zm0 3.123a9 9 0 1 0-8.999-9c0 4.971 4.028 9 8.999 9z" fill="#335EAC"/><path d="M164.806 242.481c34.777 0 62.978-28.382 62.978-63.399 0-25.25 17.112.637 26.26 0 12.445-.865 17.956-20.175 17.956 0C272 238.69 224.009 287 164.806 287c-30.798 0-8.54-14.474-8.54-14.474-8.885 2.518-26.245-30.045 8.54-30.045z" fill="url(#a)"/><path d="M333.806 242.481c34.777 0 62.978-28.382 62.978-63.399 0-25.25 17.112.637 26.26 0 12.445-.865 17.956-20.175 17.956 0C441 238.69 393.009 287 333.806 287c-30.798 0-8.54-14.474-8.54-14.474-8.885 2.518-26.245-30.045 8.54-30.045z" fill="url(#b)"/><path d="M504.806 242.481c34.776 0 62.977-28.382 62.977-63.399 0-25.25 17.111.637 26.26 0 9.704-.675 7.296-4.363 8.975 0 .474 1.232 7.982-4.442 7.982 0C611 238.69 564.007 287 504.806 287c-30.798 0-8.54-14.474-8.54-14.474-8.885 2.518-26.245-30.045 8.54-30.045z" fill="url(#c)"/><path d="M674.806 242.481c34.777 0 62.978-28.382 62.978-63.399 0-25.25 17.112.637 26.26 0 12.445-.865 17.956-20.175 17.956 0C782 238.69 734.009 287 674.806 287c-30.798 0-8.54-14.474-8.54-14.474-8.885 2.518-26.245-30.045 8.54-30.045z" fill="url(#b)"/><path d="M329.822 188.044h8.568c.7 0 1.316-.063 1.848-.189a3.17 3.17 0 0 0 1.407-.735c.406-.364.777-.861 1.113-1.491.336-.63.658-1.435.966-2.415h1.848l-1.68 9.786h-22.008v-1.932c3.332-2.856 6.062-5.327 8.19-7.413 2.128-2.086 3.8-3.948 5.019-5.586 1.218-1.638 2.058-3.15 2.52-4.536.462-1.386.693-2.821.693-4.305 0-2.044-.462-3.654-1.386-4.83-.924-1.176-2.184-1.764-3.78-1.764-.756 0-1.463.133-2.121.399a4.83 4.83 0 0 0-1.68 1.113 5.172 5.172 0 0 0-1.092 1.722 5.88 5.88 0 0 0-.4 2.184c0 1.4.358 2.506 1.072 3.318.714.812 1.687 1.218 2.919 1.218-.14.812-.525 1.456-1.155 1.932s-1.393.714-2.29.714a6.237 6.237 0 0 1-2.414-.462 5.74 5.74 0 0 1-1.932-1.302 6.03 6.03 0 0 1-1.281-1.995c-.308-.77-.462-1.617-.462-2.541 0-1.26.287-2.415.86-3.465.575-1.05 1.38-1.967 2.416-2.751 1.036-.784 2.26-1.393 3.675-1.827 1.414-.434 2.947-.651 4.599-.651 1.652 0 3.164.224 4.536.672 1.372.448 2.555 1.071 3.549 1.869a8.399 8.399 0 0 1 2.31 2.856c.546 1.106.819 2.331.819 3.675 0 1.68-.385 3.318-1.155 4.914-.77 1.596-1.834 3.15-3.192 4.662s-2.968 3.01-4.83 4.494a92.424 92.424 0 0 1-6.111 4.452l.042.21zm179.236-4.116c0-2.156-.42-3.829-1.26-5.019-.84-1.19-2.016-1.785-3.528-1.785-.56.224-1.1.406-1.617.546-.518.14-.96.21-1.323.21-.784 0-1.393-.161-1.827-.483-.434-.322-.651-.777-.651-1.365 0-.504.21-.896.63-1.176.42-.28 1.008-.42 1.764-.42.392 0 .833.049 1.323.147.49.098.93.203 1.323.315 1.344 0 2.415-.525 3.213-1.575.798-1.05 1.197-2.625 1.197-4.725 0-2.016-.4-3.542-1.197-4.578-.798-1.036-1.883-1.554-3.255-1.554-1.288 0-2.29.308-3.003.924-.714.616-1.071 1.47-1.071 2.562 0 .756.217 1.386.65 1.89.435.504.988.756 1.66.756-.168.756-.532 1.351-1.092 1.785-.56.434-1.274.651-2.142.651a4.899 4.899 0 0 1-1.911-.378 4.853 4.853 0 0 1-1.575-1.05 5.308 5.308 0 0 1-1.071-1.533 4.39 4.39 0 0 1-.4-1.869c0-.896.239-1.708.715-2.436s1.155-1.358 2.037-1.89c.882-.532 1.932-.938 3.15-1.218s2.583-.42 4.095-.42c1.652 0 3.143.175 4.473.525 1.33.35 2.47.854 3.423 1.512.952.658 1.68 1.449 2.184 2.373.504.924.756 1.946.756 3.066 0 .896-.147 1.764-.441 2.604a7.769 7.769 0 0 1-1.26 2.289 8.698 8.698 0 0 1-1.932 1.785 7.684 7.684 0 0 1-2.415 1.092v.252c1.064.308 2.037.735 2.919 1.281a8.932 8.932 0 0 1 2.247 1.953 8.783 8.783 0 0 1 1.428 2.478c.336.896.504 1.848.504 2.856a7.596 7.596 0 0 1-.903 3.654c-.602 1.12-1.442 2.086-2.52 2.898-1.078.812-2.352 1.442-3.822 1.89-1.47.448-3.087.672-4.851.672-1.596 0-3.073-.189-4.431-.567-1.358-.378-2.527-.896-3.507-1.554s-1.75-1.442-2.31-2.352a5.62 5.62 0 0 1-.84-3.003c0-.784.147-1.519.44-2.205a5.82 5.82 0 0 1 2.961-3.045 5.08 5.08 0 0 1 2.143-.462c.924 0 1.708.245 2.352.735a3.182 3.182 0 0 1 1.218 1.953c-.84 0-1.54.343-2.1 1.029-.56.686-.84 1.533-.84 2.541 0 1.372.44 2.471 1.323 3.297.882.826 2.065 1.239 3.549 1.239 1.596 0 2.898-.644 3.906-1.932 1.008-1.288 1.512-3.01 1.512-5.166zm151.751-2.184l15.33-21.504h3.99v21.378c1.008-.028 1.834-.105 2.478-.231.644-.126 1.148-.336 1.512-.63.364-.294.616-.693.756-1.197.14-.504.21-1.162.21-1.974h1.554v10.206h-1.554c0-.756-.07-1.372-.21-1.848-.14-.476-.392-.847-.756-1.113s-.868-.448-1.512-.546c-.644-.098-1.47-.161-2.478-.189v1.302c0 .98.049 1.834.147 2.562.098.728.287 1.337.567 1.827.28.49.679.861 1.197 1.113s1.183.392 1.995.42V193h-14.406v-1.68c.98-.028 1.77-.175 2.373-.441.602-.266 1.064-.637 1.386-1.113.322-.476.539-1.05.65-1.722.113-.672.169-1.456.169-2.352v-1.428h-13.398v-2.52zm13.398-13.734h-.168l-9.66 13.608h9.828V168.01zm166.699 4.956l.084.126c.476-.504 1.14-.917 1.995-1.239a7.383 7.383 0 0 1 2.625-.483c1.428 0 2.744.259 3.948.777a9.99 9.99 0 0 1 3.15 2.121c.896.896 1.596 1.967 2.1 3.213s.756 2.583.756 4.011c0 1.68-.35 3.241-1.05 4.683a11.736 11.736 0 0 1-2.92 3.78c-1.245 1.078-2.701 1.925-4.367 2.541-1.666.616-3.465.924-5.397.924-1.316 0-2.52-.147-3.612-.441-1.092-.294-2.037-.693-2.835-1.197-.798-.504-1.421-1.113-1.87-1.827a4.303 4.303 0 0 1-.671-2.331c0-.896.217-1.589.65-2.079.435-.49 1.058-.735 1.87-.735.616 0 1.078.154 1.386.462.308.308.546.7.714 1.176.168.476.329.987.483 1.533.154.546.37 1.057.65 1.533s.68.868 1.198 1.176c.518.308 1.239.462 2.163.462 1.092 0 2.065-.252 2.919-.756.854-.504 1.575-1.218 2.163-2.142.588-.924 1.036-2.044 1.344-3.36.308-1.316.462-2.772.462-4.368 0-2.324-.308-4.025-.924-5.103-.616-1.078-1.666-1.617-3.15-1.617-1.232 0-2.247.301-3.045.903-.798.602-1.435 1.561-1.911 2.877-.224.644-.47 1.071-.735 1.281-.266.21-.595.315-.987.315-.784 0-1.176-.364-1.176-1.092 0-.112.028-.28.084-.504l4.704-17.346a14.91 14.91 0 0 0 2.604.567c.952.126 2.086.189 3.402.189 1.568 0 2.919-.07 4.053-.21 1.134-.14 2.023-.336 2.667-.588l.252.042c-.392 1.736-1.26 3.073-2.604 4.011-1.344.938-3.052 1.407-5.124 1.407h-4.074l-1.974 7.308zm-672.961 13.146c0 1.092.049 1.967.147 2.625.098.658.308 1.176.63 1.554.322.378.784.637 1.386.777.602.14 1.407.224 2.415.252V193H156.73v-1.68c1.092-.028 1.967-.119 2.625-.273.658-.154 1.162-.406 1.512-.756.35-.35.588-.84.714-1.47s.189-1.435.189-2.415V171.16c0-1.624-.007-2.968-.021-4.032-.014-1.064-.077-1.764-.19-2.1-.167-.616-.65-.994-1.448-1.134-.798-.14-1.995-.21-3.591-.21v-1.68a43.588 43.588 0 0 0 2.625-.189 67.467 67.467 0 0 0 6.153-.903c1.008-.196 1.89-.42 2.646-.672v25.872z" fill="#FFF"/><path d="M135.349 356.41h.54l-.756 3.546h-.612c-.036-1.092-.234-1.878-.594-2.358-.36-.48-.924-.72-1.692-.72-.372 0-.714.051-1.026.153a2.3 2.3 0 0 0-.801.441 2.108 2.108 0 0 0-.522.675 1.882 1.882 0 0 0-.189.837c0 .432.12.816.36 1.152.24.336.543.651.909.945.366.294.762.591 1.188.891.426.3.822.63 1.188.99s.669.768.909 1.224c.24.456.36.99.36 1.602 0 .612-.12 1.185-.36 1.719s-.567.999-.981 1.395a4.632 4.632 0 0 1-3.231 1.278c-1.308 0-2.454-.516-3.438-1.548l-.378 1.368h-.63l.756-4.572h.594c.084 1.236.39 2.178.918 2.826.528.648 1.26.972 2.196.972.432 0 .828-.063 1.188-.189s.669-.3.927-.522c.258-.222.462-.486.612-.792.15-.306.225-.639.225-.999 0-.504-.126-.948-.378-1.332a5.595 5.595 0 0 0-.936-1.08c-.372-.336-.78-.66-1.224-.972a10.671 10.671 0 0 1-1.224-.999 5.422 5.422 0 0 1-.936-1.17c-.252-.426-.378-.915-.378-1.467 0-.516.111-1.002.333-1.458.222-.456.525-.852.909-1.188a4.583 4.583 0 0 1 3.006-1.098c.564 0 1.068.096 1.512.288.444.192.876.498 1.296.918l.36-.756zm5.608 5.544l-1.494 4.95c-.204.648-.312 1.14-.324 1.476a.52.52 0 0 0 .081.288c.054.084.147.126.279.126.216 0 .444-.081.684-.243.24-.162.471-.354.693-.576.222-.222.42-.45.594-.684.174-.234.303-.417.387-.549l.522.306a6.23 6.23 0 0 1-.774 1.179 7.429 7.429 0 0 1-.99.999 5.388 5.388 0 0 1-1.053.693c-.354.174-.675.261-.963.261-.42 0-.723-.09-.909-.27-.186-.18-.279-.48-.279-.9 0-.24.042-.564.126-.972.084-.408.228-.966.432-1.674l1.332-4.41h-1.548l.234-.828h1.566l.936-3.096h1.656l-.936 3.096h1.962l-.252.828h-1.962zm3.718 1.008c.132-.3.333-.609.603-.927a6.66 6.66 0 0 1 .882-.864c.318-.258.639-.471.963-.639.324-.168.606-.252.846-.252.288 0 .498.108.63.324.132.216.198.564.198 1.044a5.608 5.608 0 0 1-.126 1.188l.054.054c.144-.348.348-.69.612-1.026.264-.336.549-.633.855-.891.306-.258.618-.468.936-.63.318-.162.615-.243.891-.243.348 0 .639.111.873.333.234.222.351.495.351.819 0 .312-.099.57-.297.774a1.02 1.02 0 0 1-.765.306.852.852 0 0 1-.459-.108 2.022 2.022 0 0 1-.297-.225 8.79 8.79 0 0 1-.234-.225.366.366 0 0 0-.27-.108c-.228 0-.492.153-.792.459-.3.306-.612.723-.936 1.251a16.442 16.442 0 0 0-.963 1.854c-.318.708-.609 1.47-.873 2.286l-.81 2.484h-1.674l1.17-3.726.567-1.791c.15-.474.267-.87.351-1.188a8.78 8.78 0 0 0 .171-.747c.03-.18.045-.336.045-.468 0-.264-.09-.396-.27-.396-.12 0-.267.048-.441.144a3.07 3.07 0 0 0-.513.36 4.067 4.067 0 0 0-.477.486c-.15.18-.261.354-.333.522l-.468-.234zm14.626-1.746c-.456 0-.927.21-1.413.63-.486.42-.927.945-1.323 1.575a9.92 9.92 0 0 0-.972 2.034c-.252.726-.378 1.401-.378 2.025 0 .432.09.777.27 1.035.18.258.426.387.738.387.276 0 .564-.111.864-.333.3-.222.591-.516.873-.882.282-.366.549-.783.801-1.251.252-.468.474-.951.666-1.449.192-.498.342-.987.45-1.467.108-.48.162-.912.162-1.296 0-.312-.066-.558-.198-.738a.634.634 0 0 0-.54-.27zm1.854-.756h1.494l-1.026 2.754a32.786 32.786 0 0 0-.927 2.952c-.126.48-.225.918-.297 1.314-.072.396-.108.69-.108.882 0 .348.114.522.342.522.168 0 .411-.174.729-.522a14.96 14.96 0 0 0 1.071-1.35l.468.378c-.504.888-1.047 1.575-1.629 2.061-.582.486-1.143.729-1.683.729a.739.739 0 0 1-.639-.315c-.15-.21-.225-.555-.225-1.035a9.222 9.222 0 0 1 .054-.954l-.072-.018a4.988 4.988 0 0 1-1.44 1.665c-.288.21-.588.372-.9.486a2.664 2.664 0 0 1-.918.171c-.612 0-1.089-.231-1.431-.693-.342-.462-.513-1.101-.513-1.917 0-.828.174-1.674.522-2.538a9.546 9.546 0 0 1 1.35-2.349 8.018 8.018 0 0 1 1.836-1.728c.672-.45 1.332-.675 1.98-.675.396 0 .72.093.972.279.252.186.456.489.612.909l.378-1.008zm7.66 1.494l-1.494 4.95c-.204.648-.312 1.14-.324 1.476a.52.52 0 0 0 .081.288c.054.084.147.126.279.126.216 0 .444-.081.684-.243.24-.162.471-.354.693-.576.222-.222.42-.45.594-.684.174-.234.303-.417.387-.549l.522.306a6.23 6.23 0 0 1-.774 1.179 7.429 7.429 0 0 1-.99.999 5.388 5.388 0 0 1-1.053.693c-.354.174-.675.261-.963.261-.42 0-.723-.09-.909-.27-.186-.18-.279-.48-.279-.9 0-.24.042-.564.126-.972.084-.408.228-.966.432-1.674l1.332-4.41h-1.548l.234-.828h1.566l.936-3.096h1.656l-.936 3.096h1.962l-.252.828h-1.962zm10.018 5.652c-1.044 1.716-2.328 2.574-3.852 2.574-.828 0-1.464-.255-1.908-.765-.444-.51-.666-1.233-.666-2.169 0-.828.171-1.656.513-2.484a8.68 8.68 0 0 1 1.341-2.241 7.353 7.353 0 0 1 1.854-1.62c.684-.414 1.368-.621 2.052-.621.576 0 1.047.147 1.413.441.366.294.549.669.549 1.125 0 .42-.156.852-.468 1.296-.312.444-.735.864-1.269 1.26-.534.396-1.158.756-1.872 1.08-.714.324-1.473.576-2.277.756a7.328 7.328 0 0 0-.072.99c0 1.308.462 1.962 1.386 1.962.444 0 .903-.174 1.377-.522.474-.348.915-.828 1.323-1.44l.576.378zm-1.026-6.48c-.312 0-.636.12-.972.36-.336.24-.657.561-.963.963a8.227 8.227 0 0 0-.837 1.377 9.58 9.58 0 0 0-.612 1.602 8.212 8.212 0 0 0 1.602-.612 5.936 5.936 0 0 0 1.269-.855c.354-.318.633-.654.837-1.008.204-.354.306-.711.306-1.071 0-.504-.21-.756-.63-.756zm11.386 10.188c0 .516-.111.981-.333 1.395-.222.414-.54.768-.954 1.062-.414.294-.915.519-1.503.675a7.727 7.727 0 0 1-1.98.234c-.66 0-1.26-.06-1.8-.18a4.827 4.827 0 0 1-1.395-.522c-.39-.228-.69-.495-.9-.801a1.787 1.787 0 0 1-.315-1.035c0-.492.159-.9.477-1.224.318-.324.723-.486 1.215-.486.144 0 .282.018.414.054.132.036.3.102.504.198-.672.276-1.008.798-1.008 1.566 0 .504.255.9.765 1.188.51.288 1.209.432 2.097.432.48 0 .924-.054 1.332-.162a4.38 4.38 0 0 0 1.053-.414 2.27 2.27 0 0 0 .684-.567c.162-.21.243-.417.243-.621 0-.336-.201-.639-.603-.909-.402-.27-.969-.471-1.701-.603-1.308-.228-2.268-.492-2.88-.792-.612-.3-.918-.72-.918-1.26 0-.348.153-.642.459-.882.306-.24.855-.48 1.647-.72l.036-.072c-.912-.648-1.368-1.482-1.368-2.502 0-.552.114-1.077.342-1.575a4.314 4.314 0 0 1 3.942-2.529c.888 0 1.632.324 2.232.972.564-.636 1.11-.954 1.638-.954.384 0 .72.117 1.008.351.288.234.432.507.432.819 0 .24-.081.441-.243.603a.819.819 0 0 1-.603.243c-.18 0-.321-.039-.423-.117a1.344 1.344 0 0 1-.261-.261 1.671 1.671 0 0 0-.243-.261.544.544 0 0 0-.369-.117.602.602 0 0 0-.234.045c-.072.03-.204.111-.396.243.06.168.102.327.126.477.024.15.036.339.036.567 0 1.32-.366 2.373-1.098 3.159-.732.786-1.74 1.227-3.024 1.323-.576.048-.987.12-1.233.216-.246.096-.369.24-.369.432 0 .252.135.441.405.567.27.126.609.231 1.017.315.408.084.846.168 1.314.252.468.084.906.207 1.314.369a2.83 2.83 0 0 1 1.017.666c.27.282.405.663.405 1.143zm-3.78-4.752c.288 0 .57-.114.846-.342.276-.228.525-.531.747-.909a5.31 5.31 0 0 0 .531-1.287c.132-.48.198-.972.198-1.476 0-.48-.108-.861-.324-1.143a1.016 1.016 0 0 0-.846-.423c-.276 0-.558.123-.846.369a3.89 3.89 0 0 0-.783.945 5.496 5.496 0 0 0-.567 1.305 5.022 5.022 0 0 0-.216 1.431c0 .456.114.825.342 1.107.228.282.534.423.918.423zm9.91-1.818c-.192-.984-.387-1.665-.585-2.043-.198-.378-.405-.567-.621-.567-.228 0-.435.171-.621.513-.186.342-.375.885-.567 1.629l-.666-.18a8.62 8.62 0 0 1 .477-1.53 6.94 6.94 0 0 1 .648-1.215c.234-.342.483-.606.747-.792.264-.186.528-.279.792-.279.228 0 .423.084.585.252.162.168.327.48.495.936.144.384.303.891.477 1.521.174.63.345 1.353.513 2.169l.612 2.898h.072c.228-.288.459-.615.693-.981.234-.366.447-.75.639-1.152.192-.402.348-.81.468-1.224a4.183 4.183 0 0 0 .162-1.62 19.583 19.583 0 0 0-.045-.567 22.416 22.416 0 0 1-.045-.549 6.418 6.418 0 0 1-.018-.423c0-.432.108-.75.324-.954.216-.204.444-.306.684-.306.312 0 .54.132.684.396.144.264.216.57.216.918 0 .492-.132 1.122-.396 1.89a21.74 21.74 0 0 1-1.044 2.475c-.432.882-.93 1.782-1.494 2.7a27.416 27.416 0 0 1-1.746 2.529c-.912 1.188-1.755 2.067-2.529 2.637-.774.57-1.497.855-2.169.855-.504 0-.903-.138-1.197-.414a1.33 1.33 0 0 1-.441-1.008c0-.3.084-.543.252-.729a.854.854 0 0 1 .666-.279c.24 0 .417.069.531.207.114.138.207.294.279.468.072.174.147.33.225.468a.394.394 0 0 0 .369.207c.228 0 .516-.126.864-.378a7.08 7.08 0 0 0 1.044-.945c.348-.378.675-.789.981-1.233.306-.444.525-.858.657-1.242l-.972-5.058zm76.976 166.854c-.42.636-.831 1.182-1.233 1.638a6.463 6.463 0 0 1-1.251 1.116 4.704 4.704 0 0 1-1.368.63c-.48.132-.996.198-1.548.198-.816 0-1.548-.129-2.196-.387a4.456 4.456 0 0 1-1.647-1.116 5.06 5.06 0 0 1-1.044-1.764c-.246-.69-.369-1.467-.369-2.331 0-1.14.21-2.229.63-3.267a9.433 9.433 0 0 1 1.683-2.745 8.296 8.296 0 0 1 2.439-1.899 6.268 6.268 0 0 1 2.898-.711c.576 0 1.125.087 1.647.261a6.39 6.39 0 0 1 1.593.819l.666-.9h.666l-.828 4.518h-.684c-.096-1.308-.375-2.262-.837-2.862-.462-.6-1.155-.9-2.079-.9-.792 0-1.53.198-2.214.594a5.76 5.76 0 0 0-1.782 1.638c-.504.696-.9 1.512-1.188 2.448a10.233 10.233 0 0 0-.432 3.024c0 2.976 1.158 4.464 3.474 4.464.864 0 1.647-.234 2.349-.702.702-.468 1.371-1.2 2.007-2.196l.648.432zm5.5 3.582a2.65 2.65 0 0 1-2.07-.954 3.547 3.547 0 0 1-.63-1.143 4.626 4.626 0 0 1-.234-1.521c0-.78.147-1.548.441-2.304a7.407 7.407 0 0 1 1.161-2.016 6.054 6.054 0 0 1 1.647-1.422c.618-.36 1.257-.54 1.917-.54.432 0 .831.081 1.197.243.366.162.678.396.936.702.258.306.462.672.612 1.098.15.426.225.897.225 1.413 0 .756-.15 1.518-.45 2.286a7.964 7.964 0 0 1-1.179 2.07 6.566 6.566 0 0 1-1.665 1.503c-.624.39-1.26.585-1.908.585zm.108-.9c.408 0 .813-.21 1.215-.63.402-.42.762-.951 1.08-1.593.318-.642.576-1.341.774-2.097a8.529 8.529 0 0 0 .297-2.16c0-.636-.111-1.074-.333-1.314-.222-.24-.525-.36-.909-.36-.264 0-.531.093-.801.279-.27.186-.525.441-.765.765s-.465.696-.675 1.116a10.154 10.154 0 0 0-.909 2.763 8.196 8.196 0 0 0-.126 1.395c0 .672.108 1.146.324 1.422.216.276.492.414.828.414zm14.59-8.064c-.288 0-.615.147-.981.441a7.028 7.028 0 0 0-1.116 1.17 13.11 13.11 0 0 0-1.089 1.665c-.348.624-.642 1.26-.882 1.908l-1.332 3.6h-1.584l1.332-4.122c.216-.66.396-1.224.54-1.692.144-.468.261-.861.351-1.179.09-.318.153-.576.189-.774.036-.198.054-.357.054-.477 0-.324-.102-.486-.306-.486-.132 0-.288.084-.468.252a4.01 4.01 0 0 0-.549.657c-.186.27-.363.579-.531.927a8.954 8.954 0 0 0-.432 1.062l-.54-.27c.42-1.236.891-2.148 1.413-2.736.522-.588 1.119-.882 1.791-.882.384 0 .657.108.819.324.162.216.243.582.243 1.098 0 .612-.102 1.158-.306 1.638l.054.054c.612-1.08 1.233-1.869 1.863-2.367.63-.498 1.317-.747 2.061-.747.528 0 .93.126 1.206.378.276.252.414.612.414 1.08 0 .156-.015.33-.045.522s-.081.423-.153.693c-.072.27-.171.591-.297.963-.126.372-.279.828-.459 1.368-.276.816-.504 1.5-.684 2.052-.18.552-.27.942-.27 1.17 0 .18.06.27.18.27.168 0 .414-.138.738-.414.324-.276.762-.72 1.314-1.332l.468.252c-.192.36-.441.711-.747 1.053a9.217 9.217 0 0 1-.954.927c-.33.276-.657.498-.981.666-.324.168-.606.252-.846.252-.3 0-.537-.132-.711-.396-.174-.264-.261-.612-.261-1.044 0-.168.015-.339.045-.513s.093-.423.189-.747.237-.759.423-1.305c.186-.546.441-1.269.765-2.169.108-.312.198-.576.27-.792.072-.216.129-.405.171-.567.042-.162.072-.303.09-.423.018-.12.027-.234.027-.342 0-.444-.162-.666-.486-.666zm11.35 5.886c-.504.996-1.089 1.758-1.755 2.286-.666.528-1.377.792-2.133.792-.78 0-1.404-.267-1.872-.801-.468-.534-.702-1.245-.702-2.133 0-.528.078-1.068.234-1.62a8.86 8.86 0 0 1 1.566-3.06c.36-.456.744-.852 1.152-1.188a5.678 5.678 0 0 1 1.269-.801 3.11 3.11 0 0 1 1.287-.297c.576 0 1.05.156 1.422.468.372.312.558.702.558 1.17 0 .3-.087.543-.261.729a.882.882 0 0 1-.675.279.913.913 0 0 1-.675-.261.869.869 0 0 1-.261-.639c0-.156.024-.282.072-.378a.607.607 0 0 0 .072-.27c0-.168-.144-.252-.432-.252-.396 0-.798.186-1.206.558-.408.372-.777.852-1.107 1.44-.33.588-.6 1.245-.81 1.971a7.775 7.775 0 0 0-.315 2.169c0 .576.111 1.029.333 1.359.222.33.531.495.927.495.216 0 .441-.06.675-.18.234-.12.471-.285.711-.495.24-.21.471-.459.693-.747.222-.288.423-.606.603-.954l.63.36zm8.902.504c-1.044 1.716-2.328 2.574-3.852 2.574-.828 0-1.464-.255-1.908-.765-.444-.51-.666-1.233-.666-2.169 0-.828.171-1.656.513-2.484a8.68 8.68 0 0 1 1.341-2.241 7.353 7.353 0 0 1 1.854-1.62c.684-.414 1.368-.621 2.052-.621.576 0 1.047.147 1.413.441.366.294.549.669.549 1.125 0 .42-.156.852-.468 1.296-.312.444-.735.864-1.269 1.26-.534.396-1.158.756-1.872 1.08-.714.324-1.473.576-2.277.756a7.329 7.329 0 0 0-.072.99c0 1.308.462 1.962 1.386 1.962.444 0 .903-.174 1.377-.522.474-.348.915-.828 1.323-1.44l.576.378zm-1.026-6.48c-.312 0-.636.12-.972.36-.336.24-.657.561-.963.963a8.227 8.227 0 0 0-.837 1.377 9.58 9.58 0 0 0-.612 1.602 8.212 8.212 0 0 0 1.602-.612 5.936 5.936 0 0 0 1.269-.855c.354-.318.633-.654.837-1.008.204-.354.306-.711.306-1.071 0-.504-.21-.756-.63-.756zm3.826 2.124a9.206 9.206 0 0 1 1.494-1.359 8.377 8.377 0 0 1 1.746-.981l.846-2.88h1.368l-.63 2.394c.192-.036.381-.066.567-.09.186-.024.375-.036.567-.036 1.02 0 1.812.276 2.376.828.564.552.846 1.326.846 2.322 0 .792-.189 1.539-.567 2.241a6.739 6.739 0 0 1-1.512 1.881 8.564 8.564 0 0 1-2.178 1.377 9.355 9.355 0 0 1-2.565.729l-.666 2.502c-.06.18-.099.33-.117.45-.018.12-.027.228-.027.324 0 .3.123.51.369.63s.681.186 1.305.198l-.108.72h-5.094l.108-.72c.504 0 .87-.06 1.098-.18.228-.12.39-.336.486-.648l3.258-11.124c-.456.24-.894.525-1.314.855-.42.33-.81.687-1.17 1.071l-.486-.504zm5.49-2.07a3.85 3.85 0 0 0-.459.027c-.15.018-.297.039-.441.063l-2.034 7.632c.6-.12 1.185-.342 1.755-.666a6.301 6.301 0 0 0 1.521-1.206 6.036 6.036 0 0 0 1.071-1.611c.27-.594.405-1.215.405-1.863 0-.72-.165-1.296-.495-1.728-.33-.432-.771-.648-1.323-.648zm9.532.774l-1.494 4.95c-.204.648-.312 1.14-.324 1.476a.52.52 0 0 0 .081.288c.054.084.147.126.279.126.216 0 .444-.081.684-.243.24-.162.471-.354.693-.576.222-.222.42-.45.594-.684.174-.234.303-.417.387-.549l.522.306a6.23 6.23 0 0 1-.774 1.179 7.429 7.429 0 0 1-.99.999 5.388 5.388 0 0 1-1.053.693c-.354.174-.675.261-.963.261-.42 0-.723-.09-.909-.27-.186-.18-.279-.48-.279-.9 0-.24.042-.564.126-.972.084-.408.228-.966.432-1.674l1.332-4.41h-1.548l.234-.828h1.566l.936-3.096h1.656l-.936 3.096h1.962l-.252.828h-1.962zm20.972 4.644c-.42.636-.831 1.182-1.233 1.638a6.463 6.463 0 0 1-1.251 1.116 4.704 4.704 0 0 1-1.368.63c-.48.132-.996.198-1.548.198-.816 0-1.548-.129-2.196-.387a4.456 4.456 0 0 1-1.647-1.116 5.06 5.06 0 0 1-1.044-1.764c-.246-.69-.369-1.467-.369-2.331 0-1.14.21-2.229.63-3.267a9.433 9.433 0 0 1 1.683-2.745 8.296 8.296 0 0 1 2.439-1.899 6.268 6.268 0 0 1 2.898-.711c.576 0 1.125.087 1.647.261a6.39 6.39 0 0 1 1.593.819l.666-.9h.666l-.828 4.518h-.684c-.096-1.308-.375-2.262-.837-2.862-.462-.6-1.155-.9-2.079-.9-.792 0-1.53.198-2.214.594a5.76 5.76 0 0 0-1.782 1.638c-.504.696-.9 1.512-1.188 2.448a10.233 10.233 0 0 0-.432 3.024c0 2.976 1.158 4.464 3.474 4.464.864 0 1.647-.234 2.349-.702.702-.468 1.371-1.2 2.007-2.196l.648.432zm2.512-3.636c.132-.3.333-.609.603-.927a6.66 6.66 0 0 1 .882-.864c.318-.258.639-.471.963-.639.324-.168.606-.252.846-.252.288 0 .498.108.63.324.132.216.198.564.198 1.044a5.608 5.608 0 0 1-.126 1.188l.054.054c.144-.348.348-.69.612-1.026.264-.336.549-.633.855-.891.306-.258.618-.468.936-.63.318-.162.615-.243.891-.243.348 0 .639.111.873.333.234.222.351.495.351.819 0 .312-.099.57-.297.774a1.02 1.02 0 0 1-.765.306.852.852 0 0 1-.459-.108 2.022 2.022 0 0 1-.297-.225 8.79 8.79 0 0 1-.234-.225.366.366 0 0 0-.27-.108c-.228 0-.492.153-.792.459-.3.306-.612.723-.936 1.251a16.442 16.442 0 0 0-.963 1.854c-.318.708-.609 1.47-.873 2.286l-.81 2.484h-1.674l1.17-3.726.567-1.791c.15-.474.267-.87.351-1.188a8.78 8.78 0 0 0 .171-.747c.03-.18.045-.336.045-.468 0-.264-.09-.396-.27-.396-.12 0-.267.048-.441.144a3.07 3.07 0 0 0-.513.36 4.067 4.067 0 0 0-.477.486c-.15.18-.261.354-.333.522l-.468-.234zm15.364 4.644c-1.044 1.716-2.328 2.574-3.852 2.574-.828 0-1.464-.255-1.908-.765-.444-.51-.666-1.233-.666-2.169 0-.828.171-1.656.513-2.484a8.68 8.68 0 0 1 1.341-2.241 7.353 7.353 0 0 1 1.854-1.62c.684-.414 1.368-.621 2.052-.621.576 0 1.047.147 1.413.441.366.294.549.669.549 1.125 0 .42-.156.852-.468 1.296-.312.444-.735.864-1.269 1.26-.534.396-1.158.756-1.872 1.08-.714.324-1.473.576-2.277.756a7.329 7.329 0 0 0-.072.99c0 1.308.462 1.962 1.386 1.962.444 0 .903-.174 1.377-.522.474-.348.915-.828 1.323-1.44l.576.378zm-1.026-6.48c-.312 0-.636.12-.972.36-.336.24-.657.561-.963.963a8.227 8.227 0 0 0-.837 1.377 9.58 9.58 0 0 0-.612 1.602 8.212 8.212 0 0 0 1.602-.612 5.936 5.936 0 0 0 1.269-.855c.354-.318.633-.654.837-1.008.204-.354.306-.711.306-1.071 0-.504-.21-.756-.63-.756zm9.532.09c-.456 0-.927.21-1.413.63-.486.42-.927.945-1.323 1.575a9.92 9.92 0 0 0-.972 2.034c-.252.726-.378 1.401-.378 2.025 0 .432.09.777.27 1.035.18.258.426.387.738.387.276 0 .564-.111.864-.333.3-.222.591-.516.873-.882.282-.366.549-.783.801-1.251.252-.468.474-.951.666-1.449.192-.498.342-.987.45-1.467.108-.48.162-.912.162-1.296 0-.312-.066-.558-.198-.738a.634.634 0 0 0-.54-.27zm1.854-.756h1.494l-1.026 2.754a32.784 32.784 0 0 0-.927 2.952c-.126.48-.225.918-.297 1.314-.072.396-.108.69-.108.882 0 .348.114.522.342.522.168 0 .411-.174.729-.522a14.96 14.96 0 0 0 1.071-1.35l.468.378c-.504.888-1.047 1.575-1.629 2.061-.582.486-1.143.729-1.683.729a.739.739 0 0 1-.639-.315c-.15-.21-.225-.555-.225-1.035a9.222 9.222 0 0 1 .054-.954l-.072-.018a4.988 4.988 0 0 1-1.44 1.665c-.288.21-.588.372-.9.486a2.664 2.664 0 0 1-.918.171c-.612 0-1.089-.231-1.431-.693-.342-.462-.513-1.101-.513-1.917 0-.828.174-1.674.522-2.538a9.546 9.546 0 0 1 1.35-2.349 8.018 8.018 0 0 1 1.836-1.728c.672-.45 1.332-.675 1.98-.675.396 0 .72.093.972.279.252.186.456.489.612.909l.378-1.008zm7.66 1.494l-1.494 4.95c-.204.648-.312 1.14-.324 1.476a.52.52 0 0 0 .081.288c.054.084.147.126.279.126.216 0 .444-.081.684-.243.24-.162.471-.354.693-.576.222-.222.42-.45.594-.684.174-.234.303-.417.387-.549l.522.306a6.23 6.23 0 0 1-.774 1.179 7.429 7.429 0 0 1-.99.999 5.388 5.388 0 0 1-1.053.693c-.354.174-.675.261-.963.261-.42 0-.723-.09-.909-.27-.186-.18-.279-.48-.279-.9 0-.24.042-.564.126-.972.084-.408.228-.966.432-1.674l1.332-4.41h-1.548l.234-.828h1.566l.936-3.096h1.656l-.936 3.096h1.962l-.252.828h-1.962zm5.698 2.106c.168-.468.288-.846.36-1.134a3 3 0 0 0 .108-.684c0-.168-.027-.279-.081-.333a.24.24 0 0 0-.171-.081c-.132 0-.276.063-.432.189a5.1 5.1 0 0 0-.882.945c-.12.168-.204.3-.252.396l-.522-.324c.144-.264.345-.558.603-.882a6.5 6.5 0 0 1 .873-.9c.324-.276.66-.507 1.008-.693.348-.186.678-.279.99-.279.3 0 .525.087.675.261.15.174.225.489.225.945 0 .348-.105.816-.315 1.404-.21.588-.483 1.344-.819 2.268l-.666 1.818a5.55 5.55 0 0 0-.099.279c-.042.126-.084.258-.126.396a5.828 5.828 0 0 0-.108.405c-.03.132-.045.24-.045.324 0 .108.03.204.09.288.06.084.156.126.288.126.18 0 .366-.075.558-.225.192-.15.378-.327.558-.531.18-.204.342-.411.486-.621.144-.21.252-.375.324-.495l.54.306a7.483 7.483 0 0 1-.585.954 6.382 6.382 0 0 1-.837.963c-.312.294-.654.54-1.026.738a2.422 2.422 0 0 1-1.152.297c-.348 0-.609-.09-.783-.27-.174-.18-.261-.48-.261-.9 0-.348.057-.723.171-1.125.114-.402.279-.909.495-1.521l.81-2.304zm2.646-6.732c-.3 0-.561-.102-.783-.306a1.026 1.026 0 0 1-.333-.792c0-.324.108-.6.324-.828a1.05 1.05 0 0 1 .792-.342c.336 0 .612.114.828.342.216.228.324.498.324.81 0 .312-.114.576-.342.792a1.138 1.138 0 0 1-.81.324zm5.554 12.852a2.65 2.65 0 0 1-2.07-.954 3.547 3.547 0 0 1-.63-1.143 4.626 4.626 0 0 1-.234-1.521c0-.78.147-1.548.441-2.304a7.407 7.407 0 0 1 1.161-2.016 6.054 6.054 0 0 1 1.647-1.422c.618-.36 1.257-.54 1.917-.54.432 0 .831.081 1.197.243.366.162.678.396.936.702.258.306.462.672.612 1.098.15.426.225.897.225 1.413 0 .756-.15 1.518-.45 2.286a7.964 7.964 0 0 1-1.179 2.07 6.566 6.566 0 0 1-1.665 1.503c-.624.39-1.26.585-1.908.585zm.108-.9c.408 0 .813-.21 1.215-.63.402-.42.762-.951 1.08-1.593.318-.642.576-1.341.774-2.097a8.529 8.529 0 0 0 .297-2.16c0-.636-.111-1.074-.333-1.314-.222-.24-.525-.36-.909-.36-.264 0-.531.093-.801.279-.27.186-.525.441-.765.765s-.465.696-.675 1.116a10.154 10.154 0 0 0-.909 2.763 8.196 8.196 0 0 0-.126 1.395c0 .672.108 1.146.324 1.422.216.276.492.414.828.414zm14.59-8.064c-.288 0-.615.147-.981.441a7.028 7.028 0 0 0-1.116 1.17 13.11 13.11 0 0 0-1.089 1.665c-.348.624-.642 1.26-.882 1.908l-1.332 3.6h-1.584l1.332-4.122c.216-.66.396-1.224.54-1.692.144-.468.261-.861.351-1.179.09-.318.153-.576.189-.774.036-.198.054-.357.054-.477 0-.324-.102-.486-.306-.486-.132 0-.288.084-.468.252a4.01 4.01 0 0 0-.549.657c-.186.27-.363.579-.531.927a8.954 8.954 0 0 0-.432 1.062l-.54-.27c.42-1.236.891-2.148 1.413-2.736.522-.588 1.119-.882 1.791-.882.384 0 .657.108.819.324.162.216.243.582.243 1.098 0 .612-.102 1.158-.306 1.638l.054.054c.612-1.08 1.233-1.869 1.863-2.367.63-.498 1.317-.747 2.061-.747.528 0 .93.126 1.206.378.276.252.414.612.414 1.08 0 .156-.015.33-.045.522s-.081.423-.153.693c-.072.27-.171.591-.297.963-.126.372-.279.828-.459 1.368-.276.816-.504 1.5-.684 2.052-.18.552-.27.942-.27 1.17 0 .18.06.27.18.27.168 0 .414-.138.738-.414.324-.276.762-.72 1.314-1.332l.468.252c-.192.36-.441.711-.747 1.053a9.217 9.217 0 0 1-.954.927c-.33.276-.657.498-.981.666-.324.168-.606.252-.846.252-.3 0-.537-.132-.711-.396-.174-.264-.261-.612-.261-1.044 0-.168.015-.339.045-.513s.093-.423.189-.747.237-.759.423-1.305c.186-.546.441-1.269.765-2.169.108-.312.198-.576.27-.792.072-.216.129-.405.171-.567.042-.162.072-.303.09-.423.018-.12.027-.234.027-.342 0-.444-.162-.666-.486-.666zm378.202-159.942a5.79 5.79 0 0 0-.117.414 15.266 15.266 0 0 0-.216 1.008 2.45 2.45 0 0 0-.045.414c0 .24.054.432.162.576.108.144.243.252.405.324.162.072.342.12.54.144.198.024.393.036.585.036.66 0 1.251-.087 1.773-.261a3.853 3.853 0 0 0 1.323-.729c.36-.312.633-.681.819-1.107.186-.426.279-.891.279-1.395 0-.912-.294-1.578-.882-1.998-.588-.42-1.494-.63-2.718-.63h-1.026l-.882 3.204zm-4.482 3.006c.36 0 .666-.024.918-.072.252-.048.468-.147.648-.297s.336-.366.468-.648c.132-.282.264-.657.396-1.125l2.124-7.938c.132-.528.198-.942.198-1.242 0-.408-.126-.693-.378-.855-.252-.162-.678-.243-1.278-.243l.198-.72h4.824c.516 0 1.044.045 1.584.135.54.09 1.029.252 1.467.486.438.234.798.552 1.08.954.282.402.423.915.423 1.539 0 .588-.12 1.08-.36 1.476-.24.396-.546.723-.918.981a4.424 4.424 0 0 1-1.233.594 8.61 8.61 0 0 1-1.305.297v.072c1.056.216 1.86.609 2.412 1.179.552.57.828 1.293.828 2.169 0 .612-.144 1.164-.432 1.656a3.865 3.865 0 0 1-1.188 1.251c-.504.342-1.104.606-1.8.792a8.839 8.839 0 0 1-2.286.279h-6.588l.198-.72zm5.598-7.128h1.332c.564 0 1.083-.072 1.557-.216a3.671 3.671 0 0 0 1.215-.612c.336-.264.597-.579.783-.945.186-.366.279-.771.279-1.215 0-.78-.219-1.344-.657-1.692-.438-.348-1.179-.522-2.223-.522-.324 0-.585.111-.783.333-.198.222-.363.591-.495 1.107l-1.008 3.762zm8.992.81c.132-.3.333-.609.603-.927a6.66 6.66 0 0 1 .882-.864c.318-.258.639-.471.963-.639.324-.168.606-.252.846-.252.288 0 .498.108.63.324.132.216.198.564.198 1.044a5.608 5.608 0 0 1-.126 1.188l.054.054c.144-.348.348-.69.612-1.026.264-.336.549-.633.855-.891.306-.258.618-.468.936-.63.318-.162.615-.243.891-.243.348 0 .639.111.873.333.234.222.351.495.351.819 0 .312-.099.57-.297.774a1.02 1.02 0 0 1-.765.306.852.852 0 0 1-.459-.108 2.022 2.022 0 0 1-.297-.225 8.792 8.792 0 0 1-.234-.225.366.366 0 0 0-.27-.108c-.228 0-.492.153-.792.459-.3.306-.612.723-.936 1.251a16.442 16.442 0 0 0-.963 1.854c-.318.708-.609 1.47-.873 2.286l-.81 2.484h-1.674l1.17-3.726.567-1.791c.15-.474.267-.87.351-1.188a8.78 8.78 0 0 0 .171-.747c.03-.18.045-.336.045-.468 0-.264-.09-.396-.27-.396-.12 0-.267.048-.441.144a3.07 3.07 0 0 0-.513.36 4.067 4.067 0 0 0-.477.486c-.15.18-.261.354-.333.522l-.468-.234zm14.626-1.746c-.456 0-.927.21-1.413.63-.486.42-.927.945-1.323 1.575a9.92 9.92 0 0 0-.972 2.034c-.252.726-.378 1.401-.378 2.025 0 .432.09.777.27 1.035.18.258.426.387.738.387.276 0 .564-.111.864-.333.3-.222.591-.516.873-.882.282-.366.549-.783.801-1.251.252-.468.474-.951.666-1.449.192-.498.342-.987.45-1.467.108-.48.162-.912.162-1.296 0-.312-.066-.558-.198-.738a.634.634 0 0 0-.54-.27zm1.854-.756h1.494l-1.026 2.754a32.784 32.784 0 0 0-.927 2.952c-.126.48-.225.918-.297 1.314-.072.396-.108.69-.108.882 0 .348.114.522.342.522.168 0 .411-.174.729-.522a14.96 14.96 0 0 0 1.071-1.35l.468.378c-.504.888-1.047 1.575-1.629 2.061-.582.486-1.143.729-1.683.729a.739.739 0 0 1-.639-.315c-.15-.21-.225-.555-.225-1.035a9.222 9.222 0 0 1 .054-.954l-.072-.018a4.988 4.988 0 0 1-1.44 1.665c-.288.21-.588.372-.9.486a2.664 2.664 0 0 1-.918.171c-.612 0-1.089-.231-1.431-.693-.342-.462-.513-1.101-.513-1.917 0-.828.174-1.674.522-2.538a9.546 9.546 0 0 1 1.35-2.349 8.018 8.018 0 0 1 1.836-1.728c.672-.45 1.332-.675 1.98-.675.396 0 .72.093.972.279.252.186.456.489.612.909l.378-1.008zm11.08.756c-.288 0-.615.147-.981.441a7.028 7.028 0 0 0-1.116 1.17 13.11 13.11 0 0 0-1.089 1.665c-.348.624-.642 1.26-.882 1.908l-1.332 3.6h-1.584l1.332-4.122c.216-.66.396-1.224.54-1.692.144-.468.261-.861.351-1.179.09-.318.153-.576.189-.774.036-.198.054-.357.054-.477 0-.324-.102-.486-.306-.486-.132 0-.288.084-.468.252a4.01 4.01 0 0 0-.549.657c-.186.27-.363.579-.531.927a8.954 8.954 0 0 0-.432 1.062l-.54-.27c.42-1.236.891-2.148 1.413-2.736.522-.588 1.119-.882 1.791-.882.384 0 .657.108.819.324.162.216.243.582.243 1.098 0 .612-.102 1.158-.306 1.638l.054.054c.612-1.08 1.233-1.869 1.863-2.367.63-.498 1.317-.747 2.061-.747.528 0 .93.126 1.206.378.276.252.414.612.414 1.08 0 .156-.015.33-.045.522s-.081.423-.153.693c-.072.27-.171.591-.297.963-.126.372-.279.828-.459 1.368-.276.816-.504 1.5-.684 2.052-.18.552-.27.942-.27 1.17 0 .18.06.27.18.27.168 0 .414-.138.738-.414.324-.276.762-.72 1.314-1.332l.468.252c-.192.36-.441.711-.747 1.053a9.217 9.217 0 0 1-.954.927c-.33.276-.657.498-.981.666-.324.168-.606.252-.846.252-.3 0-.537-.132-.711-.396-.174-.264-.261-.612-.261-1.044 0-.168.015-.339.045-.513s.093-.423.189-.747.237-.759.423-1.305c.186-.546.441-1.269.765-2.169.108-.312.198-.576.27-.792.072-.216.129-.405.171-.567.042-.162.072-.303.09-.423.018-.12.027-.234.027-.342 0-.444-.162-.666-.486-.666zm13.06-3.672c.096-.324.168-.594.216-.81.048-.216.072-.372.072-.468 0-.18-.12-.306-.36-.378-.24-.072-.672-.108-1.296-.108l.198-.72h3.474l-1.998 7.29c-.252.936-.462 1.734-.63 2.394-.168.66-.303 1.215-.405 1.665-.102.45-.171.819-.207 1.107a5.993 5.993 0 0 0-.054.72c0 .276.042.468.126.576a.393.393 0 0 0 .324.162c.264 0 .549-.222.855-.666.306-.444.579-1.026.819-1.746l.684.162c-.408 1.188-.855 2.061-1.341 2.619-.486.558-1.035.837-1.647.837-.432 0-.765-.138-.999-.414-.234-.276-.351-.672-.351-1.188 0-.132.012-.27.036-.414.024-.144.054-.282.09-.414l-.144-.036c-.456.792-1.008 1.401-1.656 1.827-.648.426-1.266.639-1.854.639-.312 0-.6-.069-.864-.207a2.09 2.09 0 0 1-.684-.576 2.92 2.92 0 0 1-.459-.882 3.6 3.6 0 0 1-.171-1.143c0-.516.081-1.053.243-1.611a8.226 8.226 0 0 1 .666-1.62c.282-.522.609-1.017.981-1.485a8.904 8.904 0 0 1 1.179-1.233c.414-.354.84-.633 1.278-.837a3.035 3.035 0 0 1 1.287-.306c.408 0 .717.078.927.234.21.156.417.402.621.738l1.044-3.708zm-2.466 3.69c-.312 0-.627.099-.945.297a4.435 4.435 0 0 0-.927.792c-.3.33-.579.711-.837 1.143-.258.432-.483.882-.675 1.35a9.566 9.566 0 0 0-.459 1.422c-.114.48-.171.93-.171 1.35 0 .432.108.777.324 1.035.216.258.504.387.864.387.276 0 .558-.111.846-.333.288-.222.57-.513.846-.873s.537-.771.783-1.233c.246-.462.462-.936.648-1.422.186-.486.333-.966.441-1.44.108-.474.162-.903.162-1.287 0-.372-.072-.663-.216-.873-.144-.21-.372-.315-.684-.315zm18.146 7.974c.504 0 .969-.069 1.395-.207a3.251 3.251 0 0 0 1.116-.612c.318-.27.564-.603.738-.999.174-.396.261-.858.261-1.386 0-.48-.105-.834-.315-1.062-.21-.228-.615-.342-1.215-.342l.162-.702h4.932l-.18.702c-.252 0-.465.018-.639.054a.797.797 0 0 0-.459.297c-.132.162-.258.405-.378.729-.12.324-.252.768-.396 1.332-.096.348-.186.699-.27 1.053a5.351 5.351 0 0 0-.144 1.053 4.932 4.932 0 0 0-.873.243c-.306.114-.654.231-1.044.351-.39.12-.837.228-1.341.324a9.412 9.412 0 0 1-1.746.144c-.816 0-1.548-.129-2.196-.387a4.456 4.456 0 0 1-1.647-1.116 5.06 5.06 0 0 1-1.044-1.764c-.246-.69-.369-1.467-.369-2.331 0-1.14.219-2.229.657-3.267a9.28 9.28 0 0 1 1.764-2.745 8.712 8.712 0 0 1 2.556-1.899 6.801 6.801 0 0 1 3.033-.711c.648 0 1.263.087 1.845.261a7.093 7.093 0 0 1 1.755.819l.666-.9h.666l-.648 3.96h-.684c-.12-1.104-.453-1.914-.999-2.43-.546-.516-1.365-.774-2.457-.774-.84 0-1.623.198-2.349.594a6.077 6.077 0 0 0-1.899 1.638c-.54.696-.963 1.512-1.269 2.448a9.676 9.676 0 0 0-.459 3.024c0 3.072 1.158 4.608 3.474 4.608zm8.974-6.246c.132-.3.333-.609.603-.927a6.66 6.66 0 0 1 .882-.864c.318-.258.639-.471.963-.639.324-.168.606-.252.846-.252.288 0 .498.108.63.324.132.216.198.564.198 1.044a5.608 5.608 0 0 1-.126 1.188l.054.054c.144-.348.348-.69.612-1.026.264-.336.549-.633.855-.891.306-.258.618-.468.936-.63.318-.162.615-.243.891-.243.348 0 .639.111.873.333.234.222.351.495.351.819 0 .312-.099.57-.297.774a1.02 1.02 0 0 1-.765.306.852.852 0 0 1-.459-.108 2.022 2.022 0 0 1-.297-.225 8.79 8.79 0 0 1-.234-.225.366.366 0 0 0-.27-.108c-.228 0-.492.153-.792.459-.3.306-.612.723-.936 1.251a16.442 16.442 0 0 0-.963 1.854c-.318.708-.609 1.47-.873 2.286l-.81 2.484h-1.674l1.17-3.726.567-1.791c.15-.474.267-.87.351-1.188a8.78 8.78 0 0 0 .171-.747c.03-.18.045-.336.045-.468 0-.264-.09-.396-.27-.396-.12 0-.267.048-.441.144a3.07 3.07 0 0 0-.513.36 4.067 4.067 0 0 0-.477.486c-.15.18-.261.354-.333.522l-.468-.234zm12.16 7.218a2.65 2.65 0 0 1-2.07-.954 3.547 3.547 0 0 1-.63-1.143 4.626 4.626 0 0 1-.234-1.521c0-.78.147-1.548.441-2.304a7.407 7.407 0 0 1 1.161-2.016 6.054 6.054 0 0 1 1.647-1.422c.618-.36 1.257-.54 1.917-.54.432 0 .831.081 1.197.243.366.162.678.396.936.702.258.306.462.672.612 1.098.15.426.225.897.225 1.413 0 .756-.15 1.518-.45 2.286a7.964 7.964 0 0 1-1.179 2.07 6.566 6.566 0 0 1-1.665 1.503c-.624.39-1.26.585-1.908.585zm.108-.9c.408 0 .813-.21 1.215-.63.402-.42.762-.951 1.08-1.593.318-.642.576-1.341.774-2.097a8.529 8.529 0 0 0 .297-2.16c0-.636-.111-1.074-.333-1.314-.222-.24-.525-.36-.909-.36-.264 0-.531.093-.801.279-.27.186-.525.441-.765.765s-.465.696-.675 1.116a10.154 10.154 0 0 0-.909 2.763 8.196 8.196 0 0 0-.126 1.395c0 .672.108 1.146.324 1.422.216.276.492.414.828.414zm14.158-1.026c-.54.624-1.104 1.101-1.692 1.431-.588.33-1.176.495-1.764.495-.66 0-1.176-.213-1.548-.639-.372-.426-.558-1.023-.558-1.791 0-1.5.774-3.294 2.322-5.382l-.036-.054c-.324 0-.594-.048-.81-.144a2.502 2.502 0 0 1-.549-.324 20.59 20.59 0 0 1-.396-.324.562.562 0 0 0-.369-.144c-.192 0-.288.102-.288.306 0 .108.033.204.099.288.066.084.138.168.216.252.078.084.15.177.216.279a.665.665 0 0 1 .099.369.656.656 0 0 1-.252.531c-.168.138-.384.207-.648.207-.312 0-.552-.096-.72-.288-.168-.192-.252-.462-.252-.81 0-.288.06-.567.18-.837s.282-.51.486-.72c.204-.21.441-.375.711-.495.27-.12.549-.18.837-.18.252 0 .462.039.63.117.168.078.324.168.468.27.144.102.285.192.423.27a.953.953 0 0 0 .477.117.616.616 0 0 0 .261-.054c.078-.036.171-.108.279-.216.132-.132.264-.249.396-.351a.716.716 0 0 1 .45-.153c.252 0 .378.12.378.36a.428.428 0 0 1-.018.117.595.595 0 0 1-.099.171 6.666 6.666 0 0 1-.225.279 33.79 33.79 0 0 1-.396.459 9.406 9.406 0 0 0-1.602 2.673c-.18.462-.318.918-.414 1.368-.096.45-.144.873-.144 1.269 0 .588.096 1.047.288 1.377.192.33.462.495.81.495.324 0 .702-.159 1.134-.477.432-.318.894-.765 1.386-1.341-.024-.252-.045-.51-.063-.774a10.665 10.665 0 0 1-.027-.72c0-.648.075-1.287.225-1.917.15-.63.345-1.194.585-1.692s.516-.897.828-1.197c.312-.3.63-.45.954-.45.264 0 .501.114.711.342.21.228.315.612.315 1.152 0 .648-.174 1.398-.522 2.25-.348.852-.852 1.746-1.512 2.682.108.576.309 1.044.603 1.404.294.36.615.54.963.54.336 0 .678-.156 1.026-.468.348-.312.666-.711.954-1.197a7.647 7.647 0 0 0 .711-1.62 5.797 5.797 0 0 0 .279-1.737 3.61 3.61 0 0 0-.063-.72 5.996 5.996 0 0 0-.144-.567 11.108 11.108 0 0 1-.144-.504 2.113 2.113 0 0 1-.063-.531c0-.684.312-1.026.936-1.026.372 0 .639.138.801.414.162.276.243.738.243 1.386 0 .96-.156 1.923-.468 2.889a11.106 11.106 0 0 1-1.215 2.61c-.498.774-1.059 1.401-1.683 1.881-.624.48-1.248.72-1.872.72a1.87 1.87 0 0 1-1.296-.486c-.36-.324-.636-.804-.828-1.44zm1.008-2.7a9.739 9.739 0 0 0 .765-1.548 4.34 4.34 0 0 0 .297-1.566c0-.456-.09-.684-.27-.684-.12 0-.234.078-.342.234a2.218 2.218 0 0 0-.279.63 6.28 6.28 0 0 0-.189.927 8.378 8.378 0 0 0-.072 1.125c0 .168.006.324.018.468.012.144.036.282.072.414zm12.196-3.6l-1.494 4.95c-.204.648-.312 1.14-.324 1.476a.52.52 0 0 0 .081.288c.054.084.147.126.279.126.216 0 .444-.081.684-.243.24-.162.471-.354.693-.576.222-.222.42-.45.594-.684.174-.234.303-.417.387-.549l.522.306a6.23 6.23 0 0 1-.774 1.179 7.429 7.429 0 0 1-.99.999 5.388 5.388 0 0 1-1.053.693c-.354.174-.675.261-.963.261-.42 0-.723-.09-.909-.27-.186-.18-.279-.48-.279-.9 0-.24.042-.564.126-.972.084-.408.228-.966.432-1.674l1.332-4.41h-1.548l.234-.828h1.566l.936-3.096h1.656l-.936 3.096h1.962l-.252.828h-1.962zm9.748 2.448c.204-.612.351-1.098.441-1.458.09-.36.135-.678.135-.954 0-.276-.045-.471-.135-.585-.09-.114-.243-.171-.459-.171-.372 0-.738.144-1.098.432-.36.288-.723.738-1.089 1.35-.366.612-.747 1.392-1.143 2.34a51.828 51.828 0 0 0-1.26 3.402l-.414 1.242h-1.512l3.564-12.204c.084-.3.15-.564.198-.792.048-.228.072-.408.072-.54 0-.24-.114-.408-.342-.504-.228-.096-.648-.156-1.26-.18l.126-.72h3.672l-2.052 6.948.054.036c.384-.564.828-.999 1.332-1.305a3.007 3.007 0 0 1 1.584-.459c.576 0 1.014.168 1.314.504.3.336.45.822.45 1.458 0 .396-.06.858-.18 1.386-.12.528-.306 1.134-.558 1.818-.24.648-.426 1.158-.558 1.53-.132.372-.228.657-.288.855-.06.198-.099.333-.117.405a.769.769 0 0 0-.027.18c0 .276.114.414.342.414.24 0 .537-.141.891-.423.354-.282.711-.675 1.071-1.179l.504.378a5.612 5.612 0 0 1-1.629 1.809c-.33.234-.666.42-1.008.558a2.581 2.581 0 0 1-.963.207c-.324 0-.558-.09-.702-.27-.144-.18-.216-.468-.216-.864 0-.204.018-.42.054-.648.036-.228.099-.513.189-.855.09-.342.216-.762.378-1.26s.375-1.125.639-1.881zM580.252 531.274c-.12.42-.213.792-.279 1.116a4.015 4.015 0 0 0-.099.72c0 .72.684 1.08 2.052 1.08l-.198.81h-5.976l.198-.72c.576 0 1.044-.171 1.404-.513.36-.342.642-.885.846-1.629l2.124-7.938c.156-.576.234-1.026.234-1.35 0-.18-.03-.33-.09-.45a.698.698 0 0 0-.306-.297 1.776 1.776 0 0 0-.576-.171c-.24-.036-.54-.06-.9-.072l.198-.72h5.004c1.548 0 2.754.273 3.618.819.864.546 1.296 1.305 1.296 2.277 0 .624-.162 1.2-.486 1.728-.324.528-.774.984-1.35 1.368-.576.384-1.263.684-2.061.9a9.93 9.93 0 0 1-2.601.324h-1.296l-.756 2.718zm.99-3.636h.882c.684 0 1.311-.087 1.881-.261a4.715 4.715 0 0 0 1.476-.729c.414-.312.738-.681.972-1.107.234-.426.351-.897.351-1.413 0-1.452-.96-2.178-2.88-2.178-.24 0-.441.021-.603.063a.93.93 0 0 0-.414.225 1.383 1.383 0 0 0-.297.441 4.285 4.285 0 0 0-.234.711l-1.134 4.248zm8.2.324c.132-.3.333-.609.603-.927a6.66 6.66 0 0 1 .882-.864c.318-.258.639-.471.963-.639.324-.168.606-.252.846-.252.288 0 .498.108.63.324.132.216.198.564.198 1.044a5.608 5.608 0 0 1-.126 1.188l.054.054c.144-.348.348-.69.612-1.026.264-.336.549-.633.855-.891.306-.258.618-.468.936-.63.318-.162.615-.243.891-.243.348 0 .639.111.873.333.234.222.351.495.351.819 0 .312-.099.57-.297.774a1.02 1.02 0 0 1-.765.306.852.852 0 0 1-.459-.108 2.022 2.022 0 0 1-.297-.225 8.79 8.79 0 0 1-.234-.225.366.366 0 0 0-.27-.108c-.228 0-.492.153-.792.459-.3.306-.612.723-.936 1.251a16.442 16.442 0 0 0-.963 1.854c-.318.708-.609 1.47-.873 2.286l-.81 2.484h-1.674l1.17-3.726.567-1.791c.15-.474.267-.87.351-1.188a8.78 8.78 0 0 0 .171-.747c.03-.18.045-.336.045-.468 0-.264-.09-.396-.27-.396-.12 0-.267.048-.441.144a3.07 3.07 0 0 0-.513.36 4.067 4.067 0 0 0-.477.486c-.15.18-.261.354-.333.522l-.468-.234zm12.16 7.218a2.65 2.65 0 0 1-2.07-.954 3.547 3.547 0 0 1-.63-1.143 4.626 4.626 0 0 1-.234-1.521c0-.78.147-1.548.441-2.304a7.407 7.407 0 0 1 1.161-2.016 6.054 6.054 0 0 1 1.647-1.422c.618-.36 1.257-.54 1.917-.54.432 0 .831.081 1.197.243.366.162.678.396.936.702.258.306.462.672.612 1.098.15.426.225.897.225 1.413 0 .756-.15 1.518-.45 2.286a7.964 7.964 0 0 1-1.179 2.07 6.566 6.566 0 0 1-1.665 1.503c-.624.39-1.26.585-1.908.585zm.108-.9c.408 0 .813-.21 1.215-.63.402-.42.762-.951 1.08-1.593.318-.642.576-1.341.774-2.097a8.529 8.529 0 0 0 .297-2.16c0-.636-.111-1.074-.333-1.314-.222-.24-.525-.36-.909-.36-.264 0-.531.093-.801.279-.27.186-.525.441-.765.765s-.465.696-.675 1.116a10.154 10.154 0 0 0-.909 2.763 8.196 8.196 0 0 0-.126 1.395c0 .672.108 1.146.324 1.422.216.276.492.414.828.414zm15.364-11.736c.096-.324.168-.594.216-.81.048-.216.072-.372.072-.468 0-.18-.12-.306-.36-.378-.24-.072-.672-.108-1.296-.108l.198-.72h3.474l-1.998 7.29c-.252.936-.462 1.734-.63 2.394-.168.66-.303 1.215-.405 1.665-.102.45-.171.819-.207 1.107a5.993 5.993 0 0 0-.054.72c0 .276.042.468.126.576a.393.393 0 0 0 .324.162c.264 0 .549-.222.855-.666.306-.444.579-1.026.819-1.746l.684.162c-.408 1.188-.855 2.061-1.341 2.619-.486.558-1.035.837-1.647.837-.432 0-.765-.138-.999-.414-.234-.276-.351-.672-.351-1.188 0-.132.012-.27.036-.414.024-.144.054-.282.09-.414l-.144-.036c-.456.792-1.008 1.401-1.656 1.827-.648.426-1.266.639-1.854.639-.312 0-.6-.069-.864-.207a2.09 2.09 0 0 1-.684-.576 2.92 2.92 0 0 1-.459-.882 3.6 3.6 0 0 1-.171-1.143c0-.516.081-1.053.243-1.611a8.226 8.226 0 0 1 .666-1.62c.282-.522.609-1.017.981-1.485a8.904 8.904 0 0 1 1.179-1.233c.414-.354.84-.633 1.278-.837a3.035 3.035 0 0 1 1.287-.306c.408 0 .717.078.927.234.21.156.417.402.621.738l1.044-3.708zm-2.466 3.69c-.312 0-.627.099-.945.297a4.435 4.435 0 0 0-.927.792c-.3.33-.579.711-.837 1.143-.258.432-.483.882-.675 1.35a9.566 9.566 0 0 0-.459 1.422c-.114.48-.171.93-.171 1.35 0 .432.108.777.324 1.035.216.258.504.387.864.387.276 0 .558-.111.846-.333.288-.222.57-.513.846-.873s.537-.771.783-1.233c.246-.462.462-.936.648-1.422.186-.486.333-.966.441-1.44.108-.474.162-.903.162-1.287 0-.372-.072-.663-.216-.873-.144-.21-.372-.315-.684-.315zm8.848 7.65c.192 0 .444-.135.756-.405s.642-.63.99-1.08c.348-.45.687-.963 1.017-1.539.33-.576.609-1.176.837-1.8l1.332-3.6h1.674l-1.332 4.122c-.192.6-.354 1.113-.486 1.539-.132.426-.24.786-.324 1.08a8.891 8.891 0 0 0-.18.72 2.464 2.464 0 0 0-.054.441c0 .312.108.468.324.468.12 0 .264-.057.432-.171a2.77 2.77 0 0 0 .513-.468c.174-.198.342-.42.504-.666.162-.246.303-.507.423-.783l.54.27c-.156.396-.36.783-.612 1.161a6.975 6.975 0 0 1-.819 1.017c-.294.3-.603.54-.927.72-.324.18-.642.27-.954.27-.372 0-.624-.132-.756-.396s-.198-.642-.198-1.134c0-.204.009-.423.027-.657.018-.234.051-.465.099-.693l-.054-.054a9.88 9.88 0 0 1-.945 1.422 6.028 6.028 0 0 1-.891.9c-.288.228-.57.387-.846.477-.276.09-.546.135-.81.135-.564 0-.957-.156-1.179-.468-.222-.312-.333-.696-.333-1.152 0-.504.096-1.059.288-1.665.192-.606.396-1.179.612-1.719l.549-1.368c.15-.372.27-.684.36-.936.09-.252.156-.456.198-.612.042-.156.063-.282.063-.378a.34.34 0 0 0-.027-.135c-.018-.042-.063-.063-.135-.063-.156 0-.381.138-.675.414-.294.276-.693.72-1.197 1.332l-.468-.252c.18-.348.408-.696.684-1.044.276-.348.57-.66.882-.936.312-.276.636-.498.972-.666.336-.168.648-.252.936-.252.6 0 .9.348.9 1.044 0 .42-.117.963-.351 1.629a58.164 58.164 0 0 1-.909 2.385c-.24.588-.438 1.116-.594 1.584-.156.468-.234.894-.234 1.278 0 .252.036.429.108.531.072.102.162.153.27.153zm15.346-1.782c-.504.996-1.089 1.758-1.755 2.286-.666.528-1.377.792-2.133.792-.78 0-1.404-.267-1.872-.801-.468-.534-.702-1.245-.702-2.133 0-.528.078-1.068.234-1.62a8.86 8.86 0 0 1 1.566-3.06c.36-.456.744-.852 1.152-1.188a5.678 5.678 0 0 1 1.269-.801 3.11 3.11 0 0 1 1.287-.297c.576 0 1.05.156 1.422.468.372.312.558.702.558 1.17 0 .3-.087.543-.261.729a.882.882 0 0 1-.675.279.913.913 0 0 1-.675-.261.869.869 0 0 1-.261-.639c0-.156.024-.282.072-.378a.607.607 0 0 0 .072-.27c0-.168-.144-.252-.432-.252-.396 0-.798.186-1.206.558-.408.372-.777.852-1.107 1.44-.33.588-.6 1.245-.81 1.971a7.775 7.775 0 0 0-.315 2.169c0 .576.111 1.029.333 1.359.222.33.531.495.927.495.216 0 .441-.06.675-.18.234-.12.471-.285.711-.495.24-.21.471-.459.693-.747.222-.288.423-.606.603-.954l.63.36zm6.454-5.148l-1.494 4.95c-.204.648-.312 1.14-.324 1.476a.52.52 0 0 0 .081.288c.054.084.147.126.279.126.216 0 .444-.081.684-.243.24-.162.471-.354.693-.576.222-.222.42-.45.594-.684.174-.234.303-.417.387-.549l.522.306a6.23 6.23 0 0 1-.774 1.179 7.429 7.429 0 0 1-.99.999 5.388 5.388 0 0 1-1.053.693c-.354.174-.675.261-.963.261-.42 0-.723-.09-.909-.27-.186-.18-.279-.48-.279-.9 0-.24.042-.564.126-.972.084-.408.228-.966.432-1.674l1.332-4.41h-1.548l.234-.828h1.566l.936-3.096h1.656l-.936 3.096h1.962l-.252.828h-1.962zm11.972-5.814h4.878c.828 0 1.632.099 2.412.297.78.198 1.488.561 2.124 1.089a5.002 5.002 0 0 1 1.494 2.007c.312.774.468 1.581.468 2.421 0 .54-.063 1.083-.189 1.629a9.07 9.07 0 0 1-.522 1.584 8.8 8.8 0 0 1-.792 1.44c-.306.45-.639.855-.999 1.215-.84.828-1.77 1.398-2.79 1.71-1.02.312-2.112.468-3.276.468h-6.3l.198-.72c.384 0 .705-.024.963-.072.258-.048.474-.147.648-.297.174-.15.324-.363.45-.639s.249-.648.369-1.116l2.07-7.956c.024-.084.057-.192.099-.324l.135-.432c.048-.156.087-.306.117-.45.03-.144.045-.27.045-.378 0-.18-.051-.318-.153-.414a1.074 1.074 0 0 0-.378-.225 1.792 1.792 0 0 0-.486-.099 6.98 6.98 0 0 0-.477-.018h-.342l.234-.72zm1.296 9.702c-.096.36-.174.657-.234.891-.06.234-.105.426-.135.576-.03.15-.051.267-.063.351a1.562 1.562 0 0 0-.018.216c0 .324.069.573.207.747.138.174.303.306.495.396.192.09.39.144.594.162.204.018.372.027.504.027.78 0 1.488-.108 2.124-.324a5.83 5.83 0 0 0 1.692-.891 6.224 6.224 0 0 0 1.269-1.305 8.227 8.227 0 0 0 1.395-3.249c.108-.57.162-1.125.162-1.665 0-1.512-.405-2.679-1.215-3.501-.81-.822-1.923-1.233-3.339-1.233-.348 0-.627.051-.837.153-.21.102-.369.357-.477.765l-2.124 7.884zm18.37 1.764c-1.044 1.716-2.328 2.574-3.852 2.574-.828 0-1.464-.255-1.908-.765-.444-.51-.666-1.233-.666-2.169 0-.828.171-1.656.513-2.484a8.68 8.68 0 0 1 1.341-2.241 7.353 7.353 0 0 1 1.854-1.62c.684-.414 1.368-.621 2.052-.621.576 0 1.047.147 1.413.441.366.294.549.669.549 1.125 0 .42-.156.852-.468 1.296-.312.444-.735.864-1.269 1.26-.534.396-1.158.756-1.872 1.08-.714.324-1.473.576-2.277.756a7.329 7.329 0 0 0-.072.99c0 1.308.462 1.962 1.386 1.962.444 0 .903-.174 1.377-.522.474-.348.915-.828 1.323-1.44l.576.378zm-1.026-6.48c-.312 0-.636.12-.972.36-.336.24-.657.561-.963.963a8.227 8.227 0 0 0-.837 1.377 9.58 9.58 0 0 0-.612 1.602 8.212 8.212 0 0 0 1.602-.612 5.936 5.936 0 0 0 1.269-.855c.354-.318.633-.654.837-1.008.204-.354.306-.711.306-1.071 0-.504-.21-.756-.63-.756zm11.854 2.448c0-.24-.021-.459-.063-.657a7.103 7.103 0 0 0-.144-.567c-.054-.18-.102-.354-.144-.522a2.144 2.144 0 0 1-.063-.522c0-.684.312-1.026.936-1.026.372 0 .639.132.801.396.162.264.243.702.243 1.314a8.32 8.32 0 0 1-.234 1.935 10.505 10.505 0 0 1-1.62 3.591c-.372.528-.768.99-1.188 1.386-.42.396-.855.708-1.305.936-.45.228-.897.342-1.341.342-.324 0-.627-.063-.909-.189a2.136 2.136 0 0 1-.729-.531 2.472 2.472 0 0 1-.477-.81 2.915 2.915 0 0 1-.171-1.008c0-.684.186-1.488.558-2.412.372-.924.9-1.878 1.584-2.862l-.036-.054c-.324 0-.594-.048-.81-.144a2.502 2.502 0 0 1-.549-.324 20.59 20.59 0 0 1-.396-.324.542.542 0 0 0-.351-.144c-.204 0-.306.102-.306.306 0 .108.033.204.099.288.066.084.138.168.216.252.078.084.15.177.216.279a.665.665 0 0 1 .099.369.656.656 0 0 1-.252.531c-.168.138-.384.207-.648.207-.312 0-.552-.096-.72-.288-.168-.192-.252-.462-.252-.81 0-.3.06-.585.18-.855a2.34 2.34 0 0 1 1.197-1.197c.27-.12.555-.18.855-.18.24 0 .444.039.612.117.168.078.324.168.468.27.144.102.285.192.423.27a.99.99 0 0 0 .495.117c.228 0 .432-.09.612-.27.252-.228.423-.369.513-.423a.675.675 0 0 1 .351-.081c.24 0 .36.102.36.306 0 .048-.006.09-.018.126a.985.985 0 0 1-.081.162 2.2 2.2 0 0 1-.216.288l-.423.504a7.167 7.167 0 0 0-.756 1.134 9.986 9.986 0 0 0-.99 2.691 6.428 6.428 0 0 0-.144 1.305c0 .648.111 1.167.333 1.557.222.39.507.585.855.585.336 0 .696-.18 1.08-.54.384-.36.744-.807 1.08-1.341a8.767 8.767 0 0 0 .837-1.737c.222-.624.333-1.206.333-1.746zm9.784 4.032c-1.044 1.716-2.328 2.574-3.852 2.574-.828 0-1.464-.255-1.908-.765-.444-.51-.666-1.233-.666-2.169 0-.828.171-1.656.513-2.484a8.68 8.68 0 0 1 1.341-2.241 7.353 7.353 0 0 1 1.854-1.62c.684-.414 1.368-.621 2.052-.621.576 0 1.047.147 1.413.441.366.294.549.669.549 1.125 0 .42-.156.852-.468 1.296-.312.444-.735.864-1.269 1.26-.534.396-1.158.756-1.872 1.08-.714.324-1.473.576-2.277.756a7.329 7.329 0 0 0-.072.99c0 1.308.462 1.962 1.386 1.962.444 0 .903-.174 1.377-.522.474-.348.915-.828 1.323-1.44l.576.378zm-1.026-6.48c-.312 0-.636.12-.972.36-.336.24-.657.561-.963.963a8.227 8.227 0 0 0-.837 1.377 9.58 9.58 0 0 0-.612 1.602 8.212 8.212 0 0 0 1.602-.612 5.936 5.936 0 0 0 1.269-.855c.354-.318.633-.654.837-1.008.204-.354.306-.711.306-1.071 0-.504-.21-.756-.63-.756zm6.85-3.564l.18-.657c.06-.222.09-.387.09-.495 0-.42-.456-.63-1.368-.63l.144-.54 3.294-.162-3.222 11.826a9.402 9.402 0 0 0-.216.855 3.34 3.34 0 0 0-.072.621c0 .108.03.204.09.288.06.084.156.126.288.126.192 0 .396-.081.612-.243a4.26 4.26 0 0 0 .621-.576c.198-.222.375-.45.531-.684.156-.234.27-.417.342-.549l.54.306c-.18.408-.414.801-.702 1.179a7.033 7.033 0 0 1-.918.999 4.99 4.99 0 0 1-.981.693c-.33.174-.633.261-.909.261-.42 0-.729-.09-.927-.27-.198-.18-.297-.48-.297-.9 0-.24.036-.564.108-.972.072-.408.198-.966.378-1.674l2.394-8.802zm6.706 12.618a2.65 2.65 0 0 1-2.07-.954 3.547 3.547 0 0 1-.63-1.143 4.626 4.626 0 0 1-.234-1.521c0-.78.147-1.548.441-2.304a7.407 7.407 0 0 1 1.161-2.016 6.054 6.054 0 0 1 1.647-1.422c.618-.36 1.257-.54 1.917-.54.432 0 .831.081 1.197.243.366.162.678.396.936.702.258.306.462.672.612 1.098.15.426.225.897.225 1.413 0 .756-.15 1.518-.45 2.286a7.964 7.964 0 0 1-1.179 2.07 6.566 6.566 0 0 1-1.665 1.503c-.624.39-1.26.585-1.908.585zm.108-.9c.408 0 .813-.21 1.215-.63.402-.42.762-.951 1.08-1.593.318-.642.576-1.341.774-2.097a8.529 8.529 0 0 0 .297-2.16c0-.636-.111-1.074-.333-1.314-.222-.24-.525-.36-.909-.36-.264 0-.531.093-.801.279-.27.186-.525.441-.765.765s-.465.696-.675 1.116a10.153 10.153 0 0 0-.909 2.763 8.196 8.196 0 0 0-.126 1.395c0 .672.108 1.146.324 1.422.216.276.492.414.828.414zm7.21-6.03a9.206 9.206 0 0 1 1.494-1.359 8.377 8.377 0 0 1 1.746-.981l.846-2.88h1.368l-.63 2.394c.192-.036.381-.066.567-.09.186-.024.375-.036.567-.036 1.02 0 1.812.276 2.376.828.564.552.846 1.326.846 2.322 0 .792-.189 1.539-.567 2.241a6.739 6.739 0 0 1-1.512 1.881 8.564 8.564 0 0 1-2.178 1.377 9.355 9.355 0 0 1-2.565.729l-.666 2.502c-.06.18-.099.33-.117.45-.018.12-.027.228-.027.324 0 .3.123.51.369.63s.681.186 1.305.198l-.108.72h-5.094l.108-.72c.504 0 .87-.06 1.098-.18.228-.12.39-.336.486-.648l3.258-11.124c-.456.24-.894.525-1.314.855-.42.33-.81.687-1.17 1.071l-.486-.504zm5.49-2.07a3.85 3.85 0 0 0-.459.027c-.15.018-.297.039-.441.063l-2.034 7.632c.6-.12 1.185-.342 1.755-.666a6.301 6.301 0 0 0 1.521-1.206 6.036 6.036 0 0 0 1.071-1.611c.27-.594.405-1.215.405-1.863 0-.72-.165-1.296-.495-1.728-.33-.432-.771-.648-1.323-.648zm17.308 2.826c.156-.444.279-.798.369-1.062.09-.264.159-.471.207-.621a1.662 1.662 0 0 0 .108-.585c0-.348-.12-.522-.36-.522-.324 0-.708.219-1.152.657-.444.438-.924 1.071-1.44 1.899-.18.288-.348.579-.504.873-.156.294-.324.66-.504 1.098-.18.438-.39.993-.63 1.665a660.3 660.3 0 0 0-.918 2.592h-1.692l1.188-3.618c.252-.768.462-1.413.63-1.935.168-.522.3-.957.396-1.305.096-.348.165-.624.207-.828.042-.204.063-.372.063-.504 0-.396-.15-.594-.45-.594-.24 0-.528.138-.864.414a6.903 6.903 0 0 0-1.026 1.08c-.348.444-.681.945-.999 1.503a11.807 11.807 0 0 0-.801 1.701L730.468 535h-1.584l1.332-4.122c.228-.696.414-1.281.558-1.755.144-.474.258-.864.342-1.17.084-.306.144-.549.18-.729.036-.18.054-.33.054-.45 0-.336-.102-.504-.306-.504-.132 0-.285.078-.459.234a3.362 3.362 0 0 0-.531.639 8.978 8.978 0 0 0-.99 2.025l-.54-.27c.42-1.236.891-2.148 1.413-2.736.522-.588 1.119-.882 1.791-.882.384 0 .657.108.819.324.162.216.243.576.243 1.08 0 .576-.102 1.128-.306 1.656l.054.054c1.116-2.076 2.298-3.114 3.546-3.114.468 0 .834.141 1.098.423.264.282.396.675.396 1.179 0 .168-.021.36-.063.576a12.46 12.46 0 0 1-.243.954l.036.054c.336-.576.657-1.065.963-1.467.306-.402.603-.729.891-.981a3.14 3.14 0 0 1 .873-.558c.294-.12.597-.18.909-.18.468 0 .819.126 1.053.378.234.252.351.648.351 1.188 0 .168-.018.351-.054.549-.036.198-.09.432-.162.702-.072.27-.165.582-.279.936l-.405 1.251c-.204.612-.366 1.101-.486 1.467-.12.366-.21.657-.27.873-.06.216-.099.378-.117.486a1.968 1.968 0 0 0-.027.324c0 .228.06.342.18.342.18 0 .45-.171.81-.513.36-.342.828-.873 1.404-1.593l.468.252a6.806 6.806 0 0 1-.783 1.179c-.318.39-.651.738-.999 1.044a6.113 6.113 0 0 1-1.035.747c-.342.192-.639.288-.891.288a.815.815 0 0 1-.711-.387c-.174-.258-.261-.603-.261-1.035 0-.144.015-.306.045-.486s.096-.438.198-.774c.102-.336.246-.78.432-1.332s.435-1.272.747-2.16zm11.404 3.6c-1.044 1.716-2.328 2.574-3.852 2.574-.828 0-1.464-.255-1.908-.765-.444-.51-.666-1.233-.666-2.169 0-.828.171-1.656.513-2.484a8.68 8.68 0 0 1 1.341-2.241 7.353 7.353 0 0 1 1.854-1.62c.684-.414 1.368-.621 2.052-.621.576 0 1.047.147 1.413.441.366.294.549.669.549 1.125 0 .42-.156.852-.468 1.296-.312.444-.735.864-1.269 1.26-.534.396-1.158.756-1.872 1.08-.714.324-1.473.576-2.277.756a7.329 7.329 0 0 0-.072.99c0 1.308.462 1.962 1.386 1.962.444 0 .903-.174 1.377-.522.474-.348.915-.828 1.323-1.44l.576.378zm-1.026-6.48c-.312 0-.636.12-.972.36-.336.24-.657.561-.963.963a8.227 8.227 0 0 0-.837 1.377 9.58 9.58 0 0 0-.612 1.602 8.212 8.212 0 0 0 1.602-.612 5.936 5.936 0 0 0 1.269-.855c.354-.318.633-.654.837-1.008.204-.354.306-.711.306-1.071 0-.504-.21-.756-.63-.756zm11.206.09c-.288 0-.615.147-.981.441a7.028 7.028 0 0 0-1.116 1.17 13.11 13.11 0 0 0-1.089 1.665c-.348.624-.642 1.26-.882 1.908l-1.332 3.6h-1.584l1.332-4.122c.216-.66.396-1.224.54-1.692.144-.468.261-.861.351-1.179.09-.318.153-.576.189-.774.036-.198.054-.357.054-.477 0-.324-.102-.486-.306-.486-.132 0-.288.084-.468.252a4.01 4.01 0 0 0-.549.657c-.186.27-.363.579-.531.927a8.954 8.954 0 0 0-.432 1.062l-.54-.27c.42-1.236.891-2.148 1.413-2.736.522-.588 1.119-.882 1.791-.882.384 0 .657.108.819.324.162.216.243.582.243 1.098 0 .612-.102 1.158-.306 1.638l.054.054c.612-1.08 1.233-1.869 1.863-2.367.63-.498 1.317-.747 2.061-.747.528 0 .93.126 1.206.378.276.252.414.612.414 1.08 0 .156-.015.33-.045.522s-.081.423-.153.693c-.072.27-.171.591-.297.963-.126.372-.279.828-.459 1.368-.276.816-.504 1.5-.684 2.052-.18.552-.27.942-.27 1.17 0 .18.06.27.18.27.168 0 .414-.138.738-.414.324-.276.762-.72 1.314-1.332l.468.252c-.192.36-.441.711-.747 1.053a9.217 9.217 0 0 1-.954.927c-.33.276-.657.498-.981.666-.324.168-.606.252-.846.252-.3 0-.537-.132-.711-.396-.174-.264-.261-.612-.261-1.044 0-.168.015-.339.045-.513s.093-.423.189-.747.237-.759.423-1.305c.186-.546.441-1.269.765-2.169.108-.312.198-.576.27-.792.072-.216.129-.405.171-.567.042-.162.072-.303.09-.423.018-.12.027-.234.027-.342 0-.444-.162-.666-.486-.666zm8.866.738l-1.494 4.95c-.204.648-.312 1.14-.324 1.476a.52.52 0 0 0 .081.288c.054.084.147.126.279.126.216 0 .444-.081.684-.243.24-.162.471-.354.693-.576.222-.222.42-.45.594-.684.174-.234.303-.417.387-.549l.522.306a6.23 6.23 0 0 1-.774 1.179 7.429 7.429 0 0 1-.99.999 5.388 5.388 0 0 1-1.053.693c-.354.174-.675.261-.963.261-.42 0-.723-.09-.909-.27-.186-.18-.279-.48-.279-.9 0-.24.042-.564.126-.972.084-.408.228-.966.432-1.674l1.332-4.41h-1.548l.234-.828h1.566l.936-3.096h1.656l-.936 3.096h1.962l-.252.828h-1.962zM476.269 356.14h4.878c.828 0 1.632.099 2.412.297.78.198 1.488.561 2.124 1.089a5.002 5.002 0 0 1 1.494 2.007c.312.774.468 1.581.468 2.421 0 .54-.063 1.083-.189 1.629a9.07 9.07 0 0 1-.522 1.584 8.8 8.8 0 0 1-.792 1.44c-.306.45-.639.855-.999 1.215-.84.828-1.77 1.398-2.79 1.71-1.02.312-2.112.468-3.276.468h-6.3l.198-.72c.384 0 .705-.024.963-.072.258-.048.474-.147.648-.297.174-.15.324-.363.45-.639s.249-.648.369-1.116l2.07-7.956c.024-.084.057-.192.099-.324l.135-.432c.048-.156.087-.306.117-.45.03-.144.045-.27.045-.378 0-.18-.051-.318-.153-.414a1.074 1.074 0 0 0-.378-.225 1.792 1.792 0 0 0-.486-.099 6.98 6.98 0 0 0-.477-.018h-.342l.234-.72zm1.296 9.702c-.096.36-.174.657-.234.891-.06.234-.105.426-.135.576-.03.15-.051.267-.063.351a1.562 1.562 0 0 0-.018.216c0 .324.069.573.207.747.138.174.303.306.495.396.192.09.39.144.594.162.204.018.372.027.504.027.78 0 1.488-.108 2.124-.324a5.83 5.83 0 0 0 1.692-.891 6.224 6.224 0 0 0 1.269-1.305 8.227 8.227 0 0 0 1.395-3.249c.108-.57.162-1.125.162-1.665 0-1.512-.405-2.679-1.215-3.501-.81-.822-1.923-1.233-3.339-1.233-.348 0-.627.051-.837.153-.21.102-.369.357-.477.765l-2.124 7.884zm18.37 1.764c-1.044 1.716-2.328 2.574-3.852 2.574-.828 0-1.464-.255-1.908-.765-.444-.51-.666-1.233-.666-2.169 0-.828.171-1.656.513-2.484a8.68 8.68 0 0 1 1.341-2.241 7.353 7.353 0 0 1 1.854-1.62c.684-.414 1.368-.621 2.052-.621.576 0 1.047.147 1.413.441.366.294.549.669.549 1.125 0 .42-.156.852-.468 1.296-.312.444-.735.864-1.269 1.26-.534.396-1.158.756-1.872 1.08-.714.324-1.473.576-2.277.756a7.33 7.33 0 0 0-.072.99c0 1.308.462 1.962 1.386 1.962.444 0 .903-.174 1.377-.522.474-.348.915-.828 1.323-1.44l.576.378zm-1.026-6.48c-.312 0-.636.12-.972.36-.336.24-.657.561-.963.963a8.227 8.227 0 0 0-.837 1.377 9.58 9.58 0 0 0-.612 1.602 8.212 8.212 0 0 0 1.602-.612 5.936 5.936 0 0 0 1.269-.855c.354-.318.633-.654.837-1.008.204-.354.306-.711.306-1.071 0-.504-.21-.756-.63-.756zm4.942 1.908a2.663 2.663 0 0 1 .846-1.971c.264-.246.579-.438.945-.576a3.366 3.366 0 0 1 1.197-.207c.576 0 1.056.144 1.44.432.384.288.576.66.576 1.116 0 .252-.069.45-.207.594-.138.144-.327.216-.567.216-.276 0-.474-.081-.594-.243a2.625 2.625 0 0 1-.306-.54 5.198 5.198 0 0 0-.27-.549c-.096-.168-.258-.252-.486-.252-.264 0-.486.114-.666.342-.18.228-.27.51-.27.846 0 .396.117.765.351 1.107.234.342.495.699.783 1.071.288.372.549.78.783 1.224.234.444.351.966.351 1.566 0 .408-.087.792-.261 1.152-.174.36-.408.675-.702.945-.294.27-.633.483-1.017.639-.384.156-.78.234-1.188.234-.72 0-1.293-.156-1.719-.468-.426-.312-.639-.72-.639-1.224 0-.348.081-.621.243-.819a.804.804 0 0 1 .657-.297c.516 0 .81.354.882 1.062.036.384.099.639.189.765s.273.189.549.189c.432 0 .774-.129 1.026-.387s.378-.615.378-1.071c0-.48-.12-.906-.36-1.278s-.504-.735-.792-1.089a9.96 9.96 0 0 1-.792-1.125c-.24-.396-.36-.864-.36-1.404zm8.83 1.026c.168-.468.288-.846.36-1.134a3 3 0 0 0 .108-.684c0-.168-.027-.279-.081-.333a.24.24 0 0 0-.171-.081c-.132 0-.276.063-.432.189a5.1 5.1 0 0 0-.882.945c-.12.168-.204.3-.252.396l-.522-.324c.144-.264.345-.558.603-.882a6.5 6.5 0 0 1 .873-.9c.324-.276.66-.507 1.008-.693.348-.186.678-.279.99-.279.3 0 .525.087.675.261.15.174.225.489.225.945 0 .348-.105.816-.315 1.404-.21.588-.483 1.344-.819 2.268l-.666 1.818a5.55 5.55 0 0 0-.099.279c-.042.126-.084.258-.126.396a5.828 5.828 0 0 0-.108.405c-.03.132-.045.24-.045.324 0 .108.03.204.09.288.06.084.156.126.288.126.18 0 .366-.075.558-.225.192-.15.378-.327.558-.531.18-.204.342-.411.486-.621.144-.21.252-.375.324-.495l.54.306a7.483 7.483 0 0 1-.585.954 6.382 6.382 0 0 1-.837.963c-.312.294-.654.54-1.026.738a2.422 2.422 0 0 1-1.152.297c-.348 0-.609-.09-.783-.27-.174-.18-.261-.48-.261-.9 0-.348.057-.723.171-1.125.114-.402.279-.909.495-1.521l.81-2.304zm2.646-6.732c-.3 0-.561-.102-.783-.306a1.026 1.026 0 0 1-.333-.792c0-.324.108-.6.324-.828a1.05 1.05 0 0 1 .792-.342c.336 0 .612.114.828.342.216.228.324.498.324.81 0 .312-.114.576-.342.792a1.138 1.138 0 0 1-.81.324zm10.018 13.986c0 .516-.111.981-.333 1.395-.222.414-.54.768-.954 1.062-.414.294-.915.519-1.503.675a7.727 7.727 0 0 1-1.98.234c-.66 0-1.26-.06-1.8-.18a4.827 4.827 0 0 1-1.395-.522c-.39-.228-.69-.495-.9-.801a1.787 1.787 0 0 1-.315-1.035c0-.492.159-.9.477-1.224.318-.324.723-.486 1.215-.486.144 0 .282.018.414.054.132.036.3.102.504.198-.672.276-1.008.798-1.008 1.566 0 .504.255.9.765 1.188.51.288 1.209.432 2.097.432.48 0 .924-.054 1.332-.162a4.38 4.38 0 0 0 1.053-.414 2.27 2.27 0 0 0 .684-.567c.162-.21.243-.417.243-.621 0-.336-.201-.639-.603-.909-.402-.27-.969-.471-1.701-.603-1.308-.228-2.268-.492-2.88-.792-.612-.3-.918-.72-.918-1.26 0-.348.153-.642.459-.882.306-.24.855-.48 1.647-.72l.036-.072c-.912-.648-1.368-1.482-1.368-2.502 0-.552.114-1.077.342-1.575a4.314 4.314 0 0 1 3.942-2.529c.888 0 1.632.324 2.232.972.564-.636 1.11-.954 1.638-.954.384 0 .72.117 1.008.351.288.234.432.507.432.819 0 .24-.081.441-.243.603a.819.819 0 0 1-.603.243c-.18 0-.321-.039-.423-.117a1.344 1.344 0 0 1-.261-.261 1.671 1.671 0 0 0-.243-.261.544.544 0 0 0-.369-.117.602.602 0 0 0-.234.045c-.072.03-.204.111-.396.243.06.168.102.327.126.477.024.15.036.339.036.567 0 1.32-.366 2.373-1.098 3.159-.732.786-1.74 1.227-3.024 1.323-.576.048-.987.12-1.233.216-.246.096-.369.24-.369.432 0 .252.135.441.405.567.27.126.609.231 1.017.315.408.084.846.168 1.314.252.468.084.906.207 1.314.369a2.83 2.83 0 0 1 1.017.666c.27.282.405.663.405 1.143zm-3.78-4.752c.288 0 .57-.114.846-.342.276-.228.525-.531.747-.909a5.31 5.31 0 0 0 .531-1.287c.132-.48.198-.972.198-1.476 0-.48-.108-.861-.324-1.143a1.016 1.016 0 0 0-.846-.423c-.276 0-.558.123-.846.369a3.89 3.89 0 0 0-.783.945 5.496 5.496 0 0 0-.567 1.305 5.022 5.022 0 0 0-.216 1.431c0 .456.114.825.342 1.107.228.282.534.423.918.423zm14.5-5.346c-.288 0-.615.147-.981.441a7.028 7.028 0 0 0-1.116 1.17 13.11 13.11 0 0 0-1.089 1.665c-.348.624-.642 1.26-.882 1.908l-1.332 3.6h-1.584l1.332-4.122c.216-.66.396-1.224.54-1.692.144-.468.261-.861.351-1.179.09-.318.153-.576.189-.774.036-.198.054-.357.054-.477 0-.324-.102-.486-.306-.486-.132 0-.288.084-.468.252a4.01 4.01 0 0 0-.549.657c-.186.27-.363.579-.531.927a8.954 8.954 0 0 0-.432 1.062l-.54-.27c.42-1.236.891-2.148 1.413-2.736.522-.588 1.119-.882 1.791-.882.384 0 .657.108.819.324.162.216.243.582.243 1.098 0 .612-.102 1.158-.306 1.638l.054.054c.612-1.08 1.233-1.869 1.863-2.367.63-.498 1.317-.747 2.061-.747.528 0 .93.126 1.206.378.276.252.414.612.414 1.08 0 .156-.015.33-.045.522s-.081.423-.153.693c-.072.27-.171.591-.297.963-.126.372-.279.828-.459 1.368-.276.816-.504 1.5-.684 2.052-.18.552-.27.942-.27 1.17 0 .18.06.27.18.27.168 0 .414-.138.738-.414.324-.276.762-.72 1.314-1.332l.468.252c-.192.36-.441.711-.747 1.053a9.217 9.217 0 0 1-.954.927c-.33.276-.657.498-.981.666-.324.168-.606.252-.846.252-.3 0-.537-.132-.711-.396-.174-.264-.261-.612-.261-1.044 0-.168.015-.339.045-.513s.093-.423.189-.747.237-.759.423-1.305c.186-.546.441-1.269.765-2.169.108-.312.198-.576.27-.792.072-.216.129-.405.171-.567.042-.162.072-.303.09-.423.018-.12.027-.234.027-.342 0-.444-.162-.666-.486-.666z" fill="#25272D"/><text font-family="Avenir-Light, Avenir" font-size="15" font-weight="300" letter-spacing=".268" fill="#000" transform="translate(37 355)"><tspan x="6.874" y="38">We start every project or campaign </tspan> <tspan x="22.651" y="58">with a deep dive in to the core </tspan> <tspan x="25.991" y="78">message behind the brand to </tspan> <tspan x="28.226" y="98">develop an overall campaign </tspan> <tspan x="50.85" y="118">direction and strategy.</tspan></text><text font-family="Avenir-Light, Avenir" font-size="15" font-weight="300" fill="#000" transform="translate(37 355)"><tspan x="350.555" y="38">After the completion of our project </tspan> <tspan x="334.985" y="58">concept, we begin the design phase for </tspan> <tspan x="355.28" y="78">both creative assets as well as the </tspan> <tspan x="362.525" y="98">design of any campaign tactics.</tspan></text><text font-family="Avenir-Light, Avenir" font-size="15" font-weight="300" fill="#000" transform="translate(37 355)"><tspan x="505.397" y="205">Once our design phase is complete, we </tspan> <tspan x="501.257" y="225">begin product development. Depending </tspan> <tspan x="524.013" y="245">on the engagement, this could be </tspan> <tspan x="509.035" y="265">anything from a web application to full </tspan> <tspan x="537.273" y="285">scale digital marketing funnel.</tspan></text><text font-family="Avenir-Light, Avenir" font-size="15" font-weight="300" letter-spacing=".268" fill="#000" transform="translate(37 355)"><tspan x="161.233" y="205">Once weve finished creating our overall </tspan> <tspan x="179.407" y="225">project strategy, we then begin the </tspan> <tspan x="160.118" y="245">creation of various concepts for creative, </tspan> <tspan x="194.831" y="265">tactics, deliverables and more.</tspan></text><text font-family="Avenir-Light, Avenir" font-size="15" font-weight="300" letter-spacing=".161" fill="#000"><tspan x="740.143" y="394">Once weve completed product </tspan> <tspan x="717.313" y="414">development and gone to production, </tspan> <tspan x="719.426" y="434">we then work with our clients towards </tspan> <tspan x="719.675" y="454">continued growth of brand awareness </tspan> <tspan x="804.712" y="474">and visibility.</tspan></text></g></svg>