<svg width="160" height="96" xmlns="http://www.w3.org/2000/svg" xmlns:xlink="http://www.w3.org/1999/xlink"><defs><path d="M11.224 13.339A11.03 11.03 0 0 1 .418.138h21.625a11.001 11.001 0 0 1-2.049 8.867 11.008 11.008 0 0 1-8.77 4.334" id="a"/><path d="M1.199 1.838H.483c.139-.605.33-1.203.575-1.787l.004.029.014.1c.074.544.116 1.097.123 1.658" id="c"/><path d="M22.043 1.138H.418c.02-.1.042-.2.065-.3h21.495c.023.1.045.2.065.3" id="e"/><path d="M14.968 2.753a9.186 9.186 0 1 0-11.152 14.6 9.186 9.186 0 0 0 11.152-14.6" id="g"/><linearGradient x1="36.136%" y1="1.795%" x2="64.456%" y2="100.242%" id="h"><stop stop-color="#FFFFFE" offset="0%"/><stop stop-color="#D3D3CF" offset="100%"/></linearGradient><path d="M14.859 1.896A9.006 9.006 0 1 0 3.925 16.21 9.006 9.006 0 0 0 14.86 1.896" id="j"/><linearGradient x1="36.136%" y1="1.797%" x2="64.455%" y2="100.243%" id="k"><stop stop-color="#FFFFFE" offset="0%"/><stop stop-color="#D3D3CF" offset="100%"/></linearGradient><path d="M11.031 13.326c-2.334 0-4.688-.738-6.686-2.265A11.028 11.028 0 0 1 .223.138h21.63a11 11 0 0 1-2.052 8.855 11.007 11.007 0 0 1-8.77 4.333" id="m"/><path d="M2.788 3.838H.787c.006-.561.047-1.115.12-1.658l.014-.1c.086-.606.212-1.199.376-1.777a10.994 10.994 0 0 1 1.491 3.535" id="o"/><path d="M21.853 1.138H.223c.02-.1.041-.2.064-.3h21.501c.023.1.045.2.065.3" id="q"/><path d="M15.173 2.741A9.185 9.185 0 0 0 2.298 4.464a9.186 9.186 0 1 0 12.875-1.723" id="s"/><linearGradient x1="36.133%" y1="1.794%" x2="64.453%" y2="100.242%" id="t"><stop stop-color="#FFFFFE" offset="0%"/><stop stop-color="#D3D3CF" offset="100%"/></linearGradient><path d="M15.063 1.884A9.005 9.005 0 1 0 4.13 16.195a9.004 9.004 0 0 0 12.622-1.689 9.004 9.004 0 0 0-1.689-12.622" id="v"/><linearGradient x1="36.134%" y1="1.794%" x2="64.454%" y2="100.243%" id="w"><stop stop-color="#FFFFFE" offset="0%"/><stop stop-color="#D3D3CF" offset="100%"/></linearGradient><path d="M2.656 6.74c-.203-.351-.39-.711-.56-1.081l-.046-.1A13.43 13.43 0 0 1 .993 1.92l-.014-.1A13.713 13.713 0 0 1 .858.138h2.493a11.037 11.037 0 0 1-.695 6.602" id="y"/><path d="M22.286 8.838H.801c.343-1.48.999-2.913 1.981-4.198a11.005 11.005 0 0 1 8.77-4.334c2.335 0 4.688.739 6.687 2.265a10.99 10.99 0 0 1 4.047 6.267" id="A"/><path d="M.731 4.495A11.056 11.056 0 0 1 .736.138h.76c-.006.57-.047 1.131-.121 1.682l-.014.1c-.126.889-.339 1.75-.63 2.575" id="C"/><path d="M22.351 1.138H.736c.02-.1.041-.2.065-.3h21.485c.023.1.044.2.065.3" id="E"/><path d="M15.281 2.776a9.186 9.186 0 1 0-11.152 14.6 9.186 9.186 0 0 0 11.152-14.6" id="G"/><linearGradient x1="36.132%" y1="1.794%" x2="64.451%" y2="100.244%" id="H"><stop stop-color="#FFFFFE" offset="0%"/><stop stop-color="#D3D3CF" offset="100%"/></linearGradient><path d="M14.473 1.85A9.006 9.006 0 1 0 3.539 16.163 9.006 9.006 0 0 0 14.473 1.85" id="J"/><linearGradient x1="36.132%" y1="1.796%" x2="64.451%" y2="100.242%" id="K"><stop stop-color="#FFFFFE" offset="0%"/><stop stop-color="#D3D3CF" offset="100%"/></linearGradient><path d="M.327 4.621A11.077 11.077 0 0 1 .296.138h.845c-.006.57-.047 1.131-.122 1.682l-.014.1a13.44 13.44 0 0 1-.678 2.701" id="M"/><path d="M21.856 8.838H.361a10.982 10.982 0 0 1 1.986-4.221A11.011 11.011 0 0 1 11.118.283c2.334 0 4.688.739 6.686 2.265a10.984 10.984 0 0 1 4.052 6.29" id="O"/><path d="M2.234 6.687a13.28 13.28 0 0 1-.529-1.028l-.046-.1A13.43 13.43 0 0 1 .602 1.92l-.014-.1A13.713 13.713 0 0 1 .467.138h2.454c.434 2.167.22 4.456-.687 6.549" id="Q"/><path d="M21.921 1.138H.296c.02-.1.042-.2.065-.3h21.495c.023.1.045.2.065.3" id="S"/><path d="M14.846 2.753a9.186 9.186 0 1 0-11.152 14.6 9.186 9.186 0 0 0 11.152-14.6" id="U"/><linearGradient x1="36.133%" y1="1.795%" x2="64.453%" y2="100.242%" id="V"><stop stop-color="#FFFFFE" offset="0%"/><stop stop-color="#D3D3CF" offset="100%"/></linearGradient><path d="M14.473 1.85A9.006 9.006 0 1 0 3.539 16.163 9.006 9.006 0 0 0 14.473 1.85" id="X"/><linearGradient x1="36.134%" y1="1.797%" x2="64.453%" y2="100.243%" id="Y"><stop stop-color="#FFFFFE" offset="0%"/><stop stop-color="#D3D3CF" offset="100%"/></linearGradient><path d="M2.562 4.838H.172c.007-.561.049-1.114.123-1.658l.014-.1A13.61 13.61 0 0 1 .805.919a10.997 10.997 0 0 1 1.757 3.919" id="aa"/><path d="M.815 2.838H.067C.21 2.212.41 1.593.667.991l.013.089.014.1c.073.543.114 1.097.121 1.658" id="ac"/><path d="M11.807 13.339a10.99 10.99 0 0 1-6.686-2.265A11.029 11.029 0 0 1 1.002.138h21.625a11.001 11.001 0 0 1-2.049 8.867 11.009 11.009 0 0 1-8.771 4.334" id="ae"/><path d="M21.627 1.138H.002c.02-.1.042-.2.065-.3h21.495c.023.1.044.2.065.3" id="ag"/><path d="M15.552 2.753A9.186 9.186 0 1 0 4.4 17.353a9.186 9.186 0 0 0 11.152-14.6" id="ai"/><linearGradient x1="36.133%" y1="1.795%" x2="64.453%" y2="100.242%" id="aj"><stop stop-color="#FFFFFE" offset="0%"/><stop stop-color="#D3D3CF" offset="100%"/></linearGradient><path d="M15.443 1.896A9.006 9.006 0 1 0 4.509 16.209 9.006 9.006 0 0 0 15.443 1.896" id="al"/><linearGradient x1="36.133%" y1="1.797%" x2="64.452%" y2="100.243%" id="am"><stop stop-color="#FFFFFE" offset="0%"/><stop stop-color="#D3D3CF" offset="100%"/></linearGradient></defs><g fill="none" fill-rule="evenodd"><path d="M111.858 47.988V48c0 7.464 6.05 13.515 13.515 13.515 7.464 0 13.515-6.051 13.515-13.515l-.001-.012h-27.029" fill="#079992"/><path d="M21.112 47.993c.003 7.461 6.053 13.509 13.515 13.509 7.463 0 13.513-6.048 13.515-13.509h-27.03" fill="#335EAC"/><path d="M116.2 48.028v-.005c0-7.464-6.051-13.515-13.515-13.515S89.17 40.559 89.17 48.023v.005h27.03" fill="#F6AC73"/><path d="M70.816 48.005V48c0-7.464-6.051-13.515-13.515-13.515-7.465 0-13.515 6.051-13.515 13.515v.005h27.03" fill="#EB6955"/><path d="M66.467 48.005c.002 7.462 6.052 13.51 13.514 13.51 7.463 0 13.513-6.048 13.515-13.51H66.467" fill="#42A971"/><path d="M152.45 49.269a1.282 1.282 0 0 1-1.271-1.131l-.01-.15.01-.15a1.282 1.282 0 0 1 2.552.15c0 .707-.575 1.281-1.281 1.281M8.821 48.138a1.282 1.282 0 0 1-2.552-.15 1.282 1.282 0 1 1 2.552-.15l.01.15-.01.15m143.629-1.73c-.821 0-1.497.629-1.573 1.43H9.123a1.582 1.582 0 0 0-1.573-1.43c-.872 0-1.581.709-1.581 1.58 0 .872.709 1.581 1.581 1.581.821 0 1.497-.629 1.573-1.431h141.754a1.582 1.582 0 0 0 1.573 1.431c.872 0 1.581-.709 1.581-1.581 0-.871-.709-1.58-1.581-1.58" fill="#332D39"/><g transform="translate(115 48)"><mask id="b" fill="#fff"><use xlink:href="#a"/></mask><path d="M11.224 13.339A11.03 11.03 0 0 1 .418.138h21.625a11.001 11.001 0 0 1-2.049 8.867 11.008 11.008 0 0 1-8.77 4.334" mask="url(#b)"/></g><g transform="translate(115 46)"><mask id="d" fill="#fff"><use xlink:href="#c"/></mask><path d="M1.199 1.838H.483c.139-.605.33-1.203.575-1.787l.004.029.014.1c.074.544.116 1.097.123 1.658" mask="url(#d)"/></g><g transform="translate(115 47)"><mask id="f" fill="#fff"><use xlink:href="#e"/></mask><path d="M22.043 1.138H.418c.02-.1.042-.2.065-.3h21.495c.023.1.045.2.065.3" mask="url(#f)"/></g><g transform="translate(116 38)"><mask id="i" fill="#fff"><use xlink:href="#g"/></mask><path d="M14.968 2.753a9.186 9.186 0 1 0-11.152 14.6 9.186 9.186 0 0 0 11.152-14.6" fill="url(#h)" mask="url(#i)"/></g><g transform="translate(116 39)"><mask id="l" fill="#fff"><use xlink:href="#j"/></mask><path d="M14.473 1.85A9.006 9.006 0 1 0 3.539 16.163 9.006 9.006 0 0 0 14.473 1.85" fill="url(#k)" mask="url(#l)"/></g><g transform="translate(24 48)"><mask id="n" fill="#fff"><use xlink:href="#m"/></mask><path d="M11.031 13.326c-2.334 0-4.688-.738-6.686-2.265A11.028 11.028 0 0 1 .223.138h21.63a11 11 0 0 1-2.052 8.855 11.007 11.007 0 0 1-8.77 4.333" mask="url(#n)"/></g><g transform="translate(43 44)"><mask id="p" fill="#fff"><use xlink:href="#o"/></mask><path d="M2.788 3.838H.787c.006-.561.047-1.115.12-1.658l.014-.1c.086-.606.212-1.199.376-1.777a10.994 10.994 0 0 1 1.491 3.535" mask="url(#p)"/></g><g transform="translate(24 47)"><mask id="r" fill="#fff"><use xlink:href="#q"/></mask><path d="M21.853 1.138H.223c.02-.1.041-.2.064-.3h21.501c.023.1.045.2.065.3" mask="url(#r)"/></g><g transform="translate(25 38)"><mask id="u" fill="#fff"><use xlink:href="#s"/></mask><path d="M14.762 2.887A9.185 9.185 0 0 0 1.887 4.61a9.186 9.186 0 1 0 12.875-1.723" fill="url(#t)" mask="url(#u)"/></g><g transform="translate(25 39)"><mask id="x" fill="#fff"><use xlink:href="#v"/></mask><path d="M15.472 1.85A9.005 9.005 0 1 0 4.539 16.16a9.004 9.004 0 0 0 12.622-1.69A9.004 9.004 0 0 0 15.47 1.85" fill="url(#w)" mask="url(#x)"/></g><g transform="translate(111 48)"><mask id="z" fill="#fff"><use xlink:href="#y"/></mask><path d="M2.656 6.74c-.203-.351-.39-.711-.56-1.081l-.046-.1A13.43 13.43 0 0 1 .993 1.92l-.014-.1A13.713 13.713 0 0 1 .858.138h2.493a11.037 11.037 0 0 1-.695 6.602" mask="url(#z)"/></g><g transform="translate(92 39)"><mask id="B" fill="#fff"><use xlink:href="#A"/></mask><path d="M22.286 8.838H.801c.343-1.48.999-2.913 1.981-4.198a11.005 11.005 0 0 1 8.77-4.334c2.335 0 4.688.739 6.687 2.265a10.99 10.99 0 0 1 4.047 6.267" mask="url(#B)"/></g><g transform="translate(92 48)"><mask id="D" fill="#fff"><use xlink:href="#C"/></mask><path d="M.731 4.495A11.056 11.056 0 0 1 .736.138h.76c-.006.57-.047 1.131-.121 1.682l-.014.1c-.126.889-.339 1.75-.63 2.575" mask="url(#D)"/></g><g transform="translate(92 47)"><mask id="F" fill="#fff"><use xlink:href="#E"/></mask><path d="M22.351 1.138H.736c.02-.1.041-.2.065-.3h21.485c.023.1.044.2.065.3" mask="url(#F)"/></g><g transform="translate(93 38)"><mask id="I" fill="#fff"><use xlink:href="#G"/></mask><path d="M15.281 2.776a9.186 9.186 0 1 0-11.152 14.6 9.186 9.186 0 0 0 11.152-14.6" fill="url(#H)" mask="url(#I)"/></g><g transform="translate(94 39)"><mask id="L" fill="#fff"><use xlink:href="#J"/></mask><path d="M14.473 1.85A9.006 9.006 0 1 0 3.539 16.163 9.006 9.006 0 0 0 14.473 1.85" fill="url(#K)" mask="url(#L)"/></g><g transform="translate(47 48)"><mask id="N" fill="#fff"><use xlink:href="#M"/></mask><path d="M.327 4.621A11.077 11.077 0 0 1 .296.138h.845c-.006.57-.047 1.131-.122 1.682l-.014.1a13.44 13.44 0 0 1-.678 2.701" mask="url(#N)"/></g><g transform="translate(47 39)"><mask id="P" fill="#fff"><use xlink:href="#O"/></mask><path d="M21.856 8.838H.361a10.982 10.982 0 0 1 1.986-4.221A11.011 11.011 0 0 1 11.118.283c2.334 0 4.688.739 6.686 2.265a10.984 10.984 0 0 1 4.052 6.29" mask="url(#P)"/></g><g transform="translate(66 48)"><mask id="R" fill="#fff"><use xlink:href="#Q"/></mask><path d="M2.234 6.687a13.28 13.28 0 0 1-.529-1.028l-.046-.1A13.43 13.43 0 0 1 .602 1.92l-.014-.1A13.713 13.713 0 0 1 .467.138h2.454c.434 2.167.22 4.456-.687 6.549" mask="url(#R)"/></g><g transform="translate(47 47)"><mask id="T" fill="#fff"><use xlink:href="#S"/></mask><path d="M21.921 1.138H.296c.02-.1.042-.2.065-.3h21.495c.023.1.045.2.065.3" mask="url(#T)"/></g><g transform="translate(48 38)"><mask id="W" fill="#fff"><use xlink:href="#U"/></mask><path d="M14.846 2.753a9.186 9.186 0 1 0-11.152 14.6 9.186 9.186 0 0 0 11.152-14.6" fill="url(#V)" mask="url(#W)"/></g><g transform="translate(48 39)"><mask id="Z" fill="#fff"><use xlink:href="#X"/></mask><path d="M14.473 1.85A9.006 9.006 0 1 0 3.539 16.163 9.006 9.006 0 0 0 14.473 1.85" fill="url(#Y)" mask="url(#Z)"/></g><g transform="translate(89 43)"><mask id="ab" fill="#fff"><use xlink:href="#aa"/></mask><path d="M2.562 4.838H.172c.007-.561.049-1.114.123-1.658l.014-.1A13.61 13.61 0 0 1 .805.919a10.997 10.997 0 0 1 1.757 3.919" mask="url(#ab)"/></g><g transform="translate(70 45)"><mask id="ad" fill="#fff"><use xlink:href="#ac"/></mask><path d="M.815 2.838H.067C.21 2.212.41 1.593.667.991l.013.089.014.1c.073.543.114 1.097.121 1.658" mask="url(#ad)"/></g><g transform="translate(69 48)"><mask id="af" fill="#fff"><use xlink:href="#ae"/></mask><path d="M11.807 13.339a10.99 10.99 0 0 1-6.686-2.265A11.029 11.029 0 0 1 1.002.138h21.625a11.001 11.001 0 0 1-2.049 8.867 11.009 11.009 0 0 1-8.771 4.334" mask="url(#af)"/></g><g transform="translate(70 47)"><mask id="ah" fill="#fff"><use xlink:href="#ag"/></mask><path d="M21.627 1.138H.002c.02-.1.042-.2.065-.3h21.495c.023.1.044.2.065.3" mask="url(#ah)"/></g><g transform="translate(70 38)"><mask id="ak" fill="#fff"><use xlink:href="#ai"/></mask><path d="M15.552 2.753A9.186 9.186 0 1 0 4.4 17.353a9.186 9.186 0 0 0 11.152-14.6" fill="url(#aj)" mask="url(#ak)"/></g><g transform="translate(70 39)"><mask id="an" fill="#fff"><use xlink:href="#al"/></mask><path d="M15.443 1.896A9.006 9.006 0 1 0 4.509 16.209 9.006 9.006 0 0 0 15.443 1.896" fill="url(#am)" mask="url(#an)"/></g><path fill="#332D39" d="M34.517 35.704h.16v-4h-.16zm45.358.066h.16v-11h-.16zm45.335.067h.16v-4h-.16zm-21.585 31.382h.16v-7.21h-.16zm-46.429 0h.16v-7.21h-.16z"/><path fill="#332D39" d="M33.479 31.748l1.118-1.566 1.118 1.566h-2.236m45.403-6.4L80 23.782l1.118 1.566h-2.236M58.419 67.202l-1.118 1.566-1.119-1.566h2.237m46.404 0l-1.118 1.566-1.118-1.566h2.236m19.349-35.254l1.118-1.566 1.118 1.566h-2.236"/><path d="M35.284 36.498a.687.687 0 1 1-1.374 0 .687.687 0 0 1 1.374 0" fill="#335EAC"/><path d="M80.642 36.565a.688.688 0 1 1-1.375-.001.688.688 0 0 1 1.375.001" fill="#42A971"/><path d="M125.977 36.632a.687.687 0 1 1-1.373-.001.687.687 0 0 1 1.373.001" fill="#079992"/><path d="M57.987 59.578a.687.687 0 1 1-1.373 0 .687.687 0 0 1 1.373 0" fill="#EB6955"/><path d="M104.392 59.578a.688.688 0 1 1-1.375-.001.688.688 0 0 1 1.375.001" fill="#F6AC73"/><text font-family="LibreBaskerville-Bold, Libre Baskerville" font-size="6" font-weight="bold" letter-spacing=".167" fill="#25272D" transform="translate(-1 4)"><tspan x="34.109" y="46">1</tspan></text><text font-family="LibreBaskerville-Bold, Libre Baskerville" font-size="6" font-weight="bold" letter-spacing=".167" fill="#25272D" transform="translate(-1 4)"><tspan x="56.464" y="46">2</tspan></text><text font-family="LibreBaskerville-Bold, Libre Baskerville" font-size="6" font-weight="bold" letter-spacing=".167" fill="#25272D" transform="translate(-1 4)"><tspan x="79.006" y="46">3</tspan></text><text font-family="LibreBaskerville-Bold, Libre Baskerville" font-size="6" font-weight="bold" letter-spacing=".167" fill="#25272D" transform="translate(-1 4)"><tspan x="101.425" y="46">4</tspan></text><text font-family="LibreBaskerville-Bold, Libre Baskerville" font-size="6" font-weight="bold" letter-spacing=".167" fill="#25272D" transform="translate(-1 4)"><tspan x="124.132" y="46">5</tspan></text><path d="M152.45 47.221a.768.768 0 0 0-.753.617l-.014.15.014.15a.767.767 0 1 0 .753-.917m-144.9 0a.767.767 0 1 0 .753.917l.014-.15-.014-.15a.768.768 0 0 0-.753-.617" fill="#332D39"/><text font-family="LibreBaskerville-Italic, Libre Baskerville" font-size="3" font-style="italic" letter-spacing=".167" fill="#25272D"><tspan x="26.051" y="16">Strategy</tspan></text><text font-family="LibreBaskerville-Italic, Libre Baskerville" font-size="3" font-style="italic" letter-spacing=".167" fill="#25272D"><tspan x="40.794" y="74">Creation Of Concept</tspan></text><text font-family="LibreBaskerville-Italic, Libre Baskerville" font-size="3" font-style="italic" letter-spacing=".167" fill="#25272D"><tspan x="114.347" y="16">Brand Growth</tspan></text><text font-family="Effra-Light, Effra" font-size="2" font-weight="300" letter-spacing=".167" fill="#25272D"><tspan x="13.482" y="20">lorem ipsum dolom set amet dolem </tspan> <tspan x="11.408" y="23">lorem ipsum albeit set amet del provino </tspan> <tspan x="14.239" y="26">ipsum albeit set amet del provino.</tspan></text><text font-family="LibreBaskerville-Italic, Libre Baskerville" font-size="3" font-style="italic" letter-spacing=".167" fill="#25272D"><tspan x="88.51" y="74">Product Development</tspan></text><text font-family="Effra-Light, Effra" font-size="2" font-weight="300" letter-spacing=".167" fill="#25272D"><tspan x="60.482" y="16">lorem ipsum dolom set amet dolem </tspan> <tspan x="58.408" y="19">lorem ipsum albeit set amet del provino </tspan> <tspan x="61.239" y="22">ipsum albeit set amet del provino.</tspan></text><text font-family="LibreBaskerville-Italic, Libre Baskerville" font-size="3" font-style="italic" letter-spacing=".167" fill="#25272D"><tspan x="74.217" y="12">Design</tspan></text><text font-family="Effra-Light, Effra" font-size="2" font-weight="300" letter-spacing=".167" fill="#25272D"><tspan x="35.864" y="78">lorem ipsum dolom set amet dolem lorem </tspan> <tspan x="36.783" y="81">ipsum albeit set amet del provino ipsum </tspan> <tspan x="42.982" y="84">albeit set amet del provino.</tspan></text><text font-family="Effra-Light, Effra" font-size="2" font-weight="300" letter-spacing=".167" fill="#25272D"><tspan x="106.482" y="20">lorem ipsum dolom set amet dolem </tspan> <tspan x="104.408" y="23">lorem ipsum albeit set amet del provino </tspan> <tspan x="107.239" y="26">ipsum albeit set amet del provino.</tspan></text><text font-family="Effra-Light, Effra" font-size="2" font-weight="300" letter-spacing=".167" fill="#25272D"><tspan x="88.482" y="78">lorem ipsum dolom set amet dolem </tspan> <tspan x="86.408" y="81">lorem ipsum albeit set amet del provino </tspan> <tspan x="89.239" y="84">ipsum albeit set amet del provino.</tspan></text></g></svg>