<svg width="816" height="100" xmlns="http://www.w3.org/2000/svg"><g transform="translate(1 1)" stroke="#1E476B" stroke-width="3" fill="none" fill-rule="evenodd"><path d="M36.25 68.3c-4.507 0-8.688-.802-12.545-2.405-3.857-1.603-6.955-3.922-9.295-6.955V96.9H.63V2h13.78v9.1c2.427-3.207 5.547-5.742 9.36-7.605C27.583 1.632 31.7.7 36.12.7c4.247 0 8.32.78 12.22 2.34A30.961 30.961 0 0 1 58.675 9.8c2.99 2.947 5.373 6.5 7.15 10.66 1.777 4.16 2.665 8.84 2.665 14.04 0 5.2-.91 9.88-2.73 14.04-1.82 4.16-4.225 7.692-7.215 10.595a32.349 32.349 0 0 1-10.335 6.76c-3.9 1.603-7.887 2.405-11.96 2.405zm-2.08-12.74c2.86 0 5.547-.542 8.06-1.625 2.513-1.083 4.702-2.578 6.565-4.485 1.863-1.907 3.315-4.16 4.355-6.76 1.04-2.6 1.56-5.373 1.56-8.32s-.52-5.698-1.56-8.255c-1.04-2.557-2.492-4.788-4.355-6.695-1.863-1.907-4.052-3.402-6.565-4.485-2.513-1.083-5.2-1.625-8.06-1.625-2.947 0-5.677.563-8.19 1.69s-4.68 2.643-6.5 4.55c-1.82 1.907-3.25 4.138-4.29 6.695-1.04 2.557-1.56 5.265-1.56 8.125 0 2.947.52 5.698 1.56 8.255 1.04 2.557 2.47 4.788 4.29 6.695 1.82 1.907 3.987 3.423 6.5 4.55 2.513 1.127 5.243 1.69 8.19 1.69zM84.232 2h13.91v10.01c1.734-3.207 4.074-5.677 7.02-7.41 2.947-1.733 6.587-2.6 10.92-2.6h7.67v13.26h-9.75c-5.72 0-9.771 1.56-12.155 4.68-2.383 3.12-3.575 8.06-3.575 14.82V67h-14.04V2zm82.953 66.3c-4.68 0-9.057-.867-13.13-2.6-4.074-1.733-7.649-4.138-10.725-7.215-3.077-3.077-5.482-6.673-7.215-10.79-1.734-4.117-2.6-8.515-2.6-13.195 0-4.767.866-9.208 2.6-13.325 1.733-4.117 4.138-7.692 7.215-10.725 3.076-3.033 6.651-5.417 10.725-7.15 4.073-1.733 8.45-2.6 13.13-2.6 4.68 0 9.056.867 13.13 2.6 4.073 1.733 7.648 4.117 10.725 7.15 3.076 3.033 5.481 6.608 7.215 10.725 1.733 4.117 2.6 8.558 2.6 13.325 0 4.68-.867 9.078-2.6 13.195-1.734 4.117-4.139 7.713-7.215 10.79-3.077 3.077-6.652 5.482-10.725 7.215-4.074 1.733-8.45 2.6-13.13 2.6zm0-13c2.773 0 5.373-.542 7.8-1.625a19.978 19.978 0 0 0 6.37-4.485c1.82-1.907 3.25-4.117 4.29-6.63s1.56-5.2 1.56-8.06c0-2.86-.52-5.547-1.56-8.06-1.04-2.513-2.47-4.723-4.29-6.63a19.978 19.978 0 0 0-6.37-4.485c-2.427-1.083-5.027-1.625-7.8-1.625-2.86 0-5.504.542-7.93 1.625a19.244 19.244 0 0 0-6.305 4.485c-1.777 1.907-3.164 4.117-4.16 6.63-.997 2.513-1.495 5.2-1.495 8.06 0 2.86.498 5.547 1.495 8.06.996 2.513 2.383 4.723 4.16 6.63a19.244 19.244 0 0 0 6.305 4.485c2.426 1.083 5.07 1.625 7.93 1.625zm85.422 13c-4.507 0-8.688-.802-12.545-2.405-3.857-1.603-6.955-3.922-9.295-6.955V96.9h-13.78V2h13.78v9.1c2.427-3.207 5.547-5.742 9.36-7.605C243.94 1.632 248.057.7 252.477.7c4.247 0 8.32.78 12.22 2.34a30.961 30.961 0 0 1 10.335 6.76c2.99 2.947 5.373 6.5 7.15 10.66 1.777 4.16 2.665 8.84 2.665 14.04 0 5.2-.91 9.88-2.73 14.04-1.82 4.16-4.225 7.692-7.215 10.595a32.349 32.349 0 0 1-10.335 6.76c-3.9 1.603-7.887 2.405-11.96 2.405zm-2.08-12.74c2.86 0 5.547-.542 8.06-1.625 2.513-1.083 4.702-2.578 6.565-4.485 1.863-1.907 3.315-4.16 4.355-6.76 1.04-2.6 1.56-5.373 1.56-8.32s-.52-5.698-1.56-8.255c-1.04-2.557-2.492-4.788-4.355-6.695-1.863-1.907-4.052-3.402-6.565-4.485-2.513-1.083-5.2-1.625-8.06-1.625-2.947 0-5.677.563-8.19 1.69s-4.68 2.643-6.5 4.55c-1.82 1.907-3.25 4.138-4.29 6.695-1.04 2.557-1.56 5.265-1.56 8.125 0 2.947.52 5.698 1.56 8.255 1.04 2.557 2.47 4.788 4.29 6.695 1.82 1.907 3.987 3.423 6.5 4.55 2.513 1.127 5.243 1.69 8.19 1.69zM371.192 68.3c-5.113 0-9.75-.888-13.91-2.665-4.16-1.777-7.692-4.182-10.595-7.215-2.903-3.033-5.135-6.587-6.695-10.66-1.56-4.073-2.34-8.407-2.34-13 0-4.767.867-9.23 2.6-13.39s4.095-7.757 7.085-10.79c2.99-3.033 6.543-5.438 10.66-7.215C362.114 1.588 366.555.7 371.322.7c4.767 0 9.208.823 13.325 2.47 4.117 1.647 7.67 3.965 10.66 6.955s5.33 6.522 7.02 10.595c1.69 4.073 2.535 8.537 2.535 13.39v4.81h-53.95c.78 5.027 2.947 9.165 6.5 12.415s8.19 4.875 13.91 4.875c4.507 0 8.255-.997 11.245-2.99 2.99-1.993 5.092-4.68 6.305-8.06h14.95c-2.513 7.193-6.478 12.848-11.895 16.965-5.417 4.117-12.328 6.175-20.735 6.175zm.26-55.25c-4.767 0-8.883 1.322-12.35 3.965-3.467 2.643-5.893 6.045-7.28 10.205h38.87c-1.213-4.593-3.488-8.103-6.825-10.53-3.337-2.427-7.475-3.64-12.415-3.64zM420.994 2h13.91v10.01c1.734-3.207 4.074-5.677 7.02-7.41 2.947-1.733 6.587-2.6 10.92-2.6h7.67v13.26h-9.75c-5.72 0-9.771 1.56-12.155 4.68-2.383 3.12-3.575 8.06-3.575 14.82V67h-14.04V2zm94.925 0h13.78v8.45a24.065 24.065 0 0 1 8.45-7.15c3.38-1.733 7.237-2.6 11.57-2.6 8.233 0 14.69 2.492 19.37 7.475 4.68 4.983 7.02 11.938 7.02 20.865V67h-14.04V30.21c0-5.373-1.322-9.62-3.965-12.74-2.643-3.12-6.565-4.68-11.765-4.68-4.68 0-8.602 1.647-11.765 4.94-3.163 3.293-4.745 7.8-4.745 13.52V67h-13.91V2zm109.862 66.3c-4.68 0-9.056-.867-13.13-2.6-4.073-1.733-7.648-4.138-10.725-7.215-3.076-3.077-5.481-6.673-7.215-10.79-1.733-4.117-2.6-8.515-2.6-13.195 0-4.767.867-9.208 2.6-13.325 1.734-4.117 4.139-7.692 7.215-10.725 3.077-3.033 6.652-5.417 10.725-7.15 4.074-1.733 8.45-2.6 13.13-2.6 4.68 0 9.057.867 13.13 2.6 4.074 1.733 7.649 4.117 10.725 7.15 3.077 3.033 5.482 6.608 7.215 10.725 1.734 4.117 2.6 8.558 2.6 13.325 0 4.68-.866 9.078-2.6 13.195-1.733 4.117-4.138 7.713-7.215 10.79-3.076 3.077-6.651 5.482-10.725 7.215-4.073 1.733-8.45 2.6-13.13 2.6zm0-13c2.774 0 5.374-.542 7.8-1.625a19.978 19.978 0 0 0 6.37-4.485c1.82-1.907 3.25-4.117 4.29-6.63s1.56-5.2 1.56-8.06c0-2.86-.52-5.547-1.56-8.06-1.04-2.513-2.47-4.723-4.29-6.63a19.978 19.978 0 0 0-6.37-4.485c-2.426-1.083-5.026-1.625-7.8-1.625-2.86 0-5.503.542-7.93 1.625a19.244 19.244 0 0 0-6.305 4.485c-1.776 1.907-3.163 4.117-4.16 6.63-.996 2.513-1.495 5.2-1.495 8.06 0 2.86.499 5.547 1.495 8.06.997 2.513 2.384 4.723 4.16 6.63a19.244 19.244 0 0 0 6.305 4.485c2.427 1.083 5.07 1.625 7.93 1.625zm75.543 13c-8.32 0-14.712-2.492-19.175-7.475-4.464-4.983-6.695-11.982-6.695-20.995V2h14.17v36.66c0 5.46 1.278 9.728 3.835 12.805 2.556 3.077 6.305 4.615 11.245 4.615 4.42 0 8.081-1.625 10.985-4.875 2.903-3.25 4.355-7.692 4.355-13.325V2h13.91v65h-13.78v-8.58c-1.994 3.033-4.594 5.438-7.8 7.215-3.207 1.777-6.89 2.665-11.05 2.665zM752.946 2h13.78v8.45a24.065 24.065 0 0 1 8.45-7.15c3.38-1.733 7.237-2.6 11.57-2.6 8.234 0 14.69 2.492 19.37 7.475 4.68 4.983 7.02 11.938 7.02 20.865V67h-14.04V30.21c0-5.373-1.321-9.62-3.965-12.74-2.643-3.12-6.565-4.68-11.765-4.68-4.68 0-8.601 1.647-11.765 4.94-3.163 3.293-4.745 7.8-4.745 13.52V67h-13.91V2z"/><circle cx="310" cy="33" r="10"/></g></svg>