<svg viewBox="0 0 864 100" xmlns="http://www.w3.org/2000/svg"><circle fill="#fff" cx="330" cy="36" r="12"/><path fill="#fff" d="M.685 2.995h20.01c.193 1.257.338 2.49.435 3.697.097 1.209.193 2.441.29 3.698 2.223-2.803 5.075-4.954 8.555-6.453A27.222 27.222 0 0 1 40.85 1.69c4.93 0 9.28.967 13.05 2.9 3.77 1.933 6.912 4.52 9.425 7.758 2.513 3.238 4.398 6.96 5.655 11.164a45.08 45.08 0 0 1 1.885 12.978c0 6.283-1.063 11.745-3.19 16.385-2.127 4.64-4.882 8.458-8.265 11.455A33.34 33.34 0 0 1 47.955 71c-4.253 1.45-8.458 2.175-12.615 2.175-3.287 0-5.993-.29-8.12-.87a109.7 109.7 0 0 1-5.8-1.74V100H.685V2.995zM21.42 53.02c2.707 1.837 6.718 2.755 12.035 2.755 5.123 0 9.16-1.716 12.108-5.148 2.948-3.431 4.422-7.999 4.422-13.702a26.8 26.8 0 0 0-.797-6.525c-.532-2.127-1.354-3.987-2.466-5.582-1.111-1.596-2.561-2.876-4.35-3.843-1.788-.967-3.987-1.45-6.597-1.45-2.32 0-4.374.435-6.162 1.305-1.789.87-3.287 2.03-4.495 3.48a15.428 15.428 0 0 0-2.755 4.93 17.354 17.354 0 0 0-.943 5.655V53.02zM88.859 2.995h20.01l.725 8.555c1.74-2.32 4.132-4.543 7.177-6.67s6.984-3.19 11.818-3.19c1.836 0 3.407.097 4.712.29a18.04 18.04 0 0 1 3.843 1.015l-3.335 18.415c-2.127-.677-4.64-1.015-7.54-1.015-4.93 0-8.918 1.474-11.963 4.422-3.045 2.949-4.567 7.13-4.567 12.543V71h-20.88V2.995zm94.844 52.2c2.61 0 4.93-.507 6.96-1.523a15.33 15.33 0 0 0 5.147-4.132 17.61 17.61 0 0 0 3.118-5.873 22.565 22.565 0 0 0 1.015-6.742c0-2.32-.339-4.567-1.015-6.742-.677-2.176-1.716-4.109-3.118-5.8-1.402-1.692-3.117-3.045-5.147-4.06-2.03-1.016-4.35-1.523-6.96-1.523-2.61 0-4.955.507-7.033 1.523-2.078 1.015-3.794 2.368-5.147 4.06-1.354 1.691-2.393 3.624-3.118 5.8a21.182 21.182 0 0 0-1.087 6.742c0 2.32.362 4.567 1.087 6.742.725 2.176 1.764 4.133 3.118 5.873 1.353 1.74 3.069 3.117 5.147 4.133 2.078 1.015 4.423 1.522 7.033 1.522zm-36.54-18.27c0-5.027.894-9.74 2.682-14.137 1.788-4.399 4.278-8.241 7.468-11.528 3.19-3.287 7.032-5.872 11.527-7.758 4.495-1.885 9.45-2.827 14.863-2.827s10.343.942 14.79 2.827c4.446 1.886 8.265 4.471 11.455 7.758 3.19 3.287 5.679 7.13 7.467 11.528 1.788 4.398 2.683 9.11 2.683 14.137 0 5.027-.895 9.74-2.683 14.138-1.788 4.398-4.277 8.24-7.467 11.527-3.19 3.287-7.009 5.897-11.455 7.83-4.447 1.933-9.377 2.9-14.79 2.9-5.414 0-10.368-.967-14.863-2.9-4.495-1.933-8.337-4.543-11.527-7.83-3.19-3.287-5.68-7.13-7.468-11.528-1.788-4.398-2.682-9.11-2.682-14.137zm90.928-33.93h20.01c.194 1.257.339 2.49.435 3.697.097 1.209.194 2.441.29 3.698 2.224-2.803 5.075-4.954 8.555-6.453a27.222 27.222 0 0 1 10.875-2.247c4.93 0 9.28.967 13.05 2.9 3.77 1.933 6.912 4.52 9.425 7.758 2.514 3.238 4.399 6.96 5.655 11.164a45.08 45.08 0 0 1 1.885 12.978c0 6.283-1.063 11.745-3.19 16.385-2.126 4.64-4.881 8.458-8.265 11.455A33.34 33.34 0 0 1 285.361 71c-4.253 1.45-8.458 2.175-12.615 2.175-3.286 0-5.993-.29-8.12-.87-2.126-.58-4.06-1.16-5.8-1.74V100h-20.735V2.995zm20.735 50.025c2.707 1.837 6.719 2.755 12.035 2.755 5.124 0 9.16-1.716 12.108-5.148 2.948-3.431 4.422-7.999 4.422-13.702a26.8 26.8 0 0 0-.797-6.525c-.532-2.127-1.353-3.987-2.465-5.582-1.112-1.596-2.562-2.876-4.35-3.843-1.788-.967-3.988-1.45-6.598-1.45-2.32 0-4.374.435-6.162 1.305-1.788.87-3.287 2.03-4.495 3.48a15.428 15.428 0 0 0-2.755 4.93 17.354 17.354 0 0 0-.943 5.655V53.02zM422.27 63.605c-.773.483-1.933 1.28-3.48 2.393-1.547 1.111-3.552 2.199-6.017 3.262-2.465 1.063-5.39 2.006-8.773 2.828-3.383.821-7.25 1.232-11.6 1.232-5.8 0-11.02-.894-15.66-2.682-4.64-1.789-8.58-4.278-11.817-7.468-3.239-3.19-5.704-7.032-7.395-11.528-1.692-4.495-2.538-9.449-2.538-14.862 0-4.737.798-9.304 2.393-13.703 1.595-4.398 3.89-8.24 6.887-11.527 2.997-3.287 6.67-5.92 11.02-7.903 4.35-1.981 9.28-2.972 14.79-2.972s10.343.967 14.5 2.9c4.157 1.933 7.66 4.616 10.513 8.047 2.851 3.432 5.002 7.54 6.452 12.326 1.45 4.785 2.175 10.029 2.175 15.732v3.48h-48.43c.097 3.673 1.716 6.887 4.858 9.643 3.141 2.755 7.467 4.132 12.977 4.132 5.413 0 9.812-.797 13.195-2.393 3.383-1.595 5.848-2.972 7.395-4.132l8.555 13.195zM404 29.82c0-1.45-.29-2.924-.87-4.422-.58-1.499-1.45-2.876-2.61-4.133-1.16-1.257-2.61-2.296-4.35-3.117-1.74-.822-3.818-1.233-6.235-1.233-2.417 0-4.543.41-6.38 1.233-1.837.821-3.36 1.86-4.567 3.117-1.209 1.257-2.127 2.634-2.755 4.133-.629 1.498-.943 2.972-.943 4.422H404zm37.134-26.825h20.01l.725 8.555c1.74-2.32 4.132-4.543 7.177-6.67s6.984-3.19 11.818-3.19c1.837 0 3.407.097 4.712.29a18.04 18.04 0 0 1 3.843 1.015l-3.335 18.415c-2.127-.677-4.64-1.015-7.54-1.015-4.93 0-8.918 1.474-11.963 4.422-3.045 2.949-4.567 7.13-4.567 12.543V71h-20.88V2.995zm94.422 0h20.01l.58 7.395c2.224-2.707 5.148-4.882 8.773-6.525A27.263 27.263 0 0 1 576.3 1.4c7.83 0 14.041 2.32 18.633 6.96 4.592 4.64 6.887 11.503 6.887 20.59V71h-20.88V31.85c0-3.77-.942-6.767-2.827-8.99s-4.52-3.335-7.903-3.335c-2.32 0-4.35.41-6.09 1.233-1.74.821-3.19 1.909-4.35 3.262-1.16 1.353-2.03 2.924-2.61 4.713-.58 1.788-.87 3.697-.87 5.727V71h-20.735V2.995zm120.364 52.2c2.61 0 4.93-.507 6.96-1.523a15.33 15.33 0 0 0 5.148-4.132 17.61 17.61 0 0 0 3.117-5.873 22.565 22.565 0 0 0 1.015-6.742c0-2.32-.338-4.567-1.015-6.742-.676-2.176-1.716-4.109-3.117-5.8-1.402-1.692-3.118-3.045-5.148-4.06-2.03-1.016-4.35-1.523-6.96-1.523-2.61 0-4.954.507-7.032 1.523-2.079 1.015-3.794 2.368-5.148 4.06-1.353 1.691-2.392 3.624-3.117 5.8a21.182 21.182 0 0 0-1.088 6.742c0 2.32.363 4.567 1.088 6.742.725 2.176 1.764 4.133 3.117 5.873 1.354 1.74 3.07 3.117 5.148 4.133 2.078 1.015 4.422 1.522 7.032 1.522zm-36.54-18.27c0-5.027.894-9.74 2.683-14.137 1.788-4.399 4.277-8.241 7.467-11.528 3.19-3.287 7.033-5.872 11.528-7.758 4.495-1.885 9.449-2.827 14.862-2.827 5.414 0 10.344.942 14.79 2.827 4.447 1.886 8.265 4.471 11.455 7.758 3.19 3.287 5.68 7.13 7.468 11.528 1.788 4.398 2.682 9.11 2.682 14.137 0 5.027-.894 9.74-2.682 14.138-1.789 4.398-4.278 8.24-7.468 11.527-3.19 3.287-7.008 5.897-11.455 7.83-4.446 1.933-9.376 2.9-14.79 2.9-5.413 0-10.367-.967-14.862-2.9-4.495-1.933-8.338-4.543-11.528-7.83-3.19-3.287-5.679-7.13-7.467-11.528-1.789-4.398-2.683-9.11-2.683-14.137zm90.64-33.93h20.88v39.15c0 3.867.942 6.912 2.827 9.135s4.664 3.335 8.337 3.335c2.127 0 4.012-.41 5.655-1.233a13.314 13.314 0 0 0 4.205-3.262c1.16-1.353 2.03-2.948 2.61-4.785.58-1.837.87-3.722.87-5.655V2.995h20.735V71h-20.01l-.58-7.25c-2.223 2.61-5.147 4.76-8.772 6.453-3.625 1.691-7.42 2.537-11.383 2.537-7.83 0-14.017-2.32-18.56-6.96-4.543-4.64-6.815-11.503-6.815-20.59V2.995zm87.303 0h20.01l.58 7.395c2.223-2.707 5.147-4.882 8.772-6.525A27.263 27.263 0 0 1 838.067 1.4c7.83 0 14.04 2.32 18.632 6.96 4.592 4.64 6.888 11.503 6.888 20.59V71h-20.88V31.85c0-3.77-.943-6.767-2.828-8.99-1.885-2.223-4.519-3.335-7.902-3.335-2.32 0-4.35.41-6.09 1.233-1.74.821-3.19 1.909-4.35 3.262-1.16 1.353-2.03 2.924-2.61 4.713-.58 1.788-.87 3.697-.87 5.727V71h-20.735V2.995z"/></svg>