<?xml version="1.0" encoding="UTF-8"?>
<svg width="160px" height="96px" viewBox="0 0 160 96" version="1.1" xmlns="http://www.w3.org/2000/svg" xmlns:xlink="http://www.w3.org/1999/xlink">
    <!-- Generator: Sketch 50.2 (55047) - http://www.bohemiancoding.com/sketch -->
    <title>Vector infographics design template with 3D paper label_5 Copy</title>
    <desc>Created with Sketch.</desc>
    <defs>
        <path d="M11.224,13.339 C8.889,13.338 6.536,12.6 4.537,11.074 C1.077,8.43 -0.382,4.139 0.418,0.138 L22.043,0.138 C22.645,3.142 22,6.38 19.994,9.005 C17.824,11.846 14.543,13.339 11.224,13.339" id="path-1"></path>
        <path d="M1.199,1.838 L0.483,1.838 C0.622,1.233 0.813,0.635 1.058,0.051 C1.059,0.061 1.06,0.071 1.062,0.08 C1.067,0.114 1.071,0.147 1.076,0.18 C1.15,0.724 1.192,1.277 1.199,1.838" id="path-3"></path>
        <path d="M22.043,1.138 L0.418,1.138 C0.438,1.038 0.46,0.938 0.483,0.838 L21.978,0.838 C22.001,0.938 22.023,1.038 22.043,1.138" id="path-5"></path>
        <path d="M14.968,2.753 C10.937,-0.326 5.173,0.445 2.093,4.476 C-0.986,8.507 -0.215,14.271 3.816,17.351 C7.847,20.431 13.611,19.659 16.691,15.628 C19.77,11.597 18.999,5.833 14.968,2.753" id="path-7"></path>
        <linearGradient x1="36.1355637%" y1="1.79450541%" x2="64.4555937%" y2="100.242235%" id="linearGradient-9">
            <stop stop-color="#FFFFFE" offset="0%"></stop>
            <stop stop-color="#D3D3CF" offset="100%"></stop>
        </linearGradient>
        <path d="M14.859,1.896 C10.907,-1.123 5.256,-0.367 2.236,3.585 C-0.783,7.538 -0.027,13.189 3.925,16.208 C7.877,19.227 13.529,18.471 16.548,14.519 C19.567,10.567 18.811,4.916 14.859,1.896" id="path-10"></path>
        <linearGradient x1="36.1364575%" y1="1.79684591%" x2="64.4553941%" y2="100.242988%" id="linearGradient-12">
            <stop stop-color="#FFFFFE" offset="0%"></stop>
            <stop stop-color="#D3D3CF" offset="100%"></stop>
        </linearGradient>
        <path d="M11.031,13.326 C8.697,13.326 6.343,12.588 4.345,11.061 C0.888,8.42 -0.572,4.135 0.223,0.138 L21.853,0.138 C22.451,3.138 21.805,6.371 19.801,8.993 C17.631,11.834 14.35,13.326 11.031,13.326" id="path-13"></path>
        <path d="M2.788,3.838 L0.787,3.838 C0.793,3.277 0.834,2.723 0.907,2.18 C0.912,2.147 0.916,2.114 0.921,2.08 C1.007,1.474 1.133,0.881 1.297,0.303 C2.005,1.395 2.504,2.594 2.788,3.838" id="path-15"></path>
        <path d="M21.853,1.138 L0.223,1.138 C0.243,1.038 0.264,0.938 0.287,0.838 L21.788,0.838 C21.811,0.938 21.833,1.038 21.853,1.138" id="path-17"></path>
        <path d="M15.173,2.741 C11.142,-0.339 5.377,0.433 2.298,4.464 C-0.782,8.495 -0.01,14.259 4.021,17.339 C8.052,20.418 13.816,19.647 16.896,15.616 C19.975,11.585 19.204,5.82 15.173,2.741" id="path-19"></path>
        <linearGradient x1="36.1332376%" y1="1.79410778%" x2="64.4526094%" y2="100.241837%" id="linearGradient-21">
            <stop stop-color="#FFFFFE" offset="0%"></stop>
            <stop stop-color="#D3D3CF" offset="100%"></stop>
        </linearGradient>
        <path d="M15.063,1.884 C11.111,-1.135 5.46,-0.379 2.441,3.573 C-0.578,7.525 0.178,13.176 4.13,16.195 C8.082,19.215 13.733,18.458 16.752,14.506 C19.772,10.554 19.015,4.903 15.063,1.884" id="path-22"></path>
        <linearGradient x1="36.1337207%" y1="1.79412696%" x2="64.4535584%" y2="100.243401%" id="linearGradient-24">
            <stop stop-color="#FFFFFE" offset="0%"></stop>
            <stop stop-color="#D3D3CF" offset="100%"></stop>
        </linearGradient>
        <path d="M2.656,6.74 C2.453,6.389 2.266,6.029 2.096,5.659 C2.08,5.625 2.065,5.592 2.05,5.559 C1.536,4.421 1.175,3.199 0.993,1.92 C0.988,1.886 0.983,1.853 0.979,1.82 C0.905,1.269 0.864,0.708 0.858,0.138 L3.351,0.138 C3.793,2.322 3.576,4.632 2.656,6.74" id="path-25"></path>
        <path d="M22.286,8.838 L0.801,8.838 C1.144,7.358 1.8,5.925 2.782,4.64 C4.952,1.798 8.233,0.306 11.552,0.306 C13.887,0.306 16.24,1.045 18.239,2.571 C20.358,4.191 21.727,6.428 22.286,8.838" id="path-27"></path>
        <path d="M0.731,4.495 C0.446,3.065 0.443,1.582 0.736,0.138 L1.496,0.138 C1.49,0.708 1.449,1.269 1.375,1.82 C1.37,1.853 1.366,1.886 1.361,1.92 C1.235,2.809 1.022,3.67 0.731,4.495" id="path-29"></path>
        <path d="M22.351,1.138 L0.736,1.138 C0.756,1.038 0.777,0.938 0.801,0.838 L22.286,0.838 C22.309,0.938 22.33,1.038 22.351,1.138" id="path-31"></path>
        <path d="M15.281,2.776 C11.25,-0.303 5.486,0.468 2.406,4.499 C-0.674,8.53 0.098,14.294 4.129,17.374 C8.16,20.453 13.924,19.682 17.004,15.651 C20.083,11.62 19.312,5.856 15.281,2.776" id="path-33"></path>
        <linearGradient x1="36.1316046%" y1="1.79400277%" x2="64.4509764%" y2="100.24402%" id="linearGradient-35">
            <stop stop-color="#FFFFFE" offset="0%"></stop>
            <stop stop-color="#D3D3CF" offset="100%"></stop>
        </linearGradient>
        <path d="M14.4726348,1.84963476 C10.5206348,-1.16936524 4.86863476,-0.413365239 1.84963476,3.53863476 C-1.16936524,7.49063476 -0.413365239,13.1426348 3.53863476,16.1616348 C7.49063476,19.1806348 13.1416348,18.4246348 16.1616348,14.4726348 C19.1806348,10.5206348 18.4236348,4.86963476 14.4726348,1.84963476" id="path-36"></path>
        <linearGradient x1="36.1315079%" y1="1.79629071%" x2="64.4509166%" y2="100.242433%" id="linearGradient-38">
            <stop stop-color="#FFFFFE" offset="0%"></stop>
            <stop stop-color="#D3D3CF" offset="100%"></stop>
        </linearGradient>
        <path d="M0.327,4.621 C0.013,3.153 -0.001,1.625 0.296,0.138 L1.141,0.138 C1.135,0.708 1.094,1.269 1.019,1.82 C1.015,1.853 1.01,1.886 1.005,1.92 C0.871,2.854 0.642,3.758 0.327,4.621" id="path-39"></path>
        <path d="M21.856,8.838 L0.361,8.838 C0.702,7.35 1.36,5.909 2.347,4.617 C4.518,1.776 7.799,0.283 11.118,0.283 C13.452,0.283 15.806,1.022 17.804,2.548 C19.93,4.173 21.301,6.419 21.856,8.838" id="path-41"></path>
        <path d="M2.234,6.687 C2.043,6.353 1.867,6.01 1.705,5.659 C1.689,5.626 1.674,5.592 1.659,5.559 C1.145,4.421 0.784,3.199 0.602,1.92 C0.597,1.886 0.592,1.853 0.588,1.82 C0.514,1.269 0.473,0.708 0.467,0.138 L2.921,0.138 C3.355,2.305 3.141,4.594 2.234,6.687" id="path-43"></path>
        <path d="M21.921,1.138 L0.296,1.138 C0.316,1.038 0.338,0.938 0.361,0.838 L21.856,0.838 C21.879,0.938 21.901,1.038 21.921,1.138" id="path-45"></path>
        <path d="M14.846,2.753 C10.815,-0.326 5.051,0.445 1.971,4.476 C-1.108,8.507 -0.337,14.271 3.694,17.351 C7.725,20.431 13.489,19.659 16.569,15.628 C19.648,11.597 18.877,5.833 14.846,2.753" id="path-47"></path>
        <linearGradient x1="36.1333863%" y1="1.79450541%" x2="64.4534163%" y2="100.242235%" id="linearGradient-49">
            <stop stop-color="#FFFFFE" offset="0%"></stop>
            <stop stop-color="#D3D3CF" offset="100%"></stop>
        </linearGradient>
        <path d="M14.4726348,1.84963476 C10.5206348,-1.16936524 4.86863476,-0.413365239 1.84963476,3.53863476 C-1.16936524,7.49163476 -0.413365239,13.1426348 3.53863476,16.1616348 C7.49063476,19.1806348 13.1426348,18.4246348 16.1616348,14.4726348 C19.1806348,10.5206348 18.4246348,4.86963476 14.4726348,1.84963476" id="path-50"></path>
        <linearGradient x1="36.1336815%" y1="1.79684591%" x2="64.4526181%" y2="100.242988%" id="linearGradient-52">
            <stop stop-color="#FFFFFE" offset="0%"></stop>
            <stop stop-color="#D3D3CF" offset="100%"></stop>
        </linearGradient>
        <path d="M2.562,4.838 L0.172,4.838 C0.179,4.277 0.221,3.724 0.295,3.18 C0.299,3.147 0.304,3.114 0.309,3.08 C0.37,2.657 0.451,2.239 0.55,1.829 C0.581,1.699 0.615,1.57 0.65,1.441 C0.698,1.266 0.75,1.092 0.805,0.919 C1.653,2.111 2.243,3.446 2.562,4.838" id="path-53"></path>
        <path d="M0.815,2.838 L0.067,2.838 C0.21,2.212 0.41,1.593 0.667,0.991 C0.672,1.021 0.676,1.05 0.68,1.08 C0.685,1.114 0.69,1.147 0.694,1.18 C0.767,1.723 0.808,2.277 0.815,2.838" id="path-55"></path>
        <path d="M11.807,13.339 C9.473,13.338 7.119,12.6 5.121,11.074 C1.661,8.43 0.201,4.139 1.002,0.138 L22.627,0.138 C23.229,3.142 22.584,6.38 20.578,9.005 C18.408,11.846 15.127,13.339 11.807,13.339" id="path-57"></path>
        <path d="M21.627,1.138 L0.002,1.138 C0.022,1.038 0.044,0.938 0.067,0.838 L21.562,0.838 C21.585,0.938 21.606,1.038 21.627,1.138" id="path-59"></path>
        <path d="M15.552,2.753 C11.521,-0.326 5.757,0.445 2.677,4.476 C-0.402,8.507 0.369,14.271 4.4,17.351 C8.431,20.431 14.195,19.659 17.275,15.628 C20.354,11.597 19.583,5.833 15.552,2.753" id="path-61"></path>
        <linearGradient x1="36.132842%" y1="1.79450541%" x2="64.4528719%" y2="100.242235%" id="linearGradient-63">
            <stop stop-color="#FFFFFE" offset="0%"></stop>
            <stop stop-color="#D3D3CF" offset="100%"></stop>
        </linearGradient>
        <path d="M15.443,1.896 C11.491,-1.123 5.839,-0.367 2.82,3.585 C-0.199,7.538 0.557,13.189 4.509,16.208 C8.461,19.227 14.113,18.471 17.132,14.519 C20.151,10.567 19.395,4.916 15.443,1.896" id="path-64"></path>
        <linearGradient x1="36.1331263%" y1="1.79684591%" x2="64.4520629%" y2="100.242988%" id="linearGradient-66">
            <stop stop-color="#FFFFFE" offset="0%"></stop>
            <stop stop-color="#D3D3CF" offset="100%"></stop>
        </linearGradient>
    </defs>
    <g id="Vector-infographics-design-template-with-3D-paper-label_5-Copy" stroke="none" stroke-width="1" fill="none" fill-rule="evenodd">
        <g id="Group" transform="translate(-1.000000, 4.000000)">
            <path d="M112.858,43.988 L112.858,44 C112.858,51.464 118.908,57.515 126.373,57.515 C133.837,57.515 139.888,51.464 139.888,44 L139.887,43.988 L112.858,43.988" id="Fill-5" fill="#079992"></path>
            <path d="M22.112,43.993 C22.115,51.454 28.165,57.502 35.627,57.502 C43.09,57.502 49.14,51.454 49.142,43.993 L22.112,43.993" id="Fill-6" fill="#335EAC"></path>
            <path d="M117.2,44.028 L117.2,44.023 C117.2,36.559 111.149,30.508 103.685,30.508 C96.221,30.508 90.17,36.559 90.17,44.023 L90.17,44.028 L117.2,44.028" id="Fill-7" fill="#F6AC73"></path>
            <path d="M71.816,44.005 L71.816,44 C71.816,36.536 65.765,30.485 58.301,30.485 C50.836,30.485 44.786,36.536 44.786,44 L44.786,44.005 L71.816,44.005" id="Fill-8" fill="#EB6955"></path>
            <path d="M67.467,44.005 C67.469,51.467 73.519,57.515 80.981,57.515 C88.444,57.515 94.494,51.467 94.496,44.005 L67.467,44.005" id="Fill-9" fill="#42A971"></path>
            <path d="M153.45,45.269 C152.795,45.269 152.253,44.774 152.179,44.138 L152.169,43.988 L152.179,43.838 C152.253,43.203 152.795,42.708 153.45,42.708 C154.156,42.708 154.731,43.282 154.731,43.988 C154.731,44.695 154.156,45.269 153.45,45.269 M9.821,44.138 C9.747,44.774 9.205,45.269 8.55,45.269 C7.844,45.269 7.269,44.695 7.269,43.988 C7.269,43.282 7.844,42.708 8.55,42.708 C9.205,42.708 9.747,43.203 9.821,43.838 L9.831,43.988 L9.821,44.138 M153.45,42.408 C152.629,42.408 151.953,43.037 151.877,43.838 L10.123,43.838 C10.047,43.037 9.371,42.408 8.55,42.408 C7.678,42.408 6.969,43.117 6.969,43.988 C6.969,44.86 7.678,45.569 8.55,45.569 C9.371,45.569 10.047,44.94 10.123,44.138 L151.877,44.138 C151.953,44.94 152.629,45.569 153.45,45.569 C154.322,45.569 155.031,44.86 155.031,43.988 C155.031,43.117 154.322,42.408 153.45,42.408" id="Fill-10" fill="#332D39"></path>
            <g id="Group-15" transform="translate(116.000000, 44.000000)">
                <mask id="mask-2" fill="white">
                    <use xlink:href="#path-1"></use>
                </mask>
                <g id="Clip-14"></g>
                <path d="M11.224,13.339 C8.889,13.338 6.536,12.6 4.537,11.074 C1.077,8.43 -0.382,4.139 0.418,0.138 L22.043,0.138 C22.645,3.142 22,6.38 19.994,9.005 C17.824,11.846 14.543,13.339 11.224,13.339" id="Fill-13" mask="url(#mask-2)"></path>
            </g>
            <g id="Group-18" transform="translate(116.000000, 42.000000)">
                <mask id="mask-4" fill="white">
                    <use xlink:href="#path-3"></use>
                </mask>
                <g id="Clip-17"></g>
                <path d="M1.199,1.838 L0.483,1.838 C0.622,1.233 0.813,0.635 1.058,0.051 C1.059,0.061 1.06,0.071 1.062,0.08 C1.067,0.114 1.071,0.147 1.076,0.18 C1.15,0.724 1.192,1.277 1.199,1.838" id="Fill-16" mask="url(#mask-4)"></path>
            </g>
            <g id="Group-21" transform="translate(116.000000, 43.000000)">
                <mask id="mask-6" fill="white">
                    <use xlink:href="#path-5"></use>
                </mask>
                <g id="Clip-20"></g>
                <path d="M22.043,1.138 L0.418,1.138 C0.438,1.038 0.46,0.938 0.483,0.838 L21.978,0.838 C22.001,0.938 22.023,1.038 22.043,1.138" id="Fill-19" mask="url(#mask-6)"></path>
            </g>
            <g id="Group-24" transform="translate(117.000000, 34.000000)">
                <mask id="mask-8" fill="white">
                    <use xlink:href="#path-7"></use>
                </mask>
                <g id="Clip-23"></g>
                <path d="M14.968,2.753 C10.937,-0.326 5.173,0.445 2.093,4.476 C-0.986,8.507 -0.215,14.271 3.816,17.351 C7.847,20.431 13.611,19.659 16.691,15.628 C19.77,11.597 18.999,5.833 14.968,2.753" id="Fill-22" fill="url(#linearGradient-9)" mask="url(#mask-8)"></path>
            </g>
            <g id="Group-27" transform="translate(117.000000, 35.000000)">
                <mask id="mask-11" fill="white">
                    <use xlink:href="#path-10"></use>
                </mask>
                <g id="Clip-26"></g>
                <path d="M14.4726348,1.84963476 C10.5206348,-1.16936524 4.86963476,-0.413365239 1.84963476,3.53863476 C-1.16936524,7.49163476 -0.413365239,13.1426348 3.53863476,16.1616348 C7.49063476,19.1806348 13.1426348,18.4246348 16.1616348,14.4726348 C19.1806348,10.5206348 18.4246348,4.86963476 14.4726348,1.84963476" id="Fill-25" fill="url(#linearGradient-12)" mask="url(#mask-11)"></path>
            </g>
            <g id="Group-32" transform="translate(25.000000, 44.000000)">
                <mask id="mask-14" fill="white">
                    <use xlink:href="#path-13"></use>
                </mask>
                <g id="Clip-31"></g>
                <path d="M11.031,13.326 C8.697,13.326 6.343,12.588 4.345,11.061 C0.888,8.42 -0.572,4.135 0.223,0.138 L21.853,0.138 C22.451,3.138 21.805,6.371 19.801,8.993 C17.631,11.834 14.35,13.326 11.031,13.326" id="Fill-30" mask="url(#mask-14)"></path>
            </g>
            <g id="Group-35" transform="translate(44.000000, 40.000000)">
                <mask id="mask-16" fill="white">
                    <use xlink:href="#path-15"></use>
                </mask>
                <g id="Clip-34"></g>
                <path d="M2.788,3.838 L0.787,3.838 C0.793,3.277 0.834,2.723 0.907,2.18 C0.912,2.147 0.916,2.114 0.921,2.08 C1.007,1.474 1.133,0.881 1.297,0.303 C2.005,1.395 2.504,2.594 2.788,3.838" id="Fill-33" mask="url(#mask-16)"></path>
            </g>
            <g id="Group-38" transform="translate(25.000000, 43.000000)">
                <mask id="mask-18" fill="white">
                    <use xlink:href="#path-17"></use>
                </mask>
                <g id="Clip-37"></g>
                <path d="M21.853,1.138 L0.223,1.138 C0.243,1.038 0.264,0.938 0.287,0.838 L21.788,0.838 C21.811,0.938 21.833,1.038 21.853,1.138" id="Fill-36" mask="url(#mask-18)"></path>
            </g>
            <g id="Group-41" transform="translate(26.000000, 34.000000)">
                <mask id="mask-20" fill="white">
                    <use xlink:href="#path-19"></use>
                </mask>
                <g id="Clip-40"></g>
                <path d="M14.7617986,2.8867986 C10.7307986,-0.193201405 4.9657986,0.578798595 1.8867986,4.6097986 C-1.1932014,8.6407986 -0.421201405,14.4047986 3.6097986,17.4847986 C7.6407986,20.5637986 13.4047986,19.7927986 16.4847986,15.7617986 C19.5637986,11.7307986 18.7927986,5.9657986 14.7617986,2.8867986" id="Fill-39" fill="url(#linearGradient-21)" mask="url(#mask-20)"></path>
            </g>
            <g id="Group-44" transform="translate(26.000000, 35.000000)">
                <mask id="mask-23" fill="white">
                    <use xlink:href="#path-22"></use>
                </mask>
                <g id="Clip-43"></g>
                <path d="M15.4716348,1.84963476 C11.5196348,-1.16936524 5.86863476,-0.413365239 2.84963476,3.53863476 C-0.169365239,7.49063476 0.586634761,13.1416348 4.53863476,16.1606348 C8.49063476,19.1806348 14.1416348,18.4236348 17.1606348,14.4716348 C20.1806348,10.5196348 19.4236348,4.86863476 15.4716348,1.84963476" id="Fill-42" fill="url(#linearGradient-24)" mask="url(#mask-23)"></path>
            </g>
            <g id="Group-49" transform="translate(112.000000, 44.000000)">
                <mask id="mask-26" fill="white">
                    <use xlink:href="#path-25"></use>
                </mask>
                <g id="Clip-48"></g>
                <path d="M2.656,6.74 C2.453,6.389 2.266,6.029 2.096,5.659 C2.08,5.625 2.065,5.592 2.05,5.559 C1.536,4.421 1.175,3.199 0.993,1.92 C0.988,1.886 0.983,1.853 0.979,1.82 C0.905,1.269 0.864,0.708 0.858,0.138 L3.351,0.138 C3.793,2.322 3.576,4.632 2.656,6.74" id="Fill-47" mask="url(#mask-26)"></path>
            </g>
            <g id="Group-52" transform="translate(93.000000, 35.000000)">
                <mask id="mask-28" fill="white">
                    <use xlink:href="#path-27"></use>
                </mask>
                <g id="Clip-51"></g>
                <path d="M22.286,8.838 L0.801,8.838 C1.144,7.358 1.8,5.925 2.782,4.64 C4.952,1.798 8.233,0.306 11.552,0.306 C13.887,0.306 16.24,1.045 18.239,2.571 C20.358,4.191 21.727,6.428 22.286,8.838" id="Fill-50" mask="url(#mask-28)"></path>
            </g>
            <g id="Group-55" transform="translate(93.000000, 44.000000)">
                <mask id="mask-30" fill="white">
                    <use xlink:href="#path-29"></use>
                </mask>
                <g id="Clip-54"></g>
                <path d="M0.731,4.495 C0.446,3.065 0.443,1.582 0.736,0.138 L1.496,0.138 C1.49,0.708 1.449,1.269 1.375,1.82 C1.37,1.853 1.366,1.886 1.361,1.92 C1.235,2.809 1.022,3.67 0.731,4.495" id="Fill-53" mask="url(#mask-30)"></path>
            </g>
            <g id="Group-58" transform="translate(93.000000, 43.000000)">
                <mask id="mask-32" fill="white">
                    <use xlink:href="#path-31"></use>
                </mask>
                <g id="Clip-57"></g>
                <path d="M22.351,1.138 L0.736,1.138 C0.756,1.038 0.777,0.938 0.801,0.838 L22.286,0.838 C22.309,0.938 22.33,1.038 22.351,1.138" id="Fill-56" mask="url(#mask-32)"></path>
            </g>
            <g id="Group-61" transform="translate(94.000000, 34.000000)">
                <mask id="mask-34" fill="white">
                    <use xlink:href="#path-33"></use>
                </mask>
                <g id="Clip-60"></g>
                <path d="M15.281,2.776 C11.25,-0.303 5.486,0.468 2.406,4.499 C-0.674,8.53 0.098,14.294 4.129,17.374 C8.16,20.453 13.924,19.682 17.004,15.651 C20.083,11.62 19.312,5.856 15.281,2.776" id="Fill-59" fill="url(#linearGradient-35)" mask="url(#mask-34)"></path>
            </g>
            <g id="Group-64" transform="translate(95.000000, 35.000000)">
                <mask id="mask-37" fill="white">
                    <use xlink:href="#path-36"></use>
                </mask>
                <g id="Clip-63"></g>
                <path d="M14.4726348,1.84963476 C10.5206348,-1.16936524 4.86863476,-0.413365239 1.84963476,3.53863476 C-1.16936524,7.49063476 -0.413365239,13.1426348 3.53863476,16.1616348 C7.49063476,19.1806348 13.1416348,18.4246348 16.1616348,14.4726348 C19.1806348,10.5206348 18.4236348,4.86963476 14.4726348,1.84963476" id="Fill-62" fill="url(#linearGradient-38)" mask="url(#mask-37)"></path>
            </g>
            <g id="Group-69" transform="translate(48.000000, 44.000000)">
                <mask id="mask-40" fill="white">
                    <use xlink:href="#path-39"></use>
                </mask>
                <g id="Clip-68"></g>
                <path d="M0.327,4.621 C0.013,3.153 -0.001,1.625 0.296,0.138 L1.141,0.138 C1.135,0.708 1.094,1.269 1.019,1.82 C1.015,1.853 1.01,1.886 1.005,1.92 C0.871,2.854 0.642,3.758 0.327,4.621" id="Fill-67" mask="url(#mask-40)"></path>
            </g>
            <g id="Group-72" transform="translate(48.000000, 35.000000)">
                <mask id="mask-42" fill="white">
                    <use xlink:href="#path-41"></use>
                </mask>
                <g id="Clip-71"></g>
                <path d="M21.856,8.838 L0.361,8.838 C0.702,7.35 1.36,5.909 2.347,4.617 C4.518,1.776 7.799,0.283 11.118,0.283 C13.452,0.283 15.806,1.022 17.804,2.548 C19.93,4.173 21.301,6.419 21.856,8.838" id="Fill-70" mask="url(#mask-42)"></path>
            </g>
            <g id="Group-75" transform="translate(67.000000, 44.000000)">
                <mask id="mask-44" fill="white">
                    <use xlink:href="#path-43"></use>
                </mask>
                <g id="Clip-74"></g>
                <path d="M2.234,6.687 C2.043,6.353 1.867,6.01 1.705,5.659 C1.689,5.626 1.674,5.592 1.659,5.559 C1.145,4.421 0.784,3.199 0.602,1.92 C0.597,1.886 0.592,1.853 0.588,1.82 C0.514,1.269 0.473,0.708 0.467,0.138 L2.921,0.138 C3.355,2.305 3.141,4.594 2.234,6.687" id="Fill-73" mask="url(#mask-44)"></path>
            </g>
            <g id="Group-78" transform="translate(48.000000, 43.000000)">
                <mask id="mask-46" fill="white">
                    <use xlink:href="#path-45"></use>
                </mask>
                <g id="Clip-77"></g>
                <path d="M21.921,1.138 L0.296,1.138 C0.316,1.038 0.338,0.938 0.361,0.838 L21.856,0.838 C21.879,0.938 21.901,1.038 21.921,1.138" id="Fill-76" mask="url(#mask-46)"></path>
            </g>
            <g id="Group-81" transform="translate(49.000000, 34.000000)">
                <mask id="mask-48" fill="white">
                    <use xlink:href="#path-47"></use>
                </mask>
                <g id="Clip-80"></g>
                <path d="M14.846,2.753 C10.815,-0.326 5.051,0.445 1.971,4.476 C-1.108,8.507 -0.337,14.271 3.694,17.351 C7.725,20.431 13.489,19.659 16.569,15.628 C19.648,11.597 18.877,5.833 14.846,2.753" id="Fill-79" fill="url(#linearGradient-49)" mask="url(#mask-48)"></path>
            </g>
            <g id="Group-84" transform="translate(49.000000, 35.000000)">
                <mask id="mask-51" fill="white">
                    <use xlink:href="#path-50"></use>
                </mask>
                <g id="Clip-83"></g>
                <path d="M14.4726348,1.84963476 C10.5206348,-1.16936524 4.86863476,-0.413365239 1.84963476,3.53863476 C-1.16936524,7.49163476 -0.413365239,13.1426348 3.53863476,16.1616348 C7.49063476,19.1806348 13.1426348,18.4246348 16.1616348,14.4726348 C19.1806348,10.5206348 18.4246348,4.86963476 14.4726348,1.84963476" id="Fill-82" fill="url(#linearGradient-52)" mask="url(#mask-51)"></path>
            </g>
            <g id="Group-89" transform="translate(90.000000, 39.000000)">
                <mask id="mask-54" fill="white">
                    <use xlink:href="#path-53"></use>
                </mask>
                <g id="Clip-88"></g>
                <path d="M2.562,4.838 L0.172,4.838 C0.179,4.277 0.221,3.724 0.295,3.18 C0.299,3.147 0.304,3.114 0.309,3.08 C0.37,2.657 0.451,2.239 0.55,1.829 C0.581,1.699 0.615,1.57 0.65,1.441 C0.698,1.266 0.75,1.092 0.805,0.919 C1.653,2.111 2.243,3.446 2.562,4.838" id="Fill-87" mask="url(#mask-54)"></path>
            </g>
            <g id="Group-92" transform="translate(71.000000, 41.000000)">
                <mask id="mask-56" fill="white">
                    <use xlink:href="#path-55"></use>
                </mask>
                <g id="Clip-91"></g>
                <path d="M0.815,2.838 L0.067,2.838 C0.21,2.212 0.41,1.593 0.667,0.991 C0.672,1.021 0.676,1.05 0.68,1.08 C0.685,1.114 0.69,1.147 0.694,1.18 C0.767,1.723 0.808,2.277 0.815,2.838" id="Fill-90" mask="url(#mask-56)"></path>
            </g>
            <g id="Group-95" transform="translate(70.000000, 44.000000)">
                <mask id="mask-58" fill="white">
                    <use xlink:href="#path-57"></use>
                </mask>
                <g id="Clip-94"></g>
                <path d="M11.807,13.339 C9.473,13.338 7.119,12.6 5.121,11.074 C1.661,8.43 0.201,4.139 1.002,0.138 L22.627,0.138 C23.229,3.142 22.584,6.38 20.578,9.005 C18.408,11.846 15.127,13.339 11.807,13.339" id="Fill-93" mask="url(#mask-58)"></path>
            </g>
            <g id="Group-98" transform="translate(71.000000, 43.000000)">
                <mask id="mask-60" fill="white">
                    <use xlink:href="#path-59"></use>
                </mask>
                <g id="Clip-97"></g>
                <path d="M21.627,1.138 L0.002,1.138 C0.022,1.038 0.044,0.938 0.067,0.838 L21.562,0.838 C21.585,0.938 21.606,1.038 21.627,1.138" id="Fill-96" mask="url(#mask-60)"></path>
            </g>
            <g id="Group-101" transform="translate(71.000000, 34.000000)">
                <mask id="mask-62" fill="white">
                    <use xlink:href="#path-61"></use>
                </mask>
                <g id="Clip-100"></g>
                <path d="M15.552,2.753 C11.521,-0.326 5.757,0.445 2.677,4.476 C-0.402,8.507 0.369,14.271 4.4,17.351 C8.431,20.431 14.195,19.659 17.275,15.628 C20.354,11.597 19.583,5.833 15.552,2.753" id="Fill-99" fill="url(#linearGradient-63)" mask="url(#mask-62)"></path>
            </g>
            <g id="Group-104" transform="translate(71.000000, 35.000000)">
                <mask id="mask-65" fill="white">
                    <use xlink:href="#path-64"></use>
                </mask>
                <g id="Clip-103"></g>
                <path d="M15.443,1.896 C11.491,-1.123 5.839,-0.367 2.82,3.585 C-0.199,7.538 0.557,13.189 4.509,16.208 C8.461,19.227 14.113,18.471 17.132,14.519 C20.151,10.567 19.395,4.916 15.443,1.896" id="Fill-102" fill="url(#linearGradient-66)" mask="url(#mask-65)"></path>
            </g>
            <polygon id="Fill-105" fill="#332D39" points="35.517 31.704 35.677 31.704 35.677 27.704 35.517 27.704"></polygon>
            <polygon id="Fill-106" fill="#332D39" points="80.875 31.77 81.035 31.77 81.035 20.77 80.875 20.77"></polygon>
            <polygon id="Fill-107" fill="#332D39" points="126.21 31.837 126.37 31.837 126.37 27.837 126.21 27.837"></polygon>
            <polygon id="Fill-108" fill="#332D39" points="104.625 63.219 104.785 63.219 104.785 56.009 104.625 56.009"></polygon>
            <polygon id="Fill-109" fill="#332D39" points="58.196 63.219 58.356 63.219 58.356 56.009 58.196 56.009"></polygon>
            <polyline id="Fill-110" fill="#332D39" points="34.479 27.748 35.597 26.182 36.715 27.748 34.479 27.748"></polyline>
            <polyline id="Fill-111" fill="#332D39" points="79.882 21.348 81 19.782 82.118 21.348 79.882 21.348"></polyline>
            <polyline id="Fill-112" fill="#332D39" points="59.419 63.202 58.301 64.768 57.182 63.202 59.419 63.202"></polyline>
            <polyline id="Fill-113" fill="#332D39" points="105.823 63.202 104.705 64.768 103.587 63.202 105.823 63.202"></polyline>
            <polyline id="Fill-114" fill="#332D39" points="125.172 27.948 126.29 26.382 127.408 27.948 125.172 27.948"></polyline>
            <path d="M36.284,32.498 C36.284,32.878 35.976,33.185 35.597,33.185 C35.217,33.185 34.91,32.878 34.91,32.498 C34.91,32.119 35.217,31.811 35.597,31.811 C35.976,31.811 36.284,32.119 36.284,32.498" id="Fill-115" fill="#335EAC"></path>
            <path d="M81.642,32.565 C81.642,32.944 81.334,33.252 80.955,33.252 C80.575,33.252 80.268,32.944 80.268,32.565 C80.268,32.186 80.575,31.878 80.955,31.878 C81.334,31.878 81.642,32.186 81.642,32.565" id="Fill-116" fill="#42A971"></path>
            <path d="M126.977,32.632 C126.977,33.011 126.669,33.318 126.29,33.318 C125.911,33.318 125.603,33.011 125.603,32.632 C125.603,32.252 125.911,31.945 126.29,31.945 C126.669,31.945 126.977,32.252 126.977,32.632" id="Fill-117" fill="#079992"></path>
            <path d="M58.987,55.578 C58.987,55.957 58.68,56.265 58.301,56.265 C57.921,56.265 57.614,55.957 57.614,55.578 C57.614,55.199 57.921,54.891 58.301,54.891 C58.68,54.891 58.987,55.199 58.987,55.578" id="Fill-118" fill="#EB6955"></path>
            <path d="M105.392,55.578 C105.392,55.957 105.084,56.265 104.705,56.265 C104.326,56.265 104.018,55.957 104.018,55.578 C104.018,55.199 104.326,54.891 104.705,54.891 C105.084,54.891 105.392,55.199 105.392,55.578" id="Fill-119" fill="#F6AC73"></path>
            <text id="1" font-family="LibreBaskerville-Bold, Libre Baskerville" font-size="6" font-weight="bold" letter-spacing="0.166666657" fill="#25272D">
                <tspan x="34.1086667" y="46">1</tspan>
            </text>
            <text id="2" font-family="LibreBaskerville-Bold, Libre Baskerville" font-size="6" font-weight="bold" letter-spacing="0.166666642" fill="#25272D">
                <tspan x="56.4636667" y="46">2</tspan>
            </text>
            <text id="3" font-family="LibreBaskerville-Bold, Libre Baskerville" font-size="6" font-weight="bold" letter-spacing="0.166666642" fill="#25272D">
                <tspan x="79.0056667" y="46">3</tspan>
            </text>
            <text id="4" font-family="LibreBaskerville-Bold, Libre Baskerville" font-size="6" font-weight="bold" letter-spacing="0.166666642" fill="#25272D">
                <tspan x="101.424667" y="46">4</tspan>
            </text>
            <text id="5" font-family="LibreBaskerville-Bold, Libre Baskerville" font-size="6" font-weight="bold" letter-spacing="0.166666642" fill="#25272D">
                <tspan x="124.131667" y="46">5</tspan>
            </text>
            <path d="M153.45,43.221 C153.078,43.221 152.767,43.486 152.697,43.838 L152.683,43.988 L152.697,44.138 C152.767,44.49 153.078,44.756 153.45,44.756 C153.874,44.756 154.217,44.412 154.217,43.988 C154.217,43.565 153.874,43.221 153.45,43.221" id="Fill-120" fill="#332D39"></path>
            <path d="M8.55,43.221 C8.126,43.221 7.783,43.565 7.783,43.988 C7.783,44.412 8.126,44.756 8.55,44.756 C8.922,44.756 9.233,44.49 9.303,44.138 L9.317,43.988 L9.303,43.838 C9.233,43.486 8.922,43.221 8.55,43.221" id="Fill-121" fill="#332D39"></path>
        </g>
        <text id="Strategy" font-family="LibreBaskerville-Italic, Libre Baskerville" font-size="3" font-style="italic" font-weight="normal" letter-spacing="0.1666666" fill="#25272D">
            <tspan x="26.0508336" y="16">Strategy</tspan>
        </text>
        <text id="Creation-Of-Concept" font-family="LibreBaskerville-Italic, Libre Baskerville" font-size="3" font-style="italic" font-weight="normal" letter-spacing="0.1666666" fill="#25272D">
            <tspan x="40.7941673" y="74">Creation Of Concept</tspan>
        </text>
        <text id="Brand-Growth" font-family="LibreBaskerville-Italic, Libre Baskerville" font-size="3" font-style="italic" font-weight="normal" letter-spacing="0.1666666" fill="#25272D">
            <tspan x="114.3465" y="16">Brand Growth</tspan>
        </text>
        <text id="lorem-ipsum-dolom-se" font-family="Effra-Light, Effra" font-size="2" font-weight="300" letter-spacing="0.1666666" fill="#25272D">
            <tspan x="13.4823344" y="20">lorem ipsum dolom set amet dolem </tspan>
            <tspan x="11.4080013" y="23">lorem ipsum albeit set amet del provino </tspan>
            <tspan x="14.2386678" y="26">ipsum albeit set amet del provino.</tspan>
        </text>
        <text id="Product-Development" font-family="LibreBaskerville-Italic, Libre Baskerville" font-size="3" font-style="italic" font-weight="normal" letter-spacing="0.1666666" fill="#25272D">
            <tspan x="88.5096673" y="74">Product Development</tspan>
        </text>
        <text id="lorem-ipsum-dolom-se" font-family="Effra-Light, Effra" font-size="2" font-weight="300" letter-spacing="0.1666666" fill="#25272D">
            <tspan x="60.4823344" y="16">lorem ipsum dolom set amet dolem </tspan>
            <tspan x="58.4080013" y="19">lorem ipsum albeit set amet del provino </tspan>
            <tspan x="61.2386678" y="22">ipsum albeit set amet del provino.</tspan>
        </text>
        <text id="Design" font-family="LibreBaskerville-Italic, Libre Baskerville" font-size="3" font-style="italic" font-weight="normal" letter-spacing="0.1666666" fill="#25272D">
            <tspan x="74.2165002" y="12">Design</tspan>
        </text>
        <text id="lorem-ipsum-dolom-se" font-family="Effra-Light, Effra" font-size="2" font-weight="300" letter-spacing="0.1666666" fill="#25272D">
            <tspan x="35.8643346" y="78">lorem ipsum dolom set amet dolem lorem </tspan>
            <tspan x="36.7830013" y="81">ipsum albeit set amet del provino ipsum </tspan>
            <tspan x="42.9816676" y="84">albeit set amet del provino.</tspan>
        </text>
        <text id="lorem-ipsum-dolom-se" font-family="Effra-Light, Effra" font-size="2" font-weight="300" letter-spacing="0.1666666" fill="#25272D">
            <tspan x="106.482334" y="20">lorem ipsum dolom set amet dolem </tspan>
            <tspan x="104.408001" y="23">lorem ipsum albeit set amet del provino </tspan>
            <tspan x="107.238668" y="26">ipsum albeit set amet del provino.</tspan>
        </text>
        <text id="lorem-ipsum-dolom-se" font-family="Effra-Light, Effra" font-size="2" font-weight="300" letter-spacing="0.1666666" fill="#25272D">
            <tspan x="88.4823344" y="78">lorem ipsum dolom set amet dolem </tspan>
            <tspan x="86.4080013" y="81">lorem ipsum albeit set amet del provino </tspan>
            <tspan x="89.2386678" y="84">ipsum albeit set amet del provino.</tspan>
        </text>
    </g>
</svg>