<svg width="251px" height="241px" viewBox="0 0 251 241" version="1.1" xmlns="http://www.w3.org/2000/svg" xmlns:xlink="http://www.w3.org/1999/xlink" id="circle-delivery">
    
    <g attr-id="Home" stroke="none" stroke-width="1" fill="none" fill-rule="evenodd">
        <g attr-id="v1---Horizontal-Portfolio-Copy" transform="translate(-1379.000000, -4975.000000)" fill="#F5A623">
            <g attr-id="Section---Process" transform="translate(307.000000, 4735.000000)">
                <g attr-id="Illustration" transform="translate(0.000000, 197.000000)">
                    <g attr-id="Lines">
                        <g attr-id="Delivery" transform="translate(1072.000000, 43.000000)">
                            <g attr-id="Circle---Brush" transform="translate(127.000000, 121.000000) rotate(-90.000000) translate(-127.000000, -121.000000) translate(6.000000, -6.000000)">
                                <path d="M164.019424,246.890357 C147.243768,252.987733 127.946778,254.963346 108.741617,252.400034 C89.5469505,249.776378 70.3076817,242.595432 54.1302194,230.9464 C37.9553806,219.355088 24.4094452,204.090658 15.3132301,186.874228 C6.23013333,169.647303 1.34750968,150.825196 0.313789247,132.75083 C-1.35747957,111.03483 3.70355269,88.3690667 13.9305634,68.1275613 C24.600972,48.1169376 40.6131441,30.5017118 60.4820903,18.7162495 C65.280757,15.4917763 70.6461333,13.2826581 75.7937462,10.6931097 C78.4751226,9.63052903 81.1879828,8.65190538 83.8903484,7.64442151 L87.9570151,6.17255054 L92.1364989,5.0679914 C94.9254452,4.35435699 97.7038968,3.57250753 100.505961,2.94807742 L109.024972,1.61263656 C110.446994,1.41586237 111.85852,1.13250753 113.285789,1.01969032 L117.572843,0.778313978 C120.430004,0.636636559 123.287166,0.452980645 126.13908,0.37951828 L134.684327,0.78356129 L138.945144,1.01706667 L143.16923,1.63887312 C145.979166,2.07177634 148.783854,2.50467957 151.585918,2.93495914 C154.33551,3.63547527 157.079854,4.33336774 159.818951,5.02863656 L163.914477,6.09908817 L167.889316,7.53685161 C170.528714,8.51285161 173.165488,9.48622796 175.794391,10.4569806 C178.320972,11.6691097 180.839682,12.8786151 183.355768,14.0854968 C184.604628,14.6994323 185.874477,15.2818839 187.099725,15.9325505 L190.667897,18.0839484 C190.022477,19.0809376 182.977961,16.9164215 188.852327,21.1614968 C191.77508,23.2761634 194.451209,24.918572 196.4688,26.8076043 C198.525746,28.6362925 200.246865,30.2367226 201.687252,31.6377548 C203.146004,33.0151742 204.279424,34.2430452 205.095381,35.4131957 C205.942822,36.5413677 206.575123,37.4858839 207.036886,38.2834753 C208.876069,41.4659699 208.026004,42.3055398 207.210047,43.1713462 C206.77452,43.6226151 203.08566,40.1279054 199.858563,37.3940559 C196.4688,34.8517333 193.761187,32.8315183 196.106735,35.3292387 C195.094004,34.5762495 194.036671,33.7891527 192.953101,32.9810667 C191.877402,32.1572387 190.754477,31.3439054 189.518735,30.6591312 C187.097101,29.2213677 184.607252,27.7416258 182.164628,26.2881204 C179.664284,24.9395613 177.074735,23.874357 174.72394,22.7645505 C173.538047,22.2293247 172.396757,21.7124645 171.30794,21.2244645 C170.192886,20.8073032 169.109316,20.4767226 168.112327,20.1408946 C160.104929,17.5277333 156.904069,16.8350882 166.071123,20.8177978 C167.51151,21.7072172 170.247983,22.6648516 173.322908,24.3807226 C176.424069,26.0310022 180.251983,27.618314 183.67323,29.9481204 C185.420585,31.0395613 187.16794,32.1336258 188.849703,33.1857118 C190.520972,34.2535398 191.942994,35.5470022 193.317789,36.6253247 C196.001789,38.8764215 198.231897,40.6893677 199.076714,42.2137118 C200.913273,45.0892387 199.097703,44.6484645 197.345101,44.2601634 C195.574133,43.8666151 193.871381,43.5202925 195.605617,46.2961204 C196.757402,47.3455828 198.197789,48.6574108 199.782477,50.0977978 C200.569574,50.8245505 201.424886,51.5486796 202.235596,52.3567656 C203.004327,53.2015828 203.7888,54.0673892 204.573273,54.9331957 C206.142219,56.6674323 207.708542,58.3990452 209.146305,59.986357 C210.424026,61.702228 211.588929,63.2606796 212.520327,64.5095398 C215.222692,70.1084215 205.995295,61.7573247 209.6448,66.6320774 C219.845574,81.4373677 229.35108,104.25268 229.474391,128.411303 C228.878822,128.411303 228.283252,130.051088 227.761144,130.053712 C227.501402,130.056335 227.260026,129.647045 227.044886,128.421798 C226.769402,127.32511 226.4808,125.506916 226.186951,122.607776 C224.722951,97.1950452 213.026692,72.6140129 194.217703,55.3634753 C184.869617,46.7159054 173.866004,39.8734108 161.98609,35.3528516 C150.111424,30.8165505 137.373574,28.6205505 124.622606,28.8251957 C99.0839398,29.0508301 74.1041118,39.8734108 56.176671,57.9057978 C47.1958968,66.8839484 39.9572301,77.5858409 35.0221333,89.2401204 C30.068671,100.889153 27.4371441,113.472206 27.2613591,126.139217 C27.0645849,138.803604 29.252714,151.441755 33.7654022,163.198357 C38.2597247,174.957583 45.0576172,185.83526 53.6317247,195.054787 C70.7405849,213.604034 95.040886,225.051045 120.115166,226.360249 C132.650994,227.089626 145.299639,225.468206 157.153316,221.506486 C169.014865,217.563131 180.102434,211.303088 189.649918,203.211733 C208.839338,187.071002 221.443381,163.528938 224.17723,138.667174 C224.604886,132.973841 225.037789,129.757239 225.454951,128.406056 C225.764542,126.81612 226.252542,127.611088 226.58837,129.408292 C226.932069,131.231733 227.252155,134.356508 227.561746,138.184422 C227.658822,140.094443 227.472542,142.146142 227.417445,144.308034 C227.370219,145.391604 227.322994,146.496163 227.275768,147.608594 L227.197058,149.292981 L226.937316,150.953755 C227.220671,149.487131 227.367596,148.377325 227.566994,147.464292 C227.776886,146.556508 228.034004,145.840249 228.29637,145.123991 C228.815854,143.691475 229.337961,142.230099 229.508499,139.215518 C230.397918,139.30997 231.111553,142.400637 231.211252,148.731518 C231.219123,151.885153 230.515983,155.731432 229.786606,160.425153 C229.227768,162.712981 228.459037,165.158228 227.658822,167.805497 C227.2128,169.109454 226.91108,170.534099 226.276155,171.872163 C225.672714,173.228594 225.050908,174.627002 224.405488,176.070013 L226.467682,171.796077 C227.157703,170.371432 227.59323,168.839217 228.170434,167.36997 C229.180542,164.376378 230.536972,161.487733 231.177144,158.373454 C233.328542,152.381024 232.90351,158.824723 234.039553,159.186787 C233.375768,162.3824 231.995725,165.352378 231.300456,167.690056 C230.531725,170.006744 230.11194,171.594056 230.387424,171.706873 C230.935768,171.935131 232.037703,172.391647 232.586047,172.619905 C233.160628,171.053583 233.876886,169.096335 234.666606,166.942314 C235.458951,164.790916 236.374606,162.455862 236.904585,160.002744 C237.526391,157.578486 238.150822,155.154228 238.722778,152.931991 C239.315725,150.715002 239.452155,148.616077 239.759123,146.98154 C239.504628,148.629196 239.252757,150.276852 239.014004,151.822185 C238.649316,153.341282 238.308241,154.758056 238.017015,155.978056 C237.466047,158.418056 237.190563,160.07883 237.479166,160.160163 C238.051123,160.32283 239.19766,160.648163 239.772241,160.81083 C238.245273,167.495905 235.005058,175.508551 230.959381,183.046314 C230.075209,184.99569 228.828972,186.750916 227.732284,188.553368 C226.614606,190.342701 225.515295,192.113669 224.442219,193.834787 C222.141273,197.174701 219.772112,200.207647 217.86209,203.059561 L219.250004,204.18511 C221.422391,201.48012 223.927983,198.452422 226.278778,195.057411 C227.357101,193.29169 228.464284,191.481368 229.584585,189.647432 C230.670778,187.795131 231.890778,185.982185 232.743467,183.972465 C236.660585,176.193325 239.648929,167.9944 241.488112,161.29883 C240.989617,164.777798 240.506865,166.464809 240.596069,167.417196 C240.648542,168.361712 241.068327,168.51126 241.632413,168.708034 C240.790219,171.229368 239.908671,173.74283 238.993015,176.240551 L235.511424,183.421497 L233.72209,186.984422 L231.6048,190.366314 L227.338735,197.090744 L222.521703,203.424249 C221.713617,204.473712 220.952757,205.562529 220.115811,206.588378 L217.48166,209.568852 C215.747424,211.573325 214.010563,213.577798 212.265832,215.592766 C210.392542,217.473927 208.542865,219.386572 206.711553,221.346443 L210.660155,217.757282 C211.982477,216.566142 213.307424,215.380249 214.461832,214.021196 C216.830994,211.36868 219.318219,208.815862 221.561445,206.063647 C220.795338,207.729669 219.496628,209.411432 218.079854,211.355561 C216.602735,213.239346 215.031166,215.432723 213.00308,217.455561 C210.961875,219.462658 208.72652,221.56683 206.36523,223.718228 C203.998692,225.861755 201.207123,227.69569 198.515252,229.7264 C187.451295,237.5344 174.204456,243.353669 164.019424,246.890357" attr-id="Fill-3" transform="translate(120.815988, 126.937418) rotate(-150.000000) translate(-120.815988, -126.937418) "></path>
                            </g>
                        </g>
                    </g>
                </g>
            </g>
        </g>
    </g>
</svg>