<?xml version="1.0" encoding="UTF-8"?>
<svg width="244px" height="241px" viewBox="0 0 244 241" version="1.1" xmlns="http://www.w3.org/2000/svg" xmlns:xlink="http://www.w3.org/1999/xlink" id="circle-design">    
    <g attr-id="Home" stroke="none" stroke-width="1" fill="none" fill-rule="evenodd">
        <g attr-id="v1---Horizontal-Portfolio-Copy" transform="translate(-670.000000, -4975.000000)" fill="#CE5B69">
            <g attr-id="Section---Process" transform="translate(307.000000, 4735.000000)">
                <g attr-id="Illustration" transform="translate(0.000000, 197.000000)">
                    <g attr-id="Lines">
                        <g attr-id="Design" transform="translate(362.333333, 43.000000)">
                            <g attr-id="Circle---Brush" transform="translate(0.683220, 0.118222)">
                                <path d="M85.7490671,31.0395428 C87.0274877,30.432006 88.3757878,29.8356985 89.7704085,29.2506201 C91.596025,28.4764816 93.4891675,27.6709916 95.5149506,27.1958972 C96.1009808,27.0560217 96.6701293,26.9209695 97.2537478,26.781094 C93.1733252,27.8578411 89.3578958,29.7107891 85.4581084,31.264712 C84.4236039,32.0782794 83.5759899,32.8929945 83.0402264,33.7777631 C83.1945718,33.989988 83.8746561,33.8886988 84.735614,33.6933554 C85.6279232,33.5679498 86.6986943,33.3460783 87.5885919,33.1772631 C89.3635637,32.8372209 90.4005718,32.7142269 87.8297565,33.9706948 C78.7692003,39.1460883 71.2231582,43.6003995 65.7463088,48.4092228 C64.3644354,49.581283 63.0693812,50.7051103 61.8949093,51.8120561 C60.8193149,53.0395842 59.849833,54.2333493 59.01058,55.4102328 C57.324839,57.7567649 56.1358973,60.0092428 55.9092025,62.5438834 C55.9381422,63.0913271 57.1319073,62.7175219 58.7983551,61.986793 C60.5926201,61.3766464 62.9005659,60.465044 65.0107566,59.6909055 C66.0767044,59.312277 67.0582446,58.9240019 67.9843169,58.7021304 C68.932094,58.506787 69.7472305,58.3813814 70.3477305,58.3717348 C71.5487305,58.3476183 71.9056542,58.7768914 70.7842385,59.9610099 C69.7279373,60.8050862 68.6475197,62.0302026 67.3886402,63.3541966 C66.1611121,64.709542 64.6297165,66.0455942 63.2333731,67.7265118 C61.8659695,69.4339576 60.3828069,71.233046 58.812825,73.0803672 C57.4333631,75.0723873 55.9936101,77.1464034 54.5297406,79.2614174 C52.7089475,81.5983029 51.1896101,84.2824656 49.443578,86.9497467 C49.1782969,87.2584374 49.1807085,88.0181061 49.1469455,88.9369435 C44.3019475,98.8922205 41.7046042,109.136895 40.7857668,114.898319 C40.5518371,115.961855 40.3179074,117.020568 40.0863893,118.076869 C39.8211082,119.130759 39.8355781,120.220823 39.6908793,121.289182 C39.3267207,122.39854 38.8685078,123.348728 38.3041825,124.093927 C38.6731644,125.485447 38.7406905,126.860086 39.0614395,128.227489 C39.1362006,131.126289 39.0204415,134.041969 39.1989034,136.921475 C39.5871785,139.76963 39.7873451,142.651548 40.2769094,145.473174 L40.7399455,150.289232 C40.8894676,151.905035 40.9883451,153.549778 41.4248532,155.095644 C41.7456022,154.91477 42.0253532,154.285331 42.5776202,154.741132 L44.3140058,159.841764 C44.810805,161.575738 45.7634054,163.119192 46.4531363,164.773582 C47.2562146,166.372503 47.8277748,168.096831 48.7972567,169.606521 L51.532064,174.234471 C52.0312748,175.645284 52.6462447,176.921045 53.1888651,178.184748 C53.7170157,179.460509 54.1559354,180.731447 54.5008009,182.004796 C55.5798296,182.748329 56.8558369,183.630125 58.1976726,184.688759 C57.5121317,183.954635 56.7964269,183.2477 56.0452193,182.764706 C56.3876732,182.364373 56.730127,181.961628 56.812123,181.382833 C58.2253478,183.599136 59.9979081,185.528453 61.5582434,187.657937 C61.5346448,187.645065 61.5111093,187.632272 61.4876484,187.619581 C61.4892733,187.621134 61.4908985,187.622687 61.492524,187.62424 C61.5142897,187.636048 61.5361189,187.64793 61.5580022,187.659866 C61.5651265,187.674115 61.5745892,187.686025 61.5909955,187.702505 C61.5913325,187.702601 61.5916695,187.702697 61.5920065,187.702794 L61.6379248,187.762436 C63.5514781,189.571722 65.8229156,191.356499 67.9819052,193.421531 C69.2094333,194.697292 70.7601221,195.642658 72.1492305,196.797836 C73.6034534,197.866196 74.9346823,199.13231 76.4612546,200.063206 C77.9830036,201.010983 79.4806361,201.94429 80.9324473,202.848658 C81.6679995,203.280342 82.3601421,203.772318 83.1053409,204.124419 C83.8577746,204.457226 84.5933268,204.78521 85.3119975,205.103547 L85.3481722,204.987788 L89.5950818,207.083509 C90.9986601,207.823885 92.5445256,208.224218 94.0132183,208.824718 C95.5012043,209.389043 96.9916018,209.953368 98.4844111,210.520105 C100.030277,210.927674 101.580965,211.337654 103.134066,211.750045 C104.086666,212.319194 104.98621,212.931752 105.827875,213.590131 C107.496734,213.445433 109.187299,213.546722 110.012082,213.435786 C115.001778,214.853834 119.357212,215.526684 123.8067,216.496166 C124.621837,216.283941 126.121881,215.073294 127.812445,214.97924 C129.517479,214.923772 131.191162,214.868304 132.84314,214.815248 C134.480648,214.641609 136.074746,214.291921 137.656786,214.031463 L140.471178,213.703479 C141.418955,213.623895 142.359497,213.488842 143.280746,213.238031 C145.144949,212.832874 147.018798,212.422895 148.904706,212.012915 C161.575497,209.039354 173.45768,203.212816 183.810878,195.292969 C184.389674,195.321909 184.804477,195.635423 185.224103,195.946525 C185.764312,195.008395 186.649386,194.159495 187.544107,193.356417 C188.460533,192.577455 189.335961,191.786435 189.78935,190.949593 C189.678415,191.328222 189.676003,191.636913 189.909933,191.786435 C193.307943,186.683391 195.172145,186.866676 198.712443,182.629413 C199.44076,181.623756 199.718099,180.401051 200.325834,179.351985 C200.750284,178.9203 201.058975,178.40662 201.420722,177.919467 C202.698894,176.908987 203.829957,175.777925 204.866965,174.562455 C205.899149,173.342162 206.897571,172.076047 207.572832,170.609766 C208.315619,169.177248 209.007762,167.696497 209.711963,166.181983 C210.061651,165.424726 210.418575,164.660234 210.775499,163.888507 C211.064896,163.085429 211.354294,162.272704 211.650926,161.447921 L213.874465,156.668037 C214.711306,155.095644 215.089934,153.373728 215.731432,151.724162 L217.494346,146.695879 L218.738756,141.508427 C219.387489,138.754327 220.197802,136.873242 220.742834,135.151327 C221.372274,133.439058 222.062005,131.924544 222.648035,129.925289 C222.631153,132.052361 222.566039,134.227666 222.462338,136.427088 C222.356226,138.626509 221.813605,140.811461 221.475975,143.030176 C220.904414,147.50378 219.276553,151.815805 218.114139,156.190531 C217.354471,158.32725 216.466985,160.418148 215.707316,162.53075 C215.321453,163.587051 214.938001,164.640941 214.556961,165.687596 C214.091513,166.702899 213.630888,167.713379 213.170264,168.716624 C212.25625,170.727937 211.486934,172.789895 210.640447,174.784326 C209.685435,176.718467 208.807595,178.667077 208.021398,180.642216 C209.441858,178.647784 211.052838,176.600296 212.463651,174.367112 C213.777999,172.063989 215.121286,169.715045 216.462161,167.370925 C218.760461,162.496987 221.152814,157.589286 222.635977,152.903457 C224.502591,148.311682 225.532364,144.023774 226.781597,140.772875 C228.127296,137.534034 228.899023,135.218853 230.133786,134.52671 C231.308258,133.822509 231.831585,135.271909 231.935286,138.151415 C231.790587,140.997158 231.129796,145.256126 230.02285,150.019128 C227.599145,159.58613 222.206704,170.561533 218.454181,177.883292 C219.836055,176.125202 219.836055,176.125202 221.213105,174.371935 C219.773352,176.117967 218.574764,177.943583 217.959794,179.829491 C219.568362,178.220923 221.222752,175.423413 223.070073,172.949063 C223.938266,171.685361 224.914983,170.522947 225.61436,169.476292 C226.328207,168.436873 226.993822,167.607266 227.558147,167.153877 C227.413448,168.53575 227.329041,169.961033 227.116816,171.342907 C228.98343,168.977082 230.81387,165.829883 232.745599,162.313702 C234.498866,158.742053 235.960324,154.668782 237.542364,150.583453 C238.675838,146.408893 239.99742,142.188511 240.971725,138.21653 C241.791685,134.230078 242.66229,130.516142 243.651065,127.414765 C240.855966,142.511672 236.290719,158.257313 228.414282,173.141995 C220.627075,188.019443 209.798782,202.040756 196.180214,213.522605 C182.489296,224.881461 165.889933,233.355987 148.214975,237.696951 C130.523136,241.994505 111.893166,241.685814 94.8187083,237.414788 C56.2950659,228.865501 24.1815802,202.802836 7.50263249,169.141073 C7.13123891,168.337995 6.71884735,167.382983 6.28233932,166.302565 C5.82412647,165.231794 5.36591362,164.025971 5.0282831,162.677861 C4.27584937,160.01058 3.47759436,156.945377 2.69622087,153.716182 C1.52898393,147.190266 0.463036142,139.967385 0.557090358,133.918975 C-0.614969876,123.261909 0.214636545,112.493907 1.61821485,101.79102 L3.21954817,93.8446442 L4.0443313,89.8654274 L5.18745178,85.9706182 L7.50022084,78.15206 L10.4376064,70.5457267 L12.1884618,66.5665098 L14.2841826,62.7729898 C15.7191124,60.2648774 17.0913393,57.708532 18.6589095,55.2872388 C22.0110983,50.5941746 25.2427047,45.780528 29.2532729,41.6132028 L32.1617187,38.4057128 L33.6279998,36.8140261 L35.2172749,35.3453333 L41.6611945,29.5429117 C43.8220299,27.6256526 46.2553813,26.0243193 48.5657387,24.2782872 L52.091566,21.7267651 C53.2684495,20.8826888 54.5635037,20.2001929 55.7982667,19.4357009 C58.3087908,17.9694198 60.8241382,16.4959037 63.3467205,15.0223877 C65.9947084,13.785213 68.6499313,12.5456266 71.3123891,11.301217 C72.6580879,10.7151869 73.9579654,10.0158094 75.3494855,9.53348006 L79.5216341,8.04549413 C82.326379,7.11942185 85.0708328,5.96424314 87.9623971,5.26004234 C90.849138,4.54378331 93.7479372,3.82270098 96.6612063,3.10161866 C98.1081942,2.70128533 99.5865335,2.45047408 101.079343,2.24548412 L105.552947,1.56539979 C111.514537,0.439160841 117.618415,0.407809435 123.772937,0.000241164658 C128.697519,0.0557090358 134.463766,1.50993192 135.872168,2.83633753 C137.297451,4.24473913 134.483059,5.27933551 122.916802,5.66037567 C103.75627,7.45705237 85.0008951,12.8494941 68.0349614,21.7894679 C69.4144233,19.6213977 77.9395939,16.1028053 81.7138208,13.9226768 C79.9991401,14.4532391 78.3013409,14.9403917 76.6686562,15.504717 C75.0745578,16.1751547 73.5069875,16.8287109 71.9611221,17.4774439 C68.8742145,18.8110844 65.8114233,20.0458475 63.0211482,21.7653515 C60.204345,23.4293876 57.2766061,24.9390784 54.5731503,26.8876888 C51.8793411,28.8555924 49.1541804,30.8958454 46.3711403,33.0807972 L51.9733953,28.7470683 C53.8641262,27.3314318 55.6825077,25.8120944 57.7324073,24.6231527 C61.7526221,22.1415683 65.6715478,19.4574057 69.9956301,17.4943254 C59.4929093,22.8940021 48.9636604,29.820251 39.9368672,38.7915763 C30.8329014,47.6423192 22.9347589,58.1281585 17.0889276,69.6051845 C16.0784477,71.7322568 14.8533312,73.6639857 13.5317489,75.6029496 C12.2270481,77.5491483 10.7101224,79.4519375 9.59594171,81.6875339 C8.4045883,83.8869555 7.25905618,86.2696623 6.32816061,88.9610599 C5.35867868,91.635576 5.07892768,94.7683049 4.97040359,98.2024896 C9.72375898,81.9335218 18.0053533,66.6533291 28.8649978,53.6304376 C39.7367006,40.6171927 53.0731061,29.6900221 68.0349614,21.7894679 C67.9963751,21.8473475 67.9457305,21.9028153 67.928849,21.9558716 C81.1446722,14.6558174 94.5486039,10.7610082 108.929252,8.84374914 C104.479764,9.73605838 99.9675737,10.5270785 96.0872344,11.4459158 L99.9772203,10.6934821 C101.281921,10.5077853 102.59868,10.4040845 103.905793,10.256974 C106.515194,9.97963468 109.119772,9.70229532 111.721939,9.42736762 C114.326517,9.30437364 116.935919,9.31160858 119.530851,9.24890577 C122.125782,9.19102625 124.713479,9.10179533 127.296353,9.38154633 L135.02568,9.94587163 C137.594084,10.1388034 140.128724,10.7272451 142.673011,11.103462 C147.79776,11.7690764 152.736812,13.300472 157.704804,14.6317009 C143.456796,11.6074961 128.579349,10.7778897 113.849011,12.5625082 C99.1162625,14.2916588 84.4992726,18.6302109 71.1869835,25.5926346 C57.8722828,32.5285301 45.888811,42.061769 36.3242207,53.4567991 C26.7451605,64.8301243 19.6211565,78.0676524 15.6298814,91.8019796 C16.5921284,90.0053029 17.4989075,88.1193953 18.3646886,86.1635499 C18.7867268,85.1795981 19.2111766,84.1859997 19.6404497,83.1803431 C20.1372489,82.2060379 20.6388714,81.2220861 21.1429055,80.2308993 C22.1051525,78.226821 23.0818693,76.1962146 24.0634095,74.1559616 C25.0545962,72.1205319 26.2941826,70.2105078 27.3938934,68.2377809 C31.8023833,60.3589316 37.5276323,53.4809155 43.2794094,49.465524 C25.2523513,67.8663874 13.8066766,92.7232286 11.2069216,119.234459 C11.1297489,117.247263 11.0356947,115.298652 11.1418072,113.350042 C10.5485421,115.373413 10.3122007,117.459487 10.0879176,119.562443 C9.85881119,121.667811 9.66829111,123.792471 9.51153408,125.931602 C9.31860235,130.207451 9.73340557,134.531534 9.9528654,138.838734 C10.6136566,143.107349 11.2527429,147.392845 12.1498754,151.57464 C12.6949076,153.646244 13.237528,155.708202 13.7753252,157.760513 C14.2962409,159.815236 14.7761585,161.867547 15.5189457,163.823393 C15.9868051,165.246264 16.4522529,166.654666 16.922524,168.087184 C16.4570762,166.676371 15.9892168,165.248676 15.5189457,163.823393 C11.0839276,149.097879 9.79128508,133.868331 11.2069216,119.234459 C11.238273,126.00154 11.3226807,133.113485 12.0558212,141.636244 C12.0823493,139.30177 12.3500421,136.465674 12.4706244,133.405295 C12.5984417,130.347327 12.5502088,127.057841 13.0518312,123.785236 L13.4376947,117.334082 C13.5293373,115.182893 14.0454296,113.072702 14.3372389,110.943218 C14.6989859,108.825793 14.9956184,106.69872 15.4297148,104.603 C15.9916284,102.53863 16.5535421,100.474261 17.1106324,98.4171261 C13.8114999,111.172325 13.2592329,124.424323 15.5141224,135.995403 C15.1716686,118.484437 18.0680561,100.348855 25.5706886,84.5646282 C22.1582087,93.4756623 19.3148774,102.664036 18.3960401,112.144218 C15.6974075,127.829568 16.3678453,144.404815 21.0729677,160.17216 C20.805275,159.605423 20.6557529,158.988041 20.4604095,158.394776 C20.7377489,159.617481 21.2393714,160.767837 21.678291,161.932662 C22.7876485,164.944808 23.6606645,168.067891 25.0063633,171.007688 C26.3954717,173.923369 27.6857026,176.908987 29.197805,179.78367 C30.7436705,182.260431 32.3860018,184.647961 34.0813894,186.953495 C35.8322448,189.222855 37.9086725,191.22211 39.8404014,193.272009 C40.4216082,194.031678 40.9955801,194.784112 41.569552,195.534134 C40.1732086,194.359662 39.20855,193.983445 41.2439797,196.850893 C42.3750419,198.343702 43.568807,199.822041 44.8083933,201.285911 C46.0672728,202.730487 47.2730961,204.266706 48.7755519,205.527997 C50.2370097,206.827874 51.7105258,208.142222 53.1985117,209.466216 C53.9581804,210.112537 54.6816744,210.80468 55.482341,211.410003 L57.9446322,213.172917 C59.5869635,214.357035 61.2437647,215.5508 62.9126241,216.7518 C64.5838952,217.947977 66.4263932,218.922282 68.1748369,220.065403 C69.9666904,221.133762 71.6620779,222.41917 73.531104,223.427238 C75.3928951,224.454599 77.249863,225.530194 79.1092425,226.673314 C80.0980176,227.244874 81.1470839,227.937017 82.374612,228.416935 C83.5997284,228.906499 84.9164875,229.39124 86.3031842,229.873569 C89.0765778,230.833404 92.0959593,231.870412 95.3806219,232.39374 C97.0325998,233.165467 98.0044934,233.201641 98.8968026,233.085882 C100.297969,233.324635 101.689489,233.703264 103.122007,233.840728 C106.587544,234.31341 110.065138,234.863266 113.487264,234.988672 C110.123017,234.585927 106.635776,234.178358 103.122007,233.840728 C101.817307,233.674324 100.565662,233.276402 99.2923127,233.030414 C100.249736,232.859188 101.238511,232.73137 103.126831,233.069001 C79.6783911,227.990073 57.5442989,214.549967 41.569552,195.534134 C42.8429014,196.40715 44.5286423,197.716674 45.2907226,198.199003 C43.4024034,196.648314 41.480321,195.092802 39.8404014,193.272009 L36.1771102,188.501772 C34.889291,186.953495 33.9728653,185.151995 32.8466263,183.490371 C31.7782669,181.792571 30.6616745,180.116477 29.6174316,178.396973 L26.8343914,173.040706 C28.119799,175.088194 29.3859135,176.945162 30.7388472,178.40662 C25.4838693,168.335584 21.6758794,157.52176 19.4885159,146.329309 C17.1564537,135.139268 17.086516,123.539248 18.3960401,112.144218 L19.1243573,108.169825 C19.3534637,106.845831 19.59704,105.52666 20.0190782,104.246076 L22.2522629,96.5263952 C23.0915159,93.9941663 24.1936384,91.5487567 25.1462388,89.069584 C25.6719778,87.8468792 26.0698994,86.5735298 26.6945159,85.3990579 L28.5249557,81.8635841 C30.7726103,77.0523491 33.8329898,72.7162086 36.6618512,68.2884255 C39.9392789,64.1620982 43.0334214,59.9200119 46.7980017,56.2567208 C38.2245982,63.6580641 30.7099074,73.389058 25.5706886,84.5646282 C31.8819677,69.5087187 41.7335439,55.8636224 54.1824635,45.1776164 C66.5614454,34.3927329 81.8416381,27.0950904 97.6885677,23.6898454 C96.369397,24.4446908 94.929644,25.2019478 93.4681862,25.9543816 C92.0115517,26.7164619 90.610385,27.7245302 89.252628,28.5830763 C87.9954015,29.4492667 86.789076,30.2468747 85.7490671,31.0395428 Z M184.761067,26.4704739 C195.637593,32.4947671 205.597694,40.4628474 213.611595,49.7935079 C221.661671,59.0735239 228.267171,69.2844355 232.948177,79.7630399 L229.892621,73.6036945 C229.366882,72.5883913 228.894199,71.5417367 228.320228,70.5529616 L226.511493,67.6348693 L222.867495,61.822801 C221.591734,59.9296585 220.132687,58.1643332 218.765284,56.3363051 C219.797469,57.701297 220.81036,59.0397609 221.80637,60.3589316 C222.826497,61.6636324 223.571695,63.1275018 224.435065,64.4900821 C225.255025,65.8816022 226.06775,67.2586524 226.878063,68.6284677 C227.690788,69.9982829 228.474573,71.3729215 229.082308,72.8440259 C230.387009,75.7380018 231.672416,78.6488592 232.907179,81.6513592 C233.900778,84.7551483 234.877495,87.9433451 235.854211,91.266594 C234.6508,89.4650941 233.47874,86.4191844 232.340442,83.6264977 C231.817115,82.2108612 231.112914,80.9399234 230.464181,79.9149736 C229.825095,78.8852005 229.21736,78.111062 228.667505,77.7782548 C221.627908,63.031036 211.819742,49.5740481 199.739804,38.4491225 C187.710511,27.2807872 173.269571,18.6374459 157.748214,13.3318234 C159.450836,13.3052953 160.996702,13.5778114 162.45816,13.9202652 C163.922029,14.2530724 165.299079,14.6606407 166.598957,15.1188535 C169.208358,16.0208093 171.499423,17.1301668 173.491443,18.5675081 C175.517226,19.9276768 177.371782,21.3216085 179.221515,22.6142511 C181.112246,23.8345442 182.771459,25.3707631 184.761067,26.4704739 Z M240.014543,127.415729 C239.828846,124.138301 239.645561,120.945281 239.464688,117.790848 C239.79026,121.135801 240.065188,124.451816 240.014543,127.415729 Z M142.761036,18.984723 C140.872717,18.9557832 138.994044,18.8665523 137.093667,18.738735 C123.024121,16.7756547 108.305842,17.380978 93.9010768,20.9622732 C97.8417073,20.0964921 101.75581,18.827966 105.867667,18.3239318 C107.90792,17.981478 109.955408,17.6414358 112.010131,17.298982 C114.064854,16.978233 116.158163,16.9661748 118.237002,16.7973595 C120.318253,16.6791889 122.401916,16.5344901 124.480755,16.4862571 C126.559595,16.5947812 128.636022,16.7250101 130.69798,16.8841788 C132.755115,17.0988154 134.821896,17.1156969 136.823562,17.5883796 C138.830052,18.0128294 140.812426,18.4782772 142.761036,18.984723 Z M156.895215,25.3883681 C170.484843,29.5412235 183.09052,37.4152496 192.23066,47.0859523 C182.868648,37.6732958 170.564427,30.0114946 156.895215,25.3883681 Z M40.4862403,127.009608 C40.5561781,125.396216 39.5818729,123.920289 39.3600014,123.129269 C40.0593789,118.879947 41.5714813,114.847674 42.7483648,110.089496 C42.685662,109.298475 43.0691138,107.742963 42.9292383,106.12716 C43.5610897,105.355433 44.1447082,104.508945 44.6945636,103.60699 C41.4870737,113.846841 40.1244933,125.010353 40.966158,136.468086 C40.6767604,133.414941 40.5031218,130.260507 40.4862403,127.009608 Z M75.1842877,58.484841 C77.5211732,57.7492888 80.2222174,57.1825519 82.7857977,56.0876643 L78.0541471,58.8658812 L73.6360106,62.1336623 C72.9076933,62.6835177 72.1311431,63.1827285 71.429354,63.7711703 L69.3939243,65.6209032 C68.0530488,66.8725478 66.6060609,68.0180799 65.3230649,69.3324273 C62.8993601,72.0937626 60.2007276,74.6380498 58.1242999,77.7153108 L56.4433822,79.9219674 C55.8549404,80.6430497 55.31232,81.3930718 54.8661653,82.21062 L51.9384264,86.9591521 L51.8274907,86.9157425 C52.5871593,85.6255115 53.3854143,84.2629312 54.2126091,82.8569413 C54.6467055,82.1672104 55.0373922,81.4316582 55.5293681,80.7515738 C56.0478722,80.0907827 56.5760228,79.4251682 57.1041734,78.7523188 C58.1532396,77.4042084 59.2143641,76.0368048 60.273077,74.6742245 C61.4789002,73.4322265 62.6630187,72.1878168 63.7964926,70.9458189 C64.3584062,70.3163791 64.913085,69.6941743 65.4581171,69.0840277 C66.0127958,68.4787044 66.6446472,67.969847 67.2065608,67.410345 C68.352093,66.3178691 69.4180408,65.2302165 70.3802877,64.1570338 C71.2991251,63.0259715 72.3288982,62.1722486 73.1392114,61.2268832 C73.9664062,60.3008109 74.6561371,59.3843852 75.1842877,58.484841 Z M143.57352,26.187829 C152.530375,27.8952747 161.499289,30.3045097 169.751944,34.4018972 C180.201608,39.9390377 189.32969,47.4151421 196.106417,55.9837224 C189.064409,48.7704875 181.067389,42.4567967 172.267291,37.269345 C163.392432,32.2048872 153.678319,28.5753591 143.57352,26.187829 Z M101.43916,47.2439152 C104.518833,46.9521059 107.557508,46.4938931 110.685413,46.6988831 C107.615387,46.8821682 104.709353,47.7961822 101.740616,48.4111521 C102.201241,47.9288228 101.600741,47.5815457 101.43916,47.2439152 Z M133.751366,47.1050043 C132.675772,46.8035485 131.566414,46.7529039 130.466703,46.6419682 L127.165159,46.309161 C128.48433,46.1765204 129.805912,45.947414 131.161257,45.6025485 C131.841342,46.1548156 132.740886,46.5720304 133.751366,47.1050043 Z M165.962523,58.0138464 C167.240696,58.828983 168.533339,59.5765934 169.739162,60.4086115 C170.872636,61.3395071 171.986816,62.2535211 173.076881,63.1506536 C171.620246,62.19323 170.248019,61.0718143 168.723859,60.1770934 C167.18764,59.306489 165.649009,58.4310613 164.120025,57.5628685 C164.983395,57.6665693 165.694831,57.7220372 165.962523,58.0138464 Z" attr-id="Combined-Shape"></path>
                            </g>
                        </g>
                    </g>
                </g>
            </g>
        </g>
    </g>
</svg>