<?xml version="1.0" encoding="UTF-8"?>
<svg width="255px" height="244px" viewBox="0 0 255 244" version="1.1" xmlns="http://www.w3.org/2000/svg" xmlns:xlink="http://www.w3.org/1999/xlink" id="circle-development">
    <g attr-id="Home" stroke="none" stroke-width="1" fill="none" fill-rule="evenodd">
        <g attr-id="v1---Horizontal-Portfolio-Copy" transform="translate(-1022.000000, -4940.000000)" fill="#FEE140">
            <g attr-id="Section---Process" transform="translate(307.000000, 4735.000000)">
                <g attr-id="Illustration" transform="translate(0.000000, 197.000000)">
                    <g attr-id="Lines">
                        <g attr-id="Development" transform="translate(713.666667, 7.000000)">
                            <g attr-id="Circle---Brush" transform="translate(128.696368, 122.211390) rotate(-90.000000) translate(-128.696368, -122.211390) translate(6.696368, -5.788610)">
                                <path d="M75.823157,10.9856382 C77.1021459,10.3255149 78.432707,9.7917433 79.7890541,9.32243687 L83.821995,7.83973801 C86.5166391,6.87276049 89.1751826,5.79490288 91.9884425,5.17603727 C88.9843657,5.76138099 86.1375839,6.88049631 83.2340727,7.84489522 C80.3434546,8.86086627 77.3909499,9.74790698 74.6421551,11.1300402 C71.849524,12.4167649 69.0311069,13.6725464 66.2591047,15.0288935 L58.2499522,19.7090647 C47.8298025,26.3773417 38.1651845,34.4432235 30.0090514,43.9531251 C21.9457482,53.5249133 15.2336349,64.2544958 10.1099434,75.7525032 C5.23637667,87.3639692 2.12141975,99.6484516 0.61035621,112.103122 C-0.555174027,124.588736 -0.0523457164,137.141393 2.11884114,149.428454 C4.62782548,161.643314 8.65560918,173.466226 14.2408713,184.458827 C20.0633653,195.309604 27.1674268,205.340384 35.4318613,214.205634 C43.9077416,222.838809 53.2268263,230.512743 63.4226373,236.642091 C65.8594206,238.359443 69.8072675,240.450693 73.7009637,242.730181 C75.6246043,243.924076 77.7210115,244.736337 79.5905014,245.623378 C81.4831988,246.474318 83.205708,247.250479 84.5801054,247.869344 C107.155807,256.252395 135.497274,258.101256 161.770698,250.427322 C174.841655,246.592934 187.350476,240.816855 198.28119,233.372418 C209.134546,225.819678 218.500045,216.957007 226.104357,207.64308 C233.44565,198.079027 237.94274,188.424724 239.907638,181.209782 C240.921031,177.599733 241.684298,174.752951 242.004046,172.726166 C242.274799,170.676174 242.362472,169.551901 242.362472,169.551901 C243.55121,163.768086 243.757498,157.984271 241.008703,162.997083 C239.88701,165.57569 238.675064,169.250204 236.864882,173.035599 C235.913377,174.905089 234.923192,176.851937 233.933007,178.801364 C233.432757,179.77092 232.932507,180.740476 232.434836,181.699717 C231.919115,182.646066 231.292513,183.517635 230.735534,184.404676 C229.57774,186.145235 228.468939,187.813594 227.452968,189.340129 C226.442154,190.861507 225.477755,192.199804 224.500463,193.210618 C222.633552,195.291553 221.333934,196.472555 220.983244,196.20438 C220.810477,196.070293 221.542801,194.90992 222.726382,193.231247 C223.296254,192.377728 224.064679,191.452008 224.737695,190.358679 C225.405554,189.260192 226.11725,188.089505 226.828945,186.916239 C226.455047,186.681586 226.522091,185.513477 226.85731,183.845118 C227.15385,182.156131 227.906803,180.072617 228.347744,177.671934 C229.389502,172.947926 230.959873,167.942851 231.684462,165.413237 C231.916536,164.095569 232.664332,161.228159 233.517851,157.584587 C233.801498,155.725412 234.116088,153.670262 234.446149,151.514547 C234.729796,149.358832 235.250675,147.164438 235.268725,144.879792 C236.132558,135.849511 235.260989,126.937847 235.026336,124.434019 C234.340426,116.638891 232.589553,124.758924 229.740192,135.880455 C228.809315,138.657614 227.847495,141.651376 226.914039,144.709604 C225.707251,147.687895 224.46952,150.740965 223.257575,153.732149 C221.950221,156.664025 220.382428,159.415398 219.155012,162.030105 C218.577404,163.358088 217.803822,164.53909 217.115334,165.671098 C216.444896,166.813421 215.813137,167.8887 215.227793,168.881463 C212.888997,172.867989 212.234031,172.476041 212.332018,171.240889 C212.288182,169.923221 212.664658,167.597317 212.071579,167.308513 C211.640952,168.334799 211.21806,169.294041 210.800326,170.191396 C210.325862,171.060386 209.792091,171.839125 209.304734,172.602393 C208.31197,174.118614 207.352729,175.487854 206.403801,176.854515 C205.527075,178.270171 204.31513,179.45633 203.219222,180.884878 C202.082056,182.279904 200.970677,183.868326 199.683952,185.67335 C199.598858,185.606307 198.384334,186.751208 196.499373,188.67227 C195.563339,189.636669 194.446802,190.786728 193.203913,192.065716 C191.855302,193.231247 190.370025,194.512814 188.80481,195.861426 C188.031228,196.544756 187.239596,197.24098 186.435071,197.952676 C185.560923,198.576698 184.673882,199.208457 183.781685,199.845373 C181.984396,201.098576 180.267044,202.503916 178.44139,203.659132 C174.674046,205.781326 171.285756,208.145908 168.22495,209.388796 C168.22495,209.388796 167.286337,209.95609 164.862447,211.258286 C164.248739,211.570298 163.570565,211.985453 162.745411,212.349037 C161.904785,212.673941 160.961015,213.037525 159.903786,213.447523 C158.843979,213.852365 157.673291,214.298464 156.38141,214.793556 C155.734179,215.038524 155.058584,215.296384 154.349467,215.567138 C153.614565,215.752798 152.848718,215.946193 152.04935,216.149903 C147.784335,217.235497 147.8849,217.679017 147.982887,218.104487 C147.882322,217.676438 147.882322,217.676438 147.781756,217.245811 C145.780757,218.380398 142.456933,218.756875 139.171788,219.221024 C135.902115,219.837311 132.557662,219.708381 130.352953,220.069385 L130.314274,219.187502 C125.943536,220.084857 121.516068,219.553664 117.116965,219.365426 C114.919992,219.205552 112.772013,218.661466 110.590511,218.377819 L107.323417,217.91367 C106.227509,217.792476 105.180595,217.441785 104.095001,217.24839 C104.195567,216.820341 104.195567,216.820341 104.296132,216.389714 C102.186832,215.830156 100.082689,215.275756 98.5020031,214.858021 C96.9393674,214.383558 95.9930188,213.787899 96.0523267,213.615133 C96.1915715,213.197399 96.1915715,213.197399 96.3333948,212.779664 C94.4071756,211.771429 91.2870615,210.925646 88.811599,209.876153 C86.3773943,208.738988 84.4305462,207.813268 84.6316776,207.421319 C84.4331248,207.813268 84.4331248,207.813268 84.2371507,208.207795 C83.2624374,207.746224 82.3006171,207.287232 81.3542684,206.835976 C80.4620705,206.281575 79.5827656,205.737489 78.7189323,205.201139 C76.9861086,204.133596 75.3022784,203.099575 73.6622846,202.086182 C72.1409066,200.90518 70.6607864,199.7577 69.2116094,198.633428 C67.765011,197.511734 66.3055196,196.472555 65.0935744,195.188409 C62.605219,192.712947 59.9905117,190.564967 57.9791985,187.924474 C56.9090767,186.67385 55.8492694,185.436119 54.7946192,184.203545 C53.7244974,182.989021 52.9251293,181.56563 51.9736235,180.273748 C51.3728081,179.386707 50.7668355,178.491931 50.1557057,177.591997 C49.5136326,176.715271 48.9231317,175.797287 48.4331964,174.804523 C47.3579174,172.88604 46.2697454,170.94177 45.1686803,168.979451 C44.134659,166.978452 43.3172407,164.845944 42.3296343,162.775323 C41.886114,161.720673 41.295613,160.717595 40.9449225,159.611372 C40.5736031,158.515464 40.1997052,157.414399 39.8232286,156.308177 C38.069776,151.968382 37.1698423,147.283054 35.9682115,142.638983 C35.6123638,140.261507 35.2539375,137.86856 34.8955112,135.465299 C34.8078385,134.864484 34.6789082,134.268825 34.6221788,133.660274 L34.5396634,131.829464 L34.3436893,128.154949 C34.0033132,118.369136 34.6608579,108.27647 37.4663821,98.774304 C40.1094539,89.2411949 44.193967,80.1670779 49.3872809,72.0289951 C51.9658876,68.6381272 53.8482705,64.5871361 50.560547,67.5422194 C52.9973303,63.8986481 56.2309031,60.889414 59.0699491,57.578483 C62.3241508,54.6646574 62.8991801,53.6744724 63.4948383,52.6842875 C64.0904964,51.6941025 64.6165322,50.5981946 68.2265816,48.0195879 C81.9344549,36.6943472 99.2291702,29.9744981 116.980299,28.0663291 C121.454182,27.8961411 125.930643,27.339162 130.407104,27.7878396 C132.640177,27.9606062 134.904194,27.8471475 137.111482,28.2287813 L143.748815,29.2370166 C152.47482,31.0626701 161.162146,33.5561828 169.060419,37.8057267 L172.082546,39.2549037 L174.937063,41.0186707 C176.822025,42.2203014 178.797238,43.2878446 180.62547,44.5694121 C184.171054,47.3001566 187.879091,49.8271912 191.048198,53.0066133 C194.503531,55.8688668 197.298741,59.3886649 200.362126,62.6454452 C201.744259,64.4014764 203.033562,66.2297086 204.387331,68.0063686 C205.042297,68.9114596 205.772043,69.767557 206.372858,70.7087484 L208.103103,73.5761591 C217.744514,88.6971089 222.52525,106.471445 223.131223,124.434019 C222.971349,115.465625 222.654181,107.489995 220.645446,99.8212183 C219.067339,92.0570335 215.980747,84.6358033 211.594537,76.7401096 C211.981328,76.5260852 212.744595,76.1057723 210.356805,72.1759757 C203.355888,60.2885987 192.664985,49.3681992 181.713642,41.9598621 C170.803557,34.3658653 159.883157,30.4334901 153.483056,27.6305446 C151.283504,26.8775914 149.158732,25.7687905 145.796229,24.6367822 C144.09177,24.1906832 142.083035,23.7084838 139.620466,23.195341 C138.382735,22.9787381 137.054752,22.5816326 135.556582,22.4991172 C134.058411,22.4062874 132.433889,22.3083003 130.662386,22.2025774 C133.02439,22.3882371 135.414758,22.2876715 137.750976,22.6899341 L144.769943,23.7626345 L145.012332,22.4630167 C142.64775,22.047861 140.210967,21.6198123 137.714875,21.1814492 C135.216206,20.7611363 132.609234,20.7585577 129.98937,20.51359 C128.67428,20.4181816 127.348876,20.3201945 126.018315,20.2222075 C124.685176,20.2608866 123.3443,20.3021443 121.998268,20.3408234 C119.313938,20.4903826 116.575458,20.356295 113.885971,20.7198786 C103.030036,21.6327054 92.4938494,24.7399264 83.4841976,28.3087181 C83.4841976,28.3087181 83.1283498,27.5041929 82.950426,27.1019302 C80.026286,28.5768932 76.9912658,29.8378319 74.1547985,31.47009 C72.9170672,31.7743656 72.5483265,31.6093347 72.9144886,31.0549343 C73.285808,30.5134269 74.3353009,29.4845628 76.1429042,28.4711704 C77.9144071,27.39847 80.2918824,26.0730661 83.1102996,24.5645812 C86.0060749,23.2417559 89.4330433,21.9705028 93.0895076,20.5110114 C94.9538403,19.8947244 96.9367888,19.4202608 98.9377876,18.8503887 C100.959415,18.3527176 102.978464,17.6229719 105.105815,17.2980675 C107.230587,16.9499555 109.378566,16.6018436 111.523967,16.2511531 L114.73949,15.7302746 C115.822504,15.6658094 116.900362,15.6039228 117.973062,15.5394577 C122.266443,15.2919114 126.464414,14.9205921 130.378739,15.2609681 C132.33848,15.3383263 134.226021,15.4131059 136.018152,15.4853069 C137.81802,15.5085144 139.481221,15.9056198 141.054171,16.0680721 C141.113479,15.6322875 141.234674,14.7607184 141.29656,14.3223553 C139.59468,14.1134882 137.918585,13.6931753 136.201233,13.6596534 L131.06207,13.3992141 L131.103328,12.5199092 C146.62654,13.2470763 160.669632,16.9551128 173.552352,22.9787381 C186.417021,29.0513569 198.24509,37.4834009 208.742598,48.9530435 C207.86845,47.9938018 206.780278,46.7921711 205.578647,45.4745031 C204.325444,44.2084072 202.840167,42.9500471 201.416776,41.6246432 C199.972756,40.3198682 198.533894,39.0150932 197.213647,37.8186197 C195.785099,36.7510765 194.48806,35.7815204 193.45146,35.0053598 C193.714478,34.6546693 193.985231,34.3014002 189.802731,31.1787074 C198.41012,37.1172387 207.061346,45.2037494 214.405218,54.3500674 C221.914121,63.4216058 227.398817,73.9268496 231.684462,83.4573801 C232.790684,85.8374341 233.210997,85.7033465 232.710747,83.0602746 C232.349742,80.3682092 230.480252,75.3682908 226.983662,68.1533492 C224.85889,64.7547455 223.097701,61.5134369 221.06318,58.6614978 C218.95388,55.8611309 216.996718,53.1510153 214.931254,50.5285722 C212.685287,48.058267 210.439321,45.5853832 208.082474,42.9913048 C205.55544,40.5622573 202.788595,38.1357884 199.830933,35.4282513 L200.395648,34.7526563 C202.373439,36.5757313 204.601355,38.6283022 206.953045,40.7943319 C208.16499,41.8386676 209.232533,43.0867133 210.333598,44.3296017 C211.43982,45.5673329 212.556357,46.8231144 213.675472,48.0763173 C216.022004,50.4950504 217.857972,53.3289391 219.825449,55.8405021 C220.789848,57.1117552 221.728461,58.352065 222.630973,59.5408027 C223.443234,60.7888484 224.221974,61.9879005 224.956877,63.1173303 C226.545298,65.3039888 225.433919,62.8336835 224.294175,60.3350136 C223.762982,59.0611819 223.110594,57.8595512 222.80374,57.2406855 C222.520093,56.6063483 222.630973,56.5264115 223.536064,57.5604328 C225.0987,59.8063992 226.424104,62.2045035 227.922274,64.4968848 L230.160505,67.9496392 C230.812892,69.1538486 231.485909,70.3503221 232.182133,71.5390598 C230.544717,67.7407721 228.015104,64.0430501 225.617,60.0874674 C224.474677,58.0684183 222.966192,56.247922 221.54538,54.3423316 C220.093624,52.4599487 218.685705,50.5182578 217.172063,48.6590824 C210.820955,41.4905557 204.013433,34.695927 197.435407,29.7346877 C195.346736,27.955449 193.356051,26.0034437 191.723793,24.7192976 C190.109585,23.411944 189.098772,22.408866 189.328268,22.034968 C177.40479,14.8973846 165.757224,10.0186607 154.986383,6.98364058 C153.648086,6.56590629 152.32784,6.15332921 151.028222,5.74848796 C149.728604,5.33848949 148.405779,5.13735817 147.12679,4.82276815 C144.553341,4.22711 142.059828,3.6520807 139.643673,3.09252304 C134.788157,2.16422462 130.200816,1.60208835 125.930643,0.805298878 C124.50983,0.650582475 121.650156,0.642846655 117.893126,0.756305351 C116.021057,0.877499867 113.901442,0.753726744 111.66579,1.15341079 C109.42756,1.48605105 107.032034,1.84189878 104.548836,2.21063954 C103.311105,2.40919226 102.047587,2.61290219 100.773756,2.81919073 C99.5205528,3.14151657 98.2570355,3.46642101 96.9857823,3.79132546 C94.4484333,4.46176321 91.8904555,5.13735817 89.3763139,5.8026387 C86.9137445,6.63552867 84.5311119,7.56382709 82.2387305,8.40445288 C79.9618208,9.28633638 77.7261688,9.97224577 75.823157,10.9856382" attr-id="Fill-3"></path>
                            </g>
                        </g>
                    </g>
                </g>
            </g>
        </g>
    </g>
</svg>