<?xml version="1.0" encoding="UTF-8"?>
<svg width="816px" height="100px" viewBox="0 0 816 100" version="1.1" xmlns="http://www.w3.org/2000/svg" xmlns:xlink="http://www.w3.org/1999/xlink">
    <!-- Generator: Sketch 49.3 (51167) - http://www.bohemiancoding.com/sketch -->
    <title>Group 2 Copy 6</title>
    <desc>Created with Sketch.</desc>
    <defs></defs>
    <g id="Page-1-Copy" stroke="none" stroke-width="1" fill="none" fill-rule="evenodd">
        <g id="Group-10-Copy" transform="translate(-5.000000, -89.000000)" stroke="#1E476B" stroke-width="3">
            <g id="Group-2-Copy-6" transform="translate(6.000000, 90.000000)">
                <path d="M36.25,68.3 C31.7433108,68.3 27.5616859,67.4983413 23.705,65.895 C19.848314,64.2916586 16.7500117,61.9733485 14.41,58.94 L14.41,96.9 L0.63,96.9 L0.63,2 L14.41,2 L14.41,11.1 C16.8366788,7.8933173 19.9566476,5.35834265 23.77,3.495 C27.5833524,1.63165735 31.6999779,0.7 36.12,0.7 C40.3666879,0.7 44.4399805,1.4799922 48.34,3.04 C52.2400195,4.6000078 55.684985,6.8533186 58.675,9.8 C61.6650149,12.7466814 64.0483244,16.2999792 65.825,20.46 C67.6016756,24.6200208 68.49,29.299974 68.49,34.5 C68.49,39.700026 67.5800091,44.3799792 65.76,48.54 C63.9399909,52.7000208 61.5350149,56.2316521 58.545,59.135 C55.554985,62.0383478 52.1100195,64.2916586 48.21,65.895 C44.3099805,67.4983413 40.3233537,68.3 36.25,68.3 Z M34.17,55.56 C37.0300143,55.56 39.7166541,55.0183387 42.23,53.935 C44.7433459,52.8516612 46.9316573,51.3566762 48.795,49.45 C50.6583426,47.5433238 52.1099948,45.290013 53.15,42.69 C54.1900052,40.089987 54.71,37.3166814 54.71,34.37 C54.71,31.4233186 54.1900052,28.6716794 53.15,26.115 C52.1099948,23.5583205 50.6583426,21.3266762 48.795,19.42 C46.9316573,17.5133238 44.7433459,16.0183387 42.23,14.935 C39.7166541,13.8516612 37.0300143,13.31 34.17,13.31 C31.2233186,13.31 28.4933459,13.8733277 25.98,15 C23.4666541,16.1266723 21.3000091,17.6433238 19.48,19.55 C17.6599909,21.4566762 16.2300052,23.6883205 15.19,26.245 C14.1499948,28.8016794 13.63,31.5099857 13.63,34.37 C13.63,37.3166814 14.1499948,40.0683205 15.19,42.625 C16.2300052,45.1816794 17.6599909,47.4133238 19.48,49.32 C21.3000091,51.2266762 23.4666541,52.7433277 25.98,53.87 C28.4933459,54.9966723 31.2233186,55.56 34.17,55.56 Z M84.2323807,2 L98.1423807,2 L98.1423807,12.01 C99.8757227,8.8033173 102.215699,6.333342 105.162381,4.6 C108.109062,2.866658 111.749026,2 116.082381,2 L123.752381,2 L123.752381,15.26 L114.002381,15.26 C108.282352,15.26 104.230726,16.8199844 101.847381,19.94 C99.4640354,23.0600156 98.2723807,27.9999662 98.2723807,34.76 L98.2723807,67 L84.2323807,67 L84.2323807,2 Z M167.184761,68.3 C162.504738,68.3 158.128115,67.433342 154.054761,65.7 C149.981408,63.966658 146.406443,61.561682 143.329761,58.485 C140.253079,55.4083179 137.848103,51.8116872 136.114761,47.695 C134.381419,43.5783127 133.514761,39.1800234 133.514761,34.5 C133.514761,29.7333095 134.381419,25.2916872 136.114761,21.175 C137.848103,17.0583127 140.253079,13.4833485 143.329761,10.45 C146.406443,7.4166515 149.981408,5.033342 154.054761,3.3 C158.128115,1.566658 162.504738,0.7 167.184761,0.7 C171.864785,0.7 176.241408,1.566658 180.314761,3.3 C184.388115,5.033342 187.963079,7.4166515 191.039761,10.45 C194.116443,13.4833485 196.521419,17.0583127 198.254761,21.175 C199.988103,25.2916872 200.854761,29.7333095 200.854761,34.5 C200.854761,39.1800234 199.988103,43.5783127 198.254761,47.695 C196.521419,51.8116872 194.116443,55.4083179 191.039761,58.485 C187.963079,61.561682 184.388115,63.966658 180.314761,65.7 C176.241408,67.433342 171.864785,68.3 167.184761,68.3 Z M167.184761,55.3 C169.958109,55.3 172.558083,54.7583387 174.984761,53.675 C177.41144,52.5916612 179.534752,51.0966762 181.354761,49.19 C183.17477,47.2833238 184.604756,45.0733459 185.644761,42.56 C186.684767,40.0466541 187.204761,37.3600143 187.204761,34.5 C187.204761,31.6399857 186.684767,28.9533459 185.644761,26.44 C184.604756,23.9266541 183.17477,21.7166762 181.354761,19.81 C179.534752,17.9033238 177.41144,16.4083387 174.984761,15.325 C172.558083,14.2416612 169.958109,13.7 167.184761,13.7 C164.324747,13.7 161.68144,14.2416612 159.254761,15.325 C156.828083,16.4083387 154.726437,17.9033238 152.949761,19.81 C151.173086,21.7166762 149.786433,23.9266541 148.789761,26.44 C147.79309,28.9533459 147.294761,31.6399857 147.294761,34.5 C147.294761,37.3600143 147.79309,40.0466541 148.789761,42.56 C149.786433,45.0733459 151.173086,47.2833238 152.949761,49.19 C154.726437,51.0966762 156.828083,52.5916612 159.254761,53.675 C161.68144,54.7583387 164.324747,55.3 167.184761,55.3 Z M252.607142,68.3 C248.100453,68.3 243.918828,67.4983413 240.062142,65.895 C236.205456,64.2916586 233.107154,61.9733485 230.767142,58.94 L230.767142,96.9 L216.987142,96.9 L216.987142,2 L230.767142,2 L230.767142,11.1 C233.193821,7.8933173 236.31379,5.35834265 240.127142,3.495 C243.940494,1.63165735 248.05712,0.7 252.477142,0.7 C256.72383,0.7 260.797122,1.4799922 264.697142,3.04 C268.597161,4.6000078 272.042127,6.8533186 275.032142,9.8 C278.022157,12.7466814 280.405466,16.2999792 282.182142,20.46 C283.958818,24.6200208 284.847142,29.299974 284.847142,34.5 C284.847142,39.700026 283.937151,44.3799792 282.117142,48.54 C280.297133,52.7000208 277.892157,56.2316521 274.902142,59.135 C271.912127,62.0383478 268.467161,64.2916586 264.567142,65.895 C260.667122,67.4983413 256.680496,68.3 252.607142,68.3 Z M250.527142,55.56 C253.387156,55.56 256.073796,55.0183387 258.587142,53.935 C261.100488,52.8516612 263.288799,51.3566762 265.152142,49.45 C267.015485,47.5433238 268.467137,45.290013 269.507142,42.69 C270.547147,40.089987 271.067142,37.3166814 271.067142,34.37 C271.067142,31.4233186 270.547147,28.6716794 269.507142,26.115 C268.467137,23.5583205 267.015485,21.3266762 265.152142,19.42 C263.288799,17.5133238 261.100488,16.0183387 258.587142,14.935 C256.073796,13.8516612 253.387156,13.31 250.527142,13.31 C247.580461,13.31 244.850488,13.8733277 242.337142,15 C239.823796,16.1266723 237.657151,17.6433238 235.837142,19.55 C234.017133,21.4566762 232.587147,23.6883205 231.547142,26.245 C230.507137,28.8016794 229.987142,31.5099857 229.987142,34.37 C229.987142,37.3166814 230.507137,40.0683205 231.547142,42.625 C232.587147,45.1816794 234.017133,47.4133238 235.837142,49.32 C237.657151,51.2266762 239.823796,52.7433277 242.337142,53.87 C244.850488,54.9966723 247.580461,55.56 250.527142,55.56 Z M371.191903,68.3 C366.078544,68.3 361.441924,67.4116755 357.281903,65.635 C353.121882,63.8583244 349.590251,61.4533485 346.686903,58.42 C343.783555,55.3866515 341.551911,51.8333537 339.991903,47.76 C338.431895,43.6866463 337.651903,39.3533563 337.651903,34.76 C337.651903,29.9933095 338.518561,25.5300208 340.251903,21.37 C341.985245,17.2099792 344.346888,13.6133485 347.336903,10.58 C350.326918,7.5466515 353.880216,5.14167555 357.996903,3.365 C362.113591,1.58832445 366.555213,0.7 371.321903,0.7 C376.088594,0.7 380.530216,1.5233251 384.646903,3.17 C388.763591,4.8166749 392.316888,7.13498505 395.306903,10.125 C398.296918,13.1150149 400.636895,16.6466463 402.326903,20.72 C404.016912,24.7933537 404.861903,29.2566424 404.861903,34.11 L404.861903,38.92 L350.911903,38.92 C351.691907,43.9466918 353.858552,48.0849837 357.411903,51.335 C360.965254,54.5850162 365.601875,56.21 371.321903,56.21 C375.828592,56.21 379.576888,55.2133433 382.566903,53.22 C385.556918,51.2266567 387.658564,48.5400169 388.871903,45.16 L403.821903,45.16 C401.308557,52.3533693 397.343597,58.0083127 391.926903,62.125 C386.51021,66.2416872 379.598612,68.3 371.191903,68.3 Z M371.451903,13.05 C366.685213,13.05 362.568587,14.3716534 359.101903,17.015 C355.635219,19.6583465 353.208577,23.0599792 351.821903,27.22 L390.691903,27.22 C389.478564,22.6266437 387.203587,19.1166788 383.866903,16.69 C380.53022,14.2633212 376.391928,13.05 371.451903,13.05 Z M420.994284,2 L434.904284,2 L434.904284,12.01 C436.637626,8.8033173 438.977603,6.333342 441.924284,4.6 C444.870965,2.866658 448.510929,2 452.844284,2 L460.514284,2 L460.514284,15.26 L450.764284,15.26 C445.044255,15.26 440.992629,16.8199844 438.609284,19.94 C436.225939,23.0600156 435.034284,27.9999662 435.034284,34.76 L435.034284,67 L420.994284,67 L420.994284,2 Z M515.919045,2 L529.699045,2 L529.699045,10.45 C531.95239,7.4166515 534.769028,5.033342 538.149045,3.3 C541.529062,1.566658 545.38569,0.7 549.719045,0.7 C557.95242,0.7 564.409022,3.19164175 569.089045,8.175 C573.769069,13.1583582 576.109045,20.1132887 576.109045,29.04 L576.109045,67 L562.069045,67 L562.069045,30.21 C562.069045,24.8366398 560.747392,20.5900156 558.104045,17.47 C555.460699,14.3499844 551.539071,12.79 546.339045,12.79 C541.659022,12.79 537.737394,14.4366502 534.574045,17.73 C531.410696,21.0233498 529.829045,25.5299714 529.829045,31.25 L529.829045,67 L515.919045,67 L515.919045,2 Z M625.781426,68.3 C621.101403,68.3 616.72478,67.433342 612.651426,65.7 C608.578072,63.966658 605.003108,61.561682 601.926426,58.485 C598.849744,55.4083179 596.444768,51.8116872 594.711426,47.695 C592.978084,43.5783127 592.111426,39.1800234 592.111426,34.5 C592.111426,29.7333095 592.978084,25.2916872 594.711426,21.175 C596.444768,17.0583127 598.849744,13.4833485 601.926426,10.45 C605.003108,7.4166515 608.578072,5.033342 612.651426,3.3 C616.72478,1.566658 621.101403,0.7 625.781426,0.7 C630.461449,0.7 634.838072,1.566658 638.911426,3.3 C642.98478,5.033342 646.559744,7.4166515 649.636426,10.45 C652.713108,13.4833485 655.118084,17.0583127 656.851426,21.175 C658.584768,25.2916872 659.451426,29.7333095 659.451426,34.5 C659.451426,39.1800234 658.584768,43.5783127 656.851426,47.695 C655.118084,51.8116872 652.713108,55.4083179 649.636426,58.485 C646.559744,61.561682 642.98478,63.966658 638.911426,65.7 C634.838072,67.433342 630.461449,68.3 625.781426,68.3 Z M625.781426,55.3 C628.554773,55.3 631.154747,54.7583387 633.581426,53.675 C636.008105,52.5916612 638.131417,51.0966762 639.951426,49.19 C641.771435,47.2833238 643.201421,45.0733459 644.241426,42.56 C645.281431,40.0466541 645.801426,37.3600143 645.801426,34.5 C645.801426,31.6399857 645.281431,28.9533459 644.241426,26.44 C643.201421,23.9266541 641.771435,21.7166762 639.951426,19.81 C638.131417,17.9033238 636.008105,16.4083387 633.581426,15.325 C631.154747,14.2416612 628.554773,13.7 625.781426,13.7 C622.921412,13.7 620.278105,14.2416612 617.851426,15.325 C615.424747,16.4083387 613.323101,17.9033238 611.546426,19.81 C609.76975,21.7166762 608.383098,23.9266541 607.386426,26.44 C606.389754,28.9533459 605.891426,31.6399857 605.891426,34.5 C605.891426,37.3600143 606.389754,40.0466541 607.386426,42.56 C608.383098,45.0733459 609.76975,47.2833238 611.546426,49.19 C613.323101,51.0966762 615.424747,52.5916612 617.851426,53.675 C620.278105,54.7583387 622.921412,55.3 625.781426,55.3 Z M701.323807,68.3 C693.003765,68.3 686.612162,65.8083582 682.148807,60.825 C677.685451,55.8416417 675.453807,48.8433784 675.453807,39.83 L675.453807,2 L689.623807,2 L689.623807,38.66 C689.623807,44.1200273 690.902127,48.3883179 693.458807,51.465 C696.015486,54.541682 699.763782,56.08 704.703807,56.08 C709.123829,56.08 712.785459,54.4550162 715.688807,51.205 C718.592154,47.9549837 720.043807,43.5133615 720.043807,37.88 L720.043807,2 L733.953807,2 L733.953807,67 L720.173807,67 L720.173807,58.42 C718.180463,61.4533485 715.580489,63.8583244 712.373807,65.635 C709.167124,67.4116755 705.483827,68.3 701.323807,68.3 Z M752.946187,2 L766.726187,2 L766.726187,10.45 C768.979532,7.4166515 771.79617,5.033342 775.176187,3.3 C778.556204,1.566658 782.412832,0.7 786.746187,0.7 C794.979562,0.7 801.436164,3.19164175 806.116187,8.175 C810.796211,13.1583582 813.136187,20.1132887 813.136187,29.04 L813.136187,67 L799.096187,67 L799.096187,30.21 C799.096187,24.8366398 797.774534,20.5900156 795.131187,17.47 C792.487841,14.3499844 788.566213,12.79 783.366187,12.79 C778.686164,12.79 774.764536,14.4366502 771.601187,17.73 C768.437838,21.0233498 766.856187,25.5299714 766.856187,31.25 L766.856187,67 L752.946187,67 L752.946187,2 Z" id="prop-er-noun"></path>
                <circle id="Oval" cx="310" cy="33" r="10"></circle>
            </g>
        </g>
    </g>
</svg>