
<svg width="250px" height="258px" viewBox="0 0 250 258" version="1.1" xmlns="http://www.w3.org/2000/svg" xmlns:xlink="http://www.w3.org/1999/xlink" id="circle-strategy">
    

    <path d="M229.281843,148.353344 C229.411158,147.668018 229.482414,146.995923 229.482414,146.490529 C229.506166,145.987781 229.519361,145.659671 229.519361,145.659671 C229.392685,145.649087 229.268647,145.667609 229.139332,145.670255 C229.229061,146.651937 229.31879,147.53307 229.281843,148.353344" fill="#BC84F5"></path>
    <path d="M233.480113,151.60295 L233.614707,150.721817 C233.495948,150.809137 233.393023,150.811783 233.279542,150.851473 C233.350798,151.089617 233.422053,151.322469 233.480113,151.60295" fill="#BC84F5"></path>
    <path d="M229.125872,145.669991 C227.703401,145.765248 226.246621,146.709886 224.892765,145.2625 C224.961382,143.833636 225.103893,140.981202 225.175149,139.541754 C224.478428,138.09966 223.628639,139.504709 222.852746,139.475603 C222.92664,138.078492 223.011091,136.684027 222.623145,136.684027 C222.108521,136.120419 221.710018,136.379732 221.351101,136.972445 C220.989546,137.565159 220.699245,138.591824 220.506591,139.909554 C221.514725,141.412507 222.319649,143.534634 223.032204,145.648822 C223.739481,147.763011 223.950609,149.813695 224.449398,151.210806 C224.898044,152.599979 225.410028,153.309119 226.154252,152.631731 C226.526365,152.293038 226.956537,151.610359 227.473799,150.48579 C227.922445,149.353283 228.745843,147.813286 229.125872,145.669991" fill="#BC84F5"></path>
    <path d="M230.547288,158.063 L231.755993,150.074595 C231.001212,149.132603 230.291296,147.933946 229.285801,148.624563 C229.306914,152.731223 229.676387,155.337576 230.547288,158.063" fill="#BC84F5"></path>
    <path d="M232.076907,114.478164 C232.303869,114.433182 232.512357,114.536377 232.361929,116.004932 C232.261644,115.470431 232.235253,114.965037 232.076907,114.478164 C231.857862,114.504625 231.562284,114.655449 231.248231,114.007169 C232.594169,119.219875 234.214573,125.446015 234.401949,131.648341 C234.853234,132.434216 235.309797,133.201569 235.761082,133.905416 C235.249098,118.44723 231.13475,103.060486 224.106843,92.5980302 C225.141368,94.5375801 225.816976,96.4427315 226.53481,98.236749 C227.279034,100.025474 227.986311,101.729527 228.690949,103.42564 C230.010496,106.852267 230.915706,110.387381 232.076907,114.478164" fill="#BC84F5"></path>
    <path d="M238.157907,135.07682 C238.192215,135.624551 238.223885,136.140529 238.255554,136.682968 C238.530019,135.235582 238.398065,135.084758 238.157907,135.07682"  fill="#BC84F5"></path>
    <path d="M42.0890619,77.1440773 C40.7193722,78.9328028 39.843193,80.9649642 38.8825628,82.8595314 C37.9773536,84.7911432 37.0193625,86.6248514 36.3226417,88.5458791 C35.7235673,90.4907211 35.1297712,92.4117487 34.5386141,94.3221922 L33.6941041,97.1534588 C33.4592247,98.1060345 33.3246309,99.0983008 33.1319771,100.061461 C33.4407511,99.0797785 33.6571568,98.0557597 34.0398254,97.0978919 L35.2168613,94.2322267 C36.0059504,92.3111991 36.7897613,90.3901714 37.5709331,88.482374 C38.5447588,86.661896 39.5133062,84.8546483 40.4739364,83.0632768 C41.4187321,81.256029 42.3318586,79.4434892 43.5062554,77.8346947 C45.7125379,74.5271402 47.7156102,71.1798951 50.1171857,68.377735 C51.2414397,66.9065347 52.3366637,65.4723791 53.3949404,64.0832062 C54.5165553,62.7522463 55.688313,61.5403584 56.7465897,60.30201 C55.4191254,61.6012174 53.9597065,62.7654765 52.7246105,64.1599415 L49.0140444,68.3406904 C46.3828678,70.9999641 44.3929909,74.1937387 42.0890619,77.1440773"  fill="#BC84F5"></path>
    <path d="M31.3215586,137.687936 C31.4192051,135.115981 31.8018737,132.673683 31.8520165,130.313412 C31.8810465,129.130631 31.9100766,127.971664 31.9391066,126.828573 C32.0789786,125.704004 32.1898205,124.592666 32.2821888,123.491912 C32.4774818,121.295696 32.5197073,119.131232 32.6305492,117.009105 C32.9129323,114.924023 33.1319771,112.854817 33.3167137,110.782965 L32.0024449,116.879449 C31.7200618,118.938071 31.5511598,121.009923 31.303085,123.055315 C30.6090033,127.130222 30.9336118,131.29774 30.7594316,135.37794 C30.8887472,136.145292 31.0365365,136.954982 31.3215586,137.687936" fill="#BC84F5"></path>
    <path d="M29.450441,126.03132 C30.2711992,121.28961 30.3239811,116.791336 31.1262657,112.570896 C31.4614306,110.451415 31.5432425,108.289598 31.9417457,106.233622 C32.342888,104.159124 32.7387521,102.10844 33.1346162,100.063048 C32.4959554,102.293663 31.8599338,104.513694 31.2318294,106.712556 C30.799018,108.959047 30.4823268,111.202892 30.1286882,113.380586 C29.9624253,114.46811 29.7988014,115.550341 29.6378167,116.619343 C29.6008694,117.706867 29.5665612,118.783807 29.5322529,119.850162 C29.5032229,121.956413 29.476832,124.020327 29.450441,126.03132"  fill="#BC84F5"></path>
    <path d="M188.986837,18.9906547 C193.02465,20.5835729 196.167811,22.1500307 198.70662,23.3433964 C201.26918,24.5076556 203.018899,25.629578 204.253995,26.4948343 C205.63688,26.8494041 207.447299,27.3680287 209.893739,28.1697799 C209.479401,27.8601928 209.038673,27.5267913 208.629613,27.2198502 C206.697796,25.992086 204.760701,24.7643218 202.815689,23.5286194 C200.796782,22.4172811 198.727732,21.377386 196.682435,20.3057384 C194.623941,19.2579051 192.594478,18.157151 190.504316,17.1648847 C188.361371,16.2890442 186.213149,15.4079117 184.057009,14.5267792 C182.243952,13.9234813 180.47312,13.36252 178.789378,12.8650638 C177.066049,12.4655113 175.400781,12.1903227 173.885941,11.962763 L177.773327,13.4868841 C179.050648,14.0346151 180.280466,14.7014181 181.531396,15.30207 C184.02534,16.5377723 186.514006,17.7681826 188.986837,18.9906547" fill="#BC84F5"></path>
    <path d="M204.25294,26.4945697 C192.530084,23.5521692 213.901467,33.072634 204.25294,26.4945697"  fill="#BC84F5"></path>
    <path d="M148.011209,28.0631443 L146.926541,27.9017357 C145.870903,27.8302925 144.786236,27.7562033 143.735876,27.682114 C145.192656,27.8117702 146.575541,27.9361342 148.011209,28.0631443"  fill="#BC84F5"></path>
    <path d="M57.2704498,36.5762603 C62.9365845,32.6310093 68.7241175,28.7492634 74.8388982,25.6216399 C62.218751,31.945684 50.6146549,40.5585559 43.20144,49.6424235 C44.4787615,48.4755182 46.0305487,47.5890936 47.3052311,46.4301266 C49.2212133,43.3739462 53.0690123,39.7726809 57.2704498,36.5762603" fill="#BC84F5"></path>
    <path d="M31.9631224,69.1696958 C33.3169776,66.7961947 34.7130583,64.385649 36.19359,61.9962717 C37.850941,59.7524267 39.5610738,57.5032897 41.3107931,55.2488606 C42.9707832,52.9097581 45.0662238,50.96227 47.037627,48.8639574 C49.0433384,46.8000434 51.0094634,44.6567482 53.2949187,42.883899 C61.8746131,35.0383798 72.0641548,29.1562249 82.1982756,24.1525565 C86.1885856,22.422044 90.300294,20.5724596 94.7075808,19.6013616 L101.257812,17.9211239 C103.458816,17.4527742 105.702046,17.2146303 107.90569,16.8468302 C110.11725,16.529305 112.305059,16.1138761 114.484951,15.8492718 C116.67276,15.6931552 118.836817,15.5132243 120.974483,15.2962487 C123.10951,15.1189638 125.212868,14.7352874 127.284556,14.6082774 C129.353606,14.4971435 131.390987,14.3304428 133.394059,14.0949449 L133.460036,12.9306857 L131.670731,13.2296887 C128.561878,12.9412699 125.748604,12.5655317 123.043533,12.5761159 C120.3411,12.4835044 117.746871,12.3803087 115.097221,12.3617864 C115.395438,12.3115115 115.714769,12.2585907 116.010347,12.2083158 C115.485167,12.2585907 114.959988,12.3062194 114.426891,12.3564943 C110.906339,12.523195 107.269668,13.129139 103.155321,14.0446701 C101.265729,14.4468687 99.4210026,15.2062832 97.5525241,15.8439797 C94.8712047,16.6272086 92.1819679,17.4157296 89.4900921,18.2042506 L81.6810131,21.3477503 C80.3957744,21.8981274 79.0735883,22.361185 77.8252969,22.9882973 L74.1252872,24.9437235 C71.6867644,26.2905597 69.1849033,27.4839254 66.8756961,28.9762939 C62.3338155,32.0933333 57.7576266,34.990751 53.9071885,38.6528753 C51.9621763,40.4416007 49.9063221,42.0318729 48.2014674,43.9661308 C46.4755,45.8712822 44.8049535,47.7658494 43.2030235,49.6418942 C41.0732747,51.8090039 39.5162092,54.3677281 37.8271891,56.6777241 C36.1830336,59.0327029 34.5573517,61.3030083 33.2853084,63.8273338 C31.9446487,66.266986 30.603989,68.7039921 29.2422165,71.1806889 C28.0889325,73.7764577 26.9066184,76.3828106 25.6398533,79.0341462 C26.5081152,77.6052827 27.6745947,75.864186 28.7988487,74.101921 C29.3556976,73.2154964 29.9125464,72.3290718 30.4403652,71.48763 C31.0183267,70.6805867 31.5408673,69.8973578 31.9631224,69.1696958 Z M82.773598,12.0627834 C79.1580393,13.7721276 75.5108115,15.1718846 72.0324857,17.2516749 C70.2537364,18.2042506 68.4512352,19.1700565 66.5959522,20.1623228 C65.6696302,20.659779 64.7063609,21.1148985 63.7694826,21.6546914 C62.8457997,22.2209447 61.9089213,22.7977822 60.9535693,23.3825578 C64.2656322,20.9561359 67.9867547,19.2282694 71.5680052,17.2146303 C75.1228647,15.1216098 78.9785809,13.6927463 82.773598,12.0627834 Z M1.83522593,132.756769 C1.88009052,133.942196 1.92231603,135.135562 1.96454153,136.33422 C2.05163163,137.530231 2.24692458,138.731535 2.38151837,139.932839 C2.66390143,142.332801 2.94892357,144.75393 3.23658481,147.182998 C3.40812592,149.614712 4.08109487,152.00409 4.51918447,154.409343 C4.99422138,156.809305 5.46925829,159.20662 5.9442952,161.595998 C6.61726415,163.937746 7.28759401,166.268911 7.95264569,168.584199 C8.63353192,170.888903 9.14551615,173.222713 10.069199,175.400407 C11.7951665,179.782255 13.0804052,184.21967 15.0887557,188.151691 C17.7779924,194.742986 25.492064,206.266505 33.2589175,213.985014 C35.3068544,215.818723 37.262423,217.493668 39.0306159,218.898717 C40.7908916,220.311705 42.3505961,221.46538 43.7862632,222.095138 C46.5678682,223.452558 48.0853473,223.45785 47.6393404,221.47861 C46.5177255,221.169023 45.2060958,220.600123 43.7308423,219.801018 C42.3347616,218.922532 40.8383953,217.75298 39.1968789,216.403498 C37.5949488,215.019617 35.7396658,213.537833 34.0348111,211.690895 C32.3669037,209.81485 30.6198236,207.758874 28.8252397,205.575888 C21.8976181,196.640199 15.6192136,184.616577 11.8136401,172.688212 C4.31597423,148.635676 6.74657975,126.758188 1.83522593,132.756769 Z M19.4458998,150.662546 C19.9235758,152.170791 20.3722218,153.724018 20.8023941,155.311644 C21.2272882,156.901916 21.586205,158.539817 22.2275048,160.148612 C22.7711582,161.775929 23.3253679,163.434998 23.8874949,165.117882 C24.4337874,166.803412 24.900907,168.539216 25.687357,170.195639 C28.3713155,176.953635 31.5435064,183.941836 35.8373123,190.226189 C37.0460173,192.157801 38.4658498,193.959757 40.1601482,195.759066 C41.954732,197.497517 43.8284887,199.360332 45.6098771,201.762939 C48.0853473,204.570391 50.4526145,206.464959 52.4794387,208.367464 C53.4743771,209.343854 54.5854356,210.127083 55.6964942,210.939418 C56.7996355,211.759692 57.9054158,212.601134 59.0560608,213.524603 L56.3166813,209.981551 C58.1482125,211.770276 59.8900145,213.262645 61.5658391,214.601543 C63.3129193,215.853121 65.1180596,216.800405 66.8229143,217.845592 C70.1719245,220.057684 73.8692951,221.571221 77.9519734,224.590357 C78.1235145,224.288708 79.7491964,224.291354 81.0529088,224.868192 C84.3860844,226.151523 87.4157643,228.091073 90.6539325,229.12303 C93.8314017,230.271413 96.7819087,231.615603 99.6875511,231.78495 C103.184351,232.43323 106.580864,233.441373 109.964183,233.621304 C113.310554,233.946767 116.451076,234.428347 119.311854,234.015564 C120.731686,234.081715 123.579269,233.057697 126.339761,232.835429 C129.709884,232.459691 133.077368,232.242715 136.423739,231.927836 C136.262754,231.845809 136.117604,231.777011 135.98301,231.673816 C133.248909,231.769073 130.491056,231.943712 127.722646,232.364433 C119.483395,233.084157 109.541928,233.107971 101.363376,231.012305 C100.075498,230.739762 98.7876201,230.46722 97.5076595,230.194677 C96.2620072,229.800417 95.021633,229.408802 93.783898,229.014542 L90.0680537,227.858221 L88.2074925,227.294614 L86.4313822,226.540491 C84.0403631,225.553517 81.6651786,224.571835 79.3031895,223.598091 C77.0335687,222.402079 74.7745043,221.211359 72.5259963,220.028578 C63.6823925,214.966697 55.5196749,208.804061 48.3096702,201.471874 C46.8212213,199.860434 45.3090204,198.248993 43.7387595,196.656075 L41.3978832,194.242883 C40.6958842,193.377627 40.0387498,192.483264 39.3763373,191.58361 C37.346874,188.916398 35.1089223,186.101007 33.5069923,182.894002 C32.6334522,181.324899 31.757273,179.747857 30.8890111,178.186691 C29.9969974,176.625525 29.4427877,174.934703 28.7012023,173.357661 C27.9833687,171.759451 27.2813697,170.198285 26.5978444,168.682102 C25.8958454,167.168566 25.4762295,165.62063 24.8797942,164.199705 C24.3229454,162.765549 23.7555402,161.405483 23.1670223,160.14332 C22.5494743,158.883803 21.9820691,157.70896 21.5228667,156.61879 C20.913236,155.158174 20.4513946,152.107286 19.4458998,150.662546 Z M193.818754,215.390064 C202.208433,209.3465 210.598113,198.222533 216.245774,186.566711 C216.190353,186.452931 216.124376,186.365612 216.047842,186.320629 C210.621865,195.666455 203.047665,206.819528 193.818754,215.390064 Z M216.31703,188.749697 C215.673091,190.162684 215.008039,191.6233 214.340348,193.086562 C214.546198,192.9278 214.74413,192.771683 214.939423,192.618213 C215.696843,191.363988 216.14021,189.935124 216.31703,188.749697 Z M195.030098,45.49819 C180.171999,35.5199597 163.395279,29.3811386 146.927333,27.9020003 C130.491056,24.9331394 113.67211,25.9624503 98.6609436,30.5718582 C83.6233863,35.1415755 70.4463902,43.2464069 60.5313143,53.147902 C56.2005611,57.5482724 51.3208764,62.9065107 46.6153719,69.0559159 C45.3406896,70.5059478 44.4143676,72.2840891 43.2637226,73.9034678 C42.1843332,75.5757673 40.9967409,77.2030841 39.959577,78.9441808 C39.004225,80.7329062 38.0435948,82.5348619 37.0776864,84.3474017 L35.6261848,87.0543043 C35.182817,87.9777735 34.8344566,88.9515175 34.4359534,89.8961551 C33.665338,91.7907223 32.8947225,93.6852895 32.1267462,95.5745646 C31.3429353,97.4479635 30.9523494,99.4668947 30.3664705,101.374692 C29.8676818,103.314242 29.2158256,105.179703 28.8832997,107.106022 C28.5982776,109.034988 28.3158945,110.937494 28.0387897,112.810892 C27.3288734,116.496831 27.5584746,120.193354 27.5505573,123.569706 C27.4370763,126.938119 28.2631127,130.158354 28.806766,133.002851 C29.1340137,130.581721 29.2052692,128.253203 29.4507049,126.030526 C29.6882234,129.380417 30.2529895,132.523917 30.7596955,135.376352 C30.6726054,137.662534 31.1080559,139.938131 31.2320933,142.20579 C31.4247472,144.47345 31.5144764,146.746401 32.0528516,148.955848 L33.2747521,155.615939 L35.1405915,162.098746 C37.8456628,170.632237 41.4374696,178.903769 46.4781391,186.302107 L48.2542493,189.138665 C48.8981882,190.048904 49.6265781,190.903576 50.3048253,191.792647 C51.7088232,193.531098 52.9703102,195.383328 54.4508419,197.06092 L59.0375871,201.964039 C59.763338,202.821357 60.5867353,203.580771 61.449719,204.300495 L63.9674146,206.53111 L66.4692757,208.788185 C67.3137857,209.526431 68.2744159,210.124437 69.1664297,210.807116 C71.0006,212.106324 72.7450411,213.543125 74.626715,214.781474 L80.4300826,218.274251 L81.8815843,219.15803 L83.417537,219.8804 L86.4868032,221.348954 C87.6981473,221.936375 88.8619878,222.428539 89.9967982,222.867783 C91.1817513,223.182662 92.3429527,223.439328 93.4935976,223.703932 C94.6442426,223.968537 95.7869703,224.235787 96.9534498,224.553312 C97.5314114,224.725305 98.1172902,224.899944 98.7190036,225.077229 C99.3312734,225.220115 99.9593778,225.365648 100.608595,225.513826 C103.234493,226.101248 105.794414,226.860662 108.396561,227.358119 C111.025099,227.720627 113.637802,228.080489 116.247866,228.44035 C116.276896,228.358323 116.221475,228.26042 116.086881,228.151932 C137.893714,229.900967 159.716382,223.915616 177.108011,210.301722 C185.407961,204.213176 193.003274,197.026521 198.983461,188.617395 C199.5667,187.84475 200.086602,187.323479 200.569556,186.942449 C201.007646,186.532312 201.395593,186.257124 201.788818,186.026918 C202.569989,185.566506 203.314214,185.264858 204.161363,184.235547 C205.950669,182.245722 207.710944,180.372323 209.03577,178.305763 C210.410737,176.270955 212.010028,174.357866 213.181786,172.193402 C214.337709,170.021001 215.506828,167.777156 216.715533,165.363964 C217.723667,162.884621 218.578733,160.183011 219.581589,157.235318 C219.581589,157.235318 220.339009,157.402019 220.716399,157.484046 C221.15185,155.610647 221.199353,153.861612 221.597857,152.4989 C223.519117,155.851437 223.421471,161.484864 224.036379,164.453725 C224.64601,167.393479 225.728039,167.639561 229.401657,159.426242 L229.412214,159.428888 C229.301372,160.41057 229.201086,161.294349 229.106079,162.138437 C229.079688,162.241632 229.058575,162.331598 229.032184,162.426855 L229.077049,162.418917 C228.876478,164.519876 228.797305,166.245096 228.84217,167.803616 C228.908147,169.370074 228.823696,170.687803 229.018989,172.108729 C230.074626,169.565881 230.700092,166.885439 231.373061,164.210289 C231.766286,164.853277 232.207014,165.326919 232.80345,165.189325 C232.840397,165.451283 232.877344,165.697365 232.916931,165.983138 C232.610796,167.187088 232.352164,168.200523 232.352164,168.200523 C232.536901,168.679456 232.748029,169.057841 232.982908,169.343613 C232.605518,173.082473 231.528767,177.821537 230.803016,181.443971 C229.810717,184.949978 229.311928,187.418737 230.539107,186.725474 C231.296527,186.101007 232.127842,184.436646 233.048885,182.195447 C233.806305,179.885451 234.516222,176.948343 235.376566,173.897454 C235.645754,173.585221 235.925498,173.214775 236.178851,172.823161 C233.671711,180.827442 238.74405,173.701647 237.358526,178.623288 C236.754173,180.226791 236.242189,181.867338 235.606167,183.45761 L233.505449,188.156983 L231.388895,192.859003 C230.665783,194.420168 229.705153,195.851678 228.844809,197.338754 C225.392874,203.437885 221.312835,208.809353 217.214322,213.945324 C215.029152,216.406144 212.867734,218.840504 210.719511,221.261634 C208.362801,223.479019 206.021924,225.685819 203.681048,227.889973 C193.992934,236.336145 183.185844,243.50163 170.483885,249.211793 C169.346436,249.680142 168.219543,250.1432 167.09001,250.606257 C165.51975,251.238662 163.960045,251.863128 162.410897,252.487594 C160.806328,252.950652 159.212315,253.411064 157.62358,253.871475 C154.422359,254.689103 151.30295,255.821609 148.04103,256.197348 C144.80814,256.702742 141.583167,257.245181 138.334443,257.628857 C135.064605,257.742637 131.784212,257.859063 128.472149,257.975489 C129.311381,257.668548 130.184921,257.374837 131.071656,257.094356 C125.782912,257.470095 120.507363,256.731848 115.223897,256.578378 C112.584803,256.419615 109.977378,255.898345 107.343563,255.615218 C104.715025,255.258002 102.04954,255.091301 99.4632281,254.466835 C86.5316678,252.508763 73.9326333,247.957568 62.1279661,241.450947 C50.3364944,234.901989 39.3631418,226.135647 30.1315912,215.17838 C10.9532955,192.102234 0.354694226,163.106889 0.074950268,132.071444 L0.18315312,136.826384 L0.713611002,141.55751 C1.12794875,144.703656 1.28629439,147.860386 1.89856418,150.974779 C2.51875126,154.078588 3.14421652,157.190335 3.76704269,160.315313 C4.37667339,163.434998 5.46661919,166.464718 6.26890375,169.568527 L7.32718042,173.754568 C7.81013461,175.106696 8.2930888,176.456178 8.7734039,177.800369 C9.76570322,180.475519 10.6999425,183.150669 11.781971,185.717331 C10.797589,182.999844 9.82376329,180.306172 8.85785491,177.633668 L7.39579686,173.640788 L6.26890375,169.568527 C5.60913026,166.874855 4.89921399,164.181182 4.30541786,161.471634 C3.89899739,158.72504 3.48993783,155.981093 3.08615646,153.250376 C2.8935026,151.885018 2.65598414,150.530244 2.49763851,149.170177 C2.41582659,147.804819 2.33401468,146.442106 2.25484186,145.087332 C2.06746619,142.377783 1.88272962,139.697341 1.70063214,137.051298 C1.70327123,134.399962 1.70591032,131.788317 1.71118851,129.224301 C1.74285764,126.657638 1.51061737,124.112145 1.75077492,121.659262 C1.88536871,119.195796 1.96718062,116.779958 1.99621066,114.414395 C1.99884975,113.228967 2.00148885,112.05677 2.00676703,110.903095 C2.07274438,109.76265 2.13872173,108.638082 2.20469908,107.526743 C2.98587089,105.764478 3.36062223,105.862382 3.81454638,104.092179 L5.03380779,99.4377882 C5.48245376,97.903083 6.10527993,96.4265906 6.63309871,94.9262839 C7.7705482,91.9600691 8.72062202,88.9462255 9.94252252,86.1070207 C11.2277613,83.2969224 12.4523009,80.5185767 13.5818331,77.7746295 L14.4157867,75.7265918 L15.3658606,73.7764577 C15.9860476,72.4772503 16.5745656,71.188627 17.1287753,69.9000038 C16.7936104,69.7015506 19.6966137,64.9386721 18.0814882,66.1002853 C23.9851414,56.6062809 32.2243927,46.3237556 40.4055839,38.5549717 C41.2685676,37.6870694 42.1130777,36.7979987 42.9417532,35.8877598 L45.5755689,33.3131594 C47.3279273,31.5773548 49.0486166,29.770107 50.7719449,27.9205226 C66.8651398,15.2115753 86.2519239,6.56959698 107.077014,2.46822944 C117.496157,0.285243497 128.290051,-0.214858738 139.281878,0.0762060549 C142.029174,0.166171536 144.771193,0.571016203 147.542242,0.830328473 C150.297456,1.19812853 153.126564,1.29074005 155.868583,1.92843656 C161.360537,3.13767847 167.042507,4.02410306 172.486958,5.97688322 C183.57643,9.13890529 195.296646,15.6640487 204.968926,22.0727663 C190.150413,13.4175577 173.539956,7.18877118 156.245973,4.29664555 C139.754275,0.229676582 123.106871,0.160879449 110.241288,3.6377807 C107.261751,4.44747004 104.305966,5.25186728 101.339624,6.05891057 C119.330327,1.78025812 138.094285,1.21400479 156.245973,4.29664555 C161.059681,5.69375656 166.037012,6.75482003 170.710847,8.7631671 L177.796815,11.5018222 C180.148247,12.4252914 182.359808,13.6609938 184.634707,14.7141191 C184.436775,14.650614 184.259956,14.5924011 184.056745,14.52625 L178.572708,12.3300338 L172.898656,10.6048134 L167.219326,8.9086995 C165.337652,8.32127782 163.353053,8.05931951 161.423876,7.62801441 C159.626653,7.13849635 157.839986,6.65162433 156.063876,6.16739836 L153.403669,5.46619681 C152.509016,5.28891189 151.606446,5.15925576 150.714432,5.00578523 C147.135821,4.42630169 143.602074,3.90767715 140.150139,3.47637204 C133.198766,3.26468856 126.556167,2.96039355 120.528476,4.21197216 C119.026832,4.46070025 117.538383,4.72795065 116.129106,5.02959962 C113.141652,5.44767451 110.20698,6.33674515 107.288142,7.09880569 C112.777457,5.77842995 118.369697,5.44767451 123.95402,4.87348305 C126.74882,4.48980673 129.54626,4.69355209 132.346339,4.63269309 C135.143778,4.66709165 137.957052,4.56389595 140.749214,4.74118087 C144.216983,5.08781258 147.682114,5.43444429 151.141966,5.77842995 C152.889046,5.89750191 154.588622,6.26794801 156.296116,6.60664159 L161.423876,7.62801441 C165.680734,8.64674118 169.773969,10.3666695 173.885677,11.9622338 C173.415919,11.8960827 172.922408,11.8246395 172.484318,11.7637805 C170.592088,11.3113071 166.79971,11.1207919 164.118391,11.7531963 C161.41068,12.4199993 159.906397,13.5101693 162.392423,14.7617479 C169.106278,16.8494763 176.461433,19.384386 183.367942,22.7792599 C186.935997,24.2478141 190.184721,26.2720374 193.417612,28.0951614 C195.019542,29.0318609 196.639945,29.889179 198.138951,30.8549849 C199.601009,31.8763577 201.028758,32.8739161 202.409005,33.837076 C208.083057,37.541537 212.374223,41.5820455 215.583362,44.2889481 C217.214322,45.617262 218.317463,46.8820708 219.11183,47.7129285 C219.895641,48.5543703 220.304701,49.0280121 220.270392,49.0597647 C220.283588,49.3640597 219.758408,49.083579 218.834725,48.3744394 C217.88993,47.686468 216.654834,46.4613499 214.894558,45.2256475 C211.426789,42.703968 207.069645,38.8751429 202.092313,35.8877598 C199.632678,34.3662847 197.35514,32.6040197 194.935091,31.4133001 C192.565184,30.1670136 190.369458,29.0080465 188.514175,28.0290103 C187.587853,27.5500765 186.745982,27.1161253 186.009675,26.735095 C185.254894,26.3937554 184.587203,26.1556115 184.062024,25.9465741 C183.009025,25.5390833 182.486484,25.3697366 182.665943,25.5099769 C183.806031,26.1900101 184.998902,26.7694936 186.099404,27.5130319 L189.387715,29.7489387 C187.083786,28.7143356 184.864308,27.6850247 182.636913,27.1108332 C180.156165,26.123859 177.369281,24.7796688 174.753939,23.5810111 C172.088454,22.5067174 169.520616,21.7605331 167.741867,21.4932827 C166.195358,21.2366165 164.648848,20.9296754 163.0997,20.5830437 C161.545274,20.2575804 159.916953,20.1014638 158.320301,19.8024609 C156.72101,19.50875 155.105885,19.2150392 153.474925,18.9133902 C151.85716,18.5799888 150.2262,18.2386491 148.53718,18.1142851 C145.190809,17.7517771 141.804851,17.3284101 138.389864,17.0373454 C134.951124,17.0373454 131.491272,17.1034964 128.06045,17.3231181 C125.909589,17.4051454 123.671637,18.0401959 121.372986,18.4265182 C119.098087,18.8842838 116.744015,19.3579256 114.334522,19.8395055 C111.998924,20.5698135 109.610544,21.3133518 107.195773,22.0648281 C106.008181,22.4405663 104.812672,22.8189506 103.614523,23.1973348 C102.426931,23.5915953 101.278925,24.1684328 100.115084,24.6447206 C100.289265,25.398843 95.4043016,26.2588072 97.2015246,26.6001468 C92.662283,27.5500765 88.0385905,29.4922724 84.0799495,31.2042626 C82.071599,31.9954297 80.4142481,33.1835032 79.0155283,34.1784156 C77.6247258,35.2050805 76.5558927,36.1920548 75.9383447,37.11817 L75.3735786,37.4595096 C74.8035343,37.7426363 74.0302798,38.2321544 73.2596644,38.8328063 C70.0030225,40.7062051 67.0577936,42.5716658 64.3236923,44.4265424 C61.7716884,46.5539614 59.4255339,48.6628581 57.1717477,50.7691088 C52.9175283,55.2964894 49.0987593,59.9111893 45.3591632,65.4520046 L43.160798,68.0848179 C42.5010245,69.0268095 41.841251,69.9767391 41.1761993,70.9293148 C39.8170659,72.8080057 38.4447371,74.707865 37.0512955,76.6368308 C38.890744,74.1257354 41.9705666,70.640896 43.5487448,67.9260553 C44.1610146,67.0925516 44.762728,66.26434 45.3591632,65.4520046 C46.2960416,64.3089138 47.2302808,63.171115 48.1592419,62.0386084 C49.0776466,60.8928715 49.9775776,59.7365505 51.0305761,58.736346 C53.0442048,56.6248032 55.044638,54.5317828 57.0318757,52.4519925 C59.2012109,50.5468411 61.3573507,48.65492 63.5082123,46.7682909 C64.0518656,46.2999412 64.5770453,45.802485 65.1391723,45.3553037 L66.8809743,44.103725 L70.383052,41.5952757 C71.0639382,40.9099505 72.1723577,39.8012582 73.2596644,38.8328063 C74.006528,38.4623602 74.7797825,38.1421889 75.553037,37.8034953 C75.6586008,37.5759356 75.7879164,37.3457298 75.9383447,37.11817 C78.3214466,35.6972446 80.7731648,34.1360789 83.3594769,32.807765 C86.0223227,31.6196915 88.7036421,30.4236798 91.3348188,29.2514825 C93.9765518,28.0501787 96.7396832,27.3754376 99.3048825,26.4175698 C100.598039,25.9624503 101.862165,25.517915 103.091982,25.0866099 C104.332356,24.7029336 105.559535,24.4330371 106.728654,24.0943436 C124.521425,19.7336638 144.889952,21.3742108 162.421453,27.7405916 C160.220449,26.9944073 157.884851,26.732449 155.631064,26.2826216 C153.358805,25.8883611 151.118214,25.4358876 148.872345,25.1104243 C146.605363,24.9463696 144.348938,24.7796688 142.10043,24.6156141 C139.859839,24.4621436 137.650917,24.2292918 135.420883,24.4012846 C146.452296,24.8114214 157.050897,26.1979482 166.873605,29.4234753 C168.362054,30.0003128 169.853142,30.4898309 171.299365,31.1142972 L180.224781,35.4247021 C177.498597,33.9508559 174.804082,32.4981779 172.122763,31.0481461 C175.01257,32.1885908 177.886544,33.3210975 180.742043,34.4483121 C183.5474,35.7051828 186.233998,37.176383 188.986573,38.5179271 C189.904978,39.0286135 190.862969,39.4890251 191.754982,40.0499863 L194.386159,41.8148974 L199.664347,45.3923483 C203.09253,47.9140278 206.291112,50.779693 209.589979,53.5527466 L214.110747,58.1780308 C215.580722,59.7577188 217.214322,61.2130428 218.491643,62.9673697 L222.537374,68.0768798 C223.199787,68.9421361 223.904425,69.7756398 224.52989,70.6647104 L226.292805,73.4192418 C235.914941,87.9671893 242.06403,104.975957 243.858614,122.254622 C243.28857,121.64074 242.707969,120.9316 242.116812,120.148371 C239.691485,103.809052 233.418358,87.9883577 224.754213,77.6978942 C227.32733,81.6166848 229.037462,85.1861975 230.919136,88.6419304 C232.9486,92.0368044 234.178417,95.7518495 235.851603,99.9775811 C235.637836,100.041086 235.363371,100.223663 234.970146,99.5621523 C236.294971,102.165859 237.155315,105.187641 238.150254,108.286158 C238.62793,109.847324 239.110884,111.427012 239.596477,113.014638 C239.965951,114.628724 240.224582,116.27721 240.514882,117.904526 C239.168944,115.980853 237.999826,113.813743 236.350392,111.818626 C235.566581,110.320965 234.875138,108.40523 234.183696,106.285749 C233.82214,105.232624 233.523922,104.108055 233.101667,102.999363 C232.621352,101.911839 232.130481,100.797855 231.639609,99.6838703 C228.097945,89.8220659 222.917404,81.0028027 217.198487,72.7577309 L212.593268,66.7882566 C211.028285,64.8222462 209.183559,63.0943798 207.483982,61.2421493 L204.879197,58.5114323 C203.976626,57.6355919 202.973771,56.855009 202.023697,56.0241513 C200.089241,54.3968345 198.183815,52.727181 196.18866,51.1554312 C182.193545,39.6954165 165.464329,31.4979735 148.012,28.0634089 C165.543501,30.5109992 181.193328,36.8297513 195.030098,45.49819 Z" fill="#BC84F5"></path>
    <path d="M169.074873,29.6949594 C175.873179,31.9652648 182.584395,34.8520983 188.986837,38.5168686 C191.607457,39.694358 193.935138,41.3216748 196.384217,42.7928751 C198.804266,44.306412 201.321962,45.7167532 203.546718,47.5187089 C214.554379,55.6420626 224.56974,67.2079191 231.866835,80.62336 C239.216712,94.0229247 243.864156,109.139772 245.838198,123.976138 C247.070655,124.732906 248.247691,124.743491 249.303329,123.518372 C248.197548,106.787439 242.747819,90.3766766 234.286884,75.9610312 C225.828588,61.495111 214.485762,48.9660947 201.504059,38.5644974 L200.80206,38.1940513 C199.205408,37.3579016 197.532223,36.4079719 195.795699,35.3733689 C194.072371,34.3228896 192.090411,33.4735096 190.161234,32.4124461 C188.216221,31.3778431 186.202593,30.3061954 184.14146,29.2107334 C182.003794,28.274034 179.818624,27.3188123 177.604425,26.3503603 C173.276311,24.2202952 168.47052,22.9713627 163.926001,21.473702 C162.793829,21.0820876 161.635267,20.8016069 160.463509,20.6031537 C159.302308,20.3835321 158.151663,20.1639104 157.011575,19.9495809 C154.734036,19.5420902 152.514558,19.1610599 150.368975,18.8885174 C133.038045,17.7930554 115.854905,18.9414383 100.115348,24.6436622 C123.297149,19.2563175 147.310265,20.2882745 169.074873,29.6949594" fill="#BC84F5"></path>
    <path d="M33.3161858,110.781642 C33.7463581,108.064155 34.696432,105.492201 35.5224684,102.859387 L36.7575643,98.8956139 L38.3990808,95.0667888 C44.2631475,80.7014183 52.2305721,68.7545316 62.5837377,58.395271 C54.4975538,65.4231627 47.4168648,73.6153136 41.5844672,82.7097654 C35.9711143,92.042361 34.4562744,101.486091 33.3161858,110.781642" fill="#BC84F5"></path>
    <path d="M71.559824,50.5259374 C70.7601785,51.1504037 69.9235857,51.7034268 69.171444,52.3728758 L66.9598832,54.4129754 C65.4951861,55.7465814 64.0384062,57.0722492 62.5842655,58.395271 C74.7478495,48.2132953 89.062295,40.722346 104.442934,36.7453425 C129.670033,29.6274853 158.069323,32.5751778 182.383296,45.3343999 C183.763542,46.0620619 185.156984,46.7659095 186.510839,47.525324 C187.798717,48.3932263 189.081316,49.2584825 190.358638,50.1237388 C170.003306,34.5994011 143.799742,26.6850848 119.208665,29.1750118 C106.952713,30.2228451 95.2034666,33.4880628 84.7737673,38.5208377 C74.4021281,43.7203133 65.4740733,50.6847 58.356437,58.4455458 C57.8470918,59.0329675 57.2823257,59.6812482 56.7465897,60.3004224 C60.2354719,56.7282635 64.3049547,53.8731825 68.1844228,50.7720195 L74.4337973,46.7526793 C76.4658996,45.3158776 78.695934,44.2389379 80.9022165,43.1170154 L84.203723,41.4129633 L85.8531568,40.5529992 L87.5791242,39.875612 L94.4777158,37.1157886 C96.8001184,36.2558244 99.2201676,35.7054474 101.590074,34.9724933 L105.163407,33.922014 L108.82383,33.2499189 C95.2113839,36.3669582 82.4276128,42.3073261 71.559824,50.5259374" fill="#BC84F5"></path>
    <path d="M162.420661,27.7413854 C163.917028,28.3049927 165.392281,28.8633079 166.872813,29.4216231 C168.633089,29.9852304 170.451424,30.3345081 172.121971,31.0489399 C171.150784,30.4879786 170.097786,30.1122405 169.073817,29.6941656 C166.846422,29.0405928 164.624305,28.3896661 162.420661,27.7413854" fill="#BC84F5"></path>
    <path d="M115.09854,12.3612572 C114.879495,12.3612572 114.655172,12.3586111 114.425571,12.3586111 C111.617575,12.7343493 108.812218,13.3720458 105.98311,13.872148 L101.739447,14.6765453 C100.33281,15.0020086 98.9499244,15.4571281 97.5512046,15.8434505 C93.7773002,17.2379155 89.8529675,18.3307314 86.1239278,20.188254 C82.3579407,21.9134744 78.4679163,23.4349495 74.8391621,25.6205815 C88.4832778,18.6747171 103.283317,14.9067511 115.09854,12.3612572" fill="#BC84F5"></path>
    <path d="M63.3501305,18.294216 C61.6188849,19.1515342 58.3754385,21.2366165 56.7022529,22.2182987 L54.0895499,24.6420746 C55.6360589,23.7265435 57.1984026,22.8004283 58.755468,21.876959 C60.2782252,20.6915315 61.7455614,19.3790939 63.3501305,18.294216" fill="#BC84F5"></path>
    <mask fill="white">
        <use xlink:href="#path-1"></use>
    </mask>
   
    <path d="M2.20496299,107.527008 C8.1666762,75.3167196 25.8855529,47.0754966 50.7722088,27.9207872 C51.8093727,26.7432978 52.9389049,25.6822343 54.0895499,24.6423392 C35.9985609,35.7901207 21.72898,52.566037 13.8433673,70.0934296 C12.0593398,73.4459668 10.7107628,79.0873317 9.11938912,82.4398689 C2.03606098,98.6654081 -0.481634644,115.687406 0.0725750834,132.071708 C-0.0699359895,124.220897 0.703318536,116.256306 2.06509101,108.193811 L2.20496299,107.527008 Z" fill="#BC84F5" mask="url(#mask-2)"></path>

</svg>