<svg viewBox="0 0 42 42" xmlns="http://www.w3.org/2000/svg"><path d="M21 0C9.421 0 0 9.421 0 21s9.421 21 21 21c6.82 0 13.229-3.325 17.166-8.901a.708.708 0 0 0 .14-.197c.658-1.364.296-2.391-.122-3.012-1.088-1.614-3.867-2.379-6.322-2.387v-.952c0-1.063-.866-1.93-1.932-1.93-.785 0-1.426-.326-2.17-.701-.456-.232-.926-.471-1.455-.645a1.947 1.947 0 0 0-1.994.478l-2.013 2.144c-2.865-1.554-4.66-3.352-6.195-6.195l2.153-2.027a1.945 1.945 0 0 0 .477-1.971l-.25-.736c-.44-1.275-1.104-3.202-1.104-4.346a1.933 1.933 0 0 0-1.932-1.932H10.62c-1.064 0-1.93.866-1.93 1.932 0 12.086 9.925 22.688 21.24 22.688a1.933 1.933 0 0 0 1.932-1.932V28.95c2.255-.003 4.423.716 5.121 1.75.291.432.314.901.067 1.468l-.002.004A19.585 19.585 0 0 1 21 40.552C10.219 40.552 1.448 31.78 1.448 21S10.22 1.448 21 1.448c10.781 0 19.552 8.772 19.552 19.552A.724.724 0 0 0 42 21C42 9.421 32.579 0 21 0" fill="#2C3E50" fill-rule="evenodd"/></svg>