<svg width="60" height="60" xmlns="http://www.w3.org/2000/svg"><g transform="translate(1 1)" fill="none" fill-rule="evenodd"><circle stroke="#408AF8" fill="#408AF8" cx="29" cy="29" r="29"/><path d="M29.429 14l-8.794 8.793c-4.847 4.848-4.847 12.724 0 17.572A12.397 12.397 0 0 0 29.43 44c3.185 0 6.37-1.212 8.793-3.635 4.847-4.848 4.847-12.724 0-17.572L29.43 14zm0 26.908a9.21 9.21 0 0 1-6.587-2.734 9.237 9.237 0 0 1-2.735-6.587 9.21 9.21 0 0 1 2.735-6.588l6.587-6.602v22.511z" fill="#F9F9FB"/></g></svg>