<svg viewBox="0 0 42 42" xmlns="http://www.w3.org/2000/svg"><path d="M32.61 26.6L22.606 36.61a.685.685 0 0 0-.206.49v4.2c0 .392.314.7.7.7h4.2c.186 0 .364-.07.496-.196L37.8 31.794 32.61 26.6m9.184.21l-4.2-4.2a.688.688 0 0 0-.99 0L33.6 25.62l5.19 5.18 3.004-2.996a.703.703 0 0 0 0-.994M22.4 15.358v.742c0 .392-.314.7-.7.7a.697.697 0 0 1-.7-.7v-.742c-1.529-.21-2.685-1.093-2.797-2.226a.69.69 0 0 1 .628-.756.686.686 0 0 1 .766.616c.037.378.595.784 1.403.938v-2.143c-1.107-.209-2.8-.727-2.8-2.337 0-1.204 1.184-2.184 2.8-2.394V6.3c0-.378.314-.7.7-.7.386 0 .7.322.7.7v.756c1.529.21 2.685 1.092 2.797 2.212a.703.703 0 0 1-.628.77.69.69 0 0 1-.766-.63c-.037-.378-.595-.771-1.403-.924v2.128c1.105.224 2.8.742 2.8 2.338 0 1.204-1.184 2.184-2.8 2.408zm.7 11.242H3.5a.697.697 0 0 1-.7-.7c0-.378.314-.7.7-.7h19.6c.386 0 .7.322.7.7 0 .392-.314.7-.7.7zm-12.6 7h-7a.697.697 0 0 1-.7-.7c0-.38.314-.7.7-.7h7c.386 0 .7.32.7.7 0 .392-.314.7-.7.7zM9.8 2.394V9.8H2.39L9.8 2.394zM11.9 18.2c.386 0 .7.322.7.7 0 .392-.314.7-.7.7H3.5a.697.697 0 0 1-.7-.7c0-.378.314-.7.7-.7h8.4zM30.1 0H10.5a.877.877 0 0 0-.267.056.73.73 0 0 0-.229.154l-9.798 9.8a.795.795 0 0 0-.153.224A.72.72 0 0 0 0 10.5v26.6c0 .392.314.7.7.7h19.6c.386 0 .7-.308.7-.7 0-.546.224-1.092.615-1.484l8.98-8.974a.722.722 0 0 0 .205-.504V.7c0-.378-.314-.7-.7-.7z" fill="#2C3E50" fill-rule="evenodd"/></svg>