<svg width="84" height="84" xmlns="http://www.w3.org/2000/svg"><defs><filter x="-4.8%" y="-15.8%" width="109.5%" height="135.6%" filterUnits="objectBoundingBox" id="a"><feOffset dy="6" in="SourceAlpha" result="shadowOffsetOuter1"/><feGaussianBlur stdDeviation="18" in="shadowOffsetOuter1" result="shadowBlurOuter1"/><feColorMatrix values="0 0 0 0 0 0 0 0 0 0 0 0 0 0 0 0 0 0 0.06 0" in="shadowBlurOuter1" result="shadowMatrixOuter1"/><feMerge><feMergeNode in="shadowMatrixOuter1"/><feMergeNode in="SourceGraphic"/></feMerge></filter></defs><g filter="url(#a)" transform="translate(-1075 -93)" fill="#C0C4D1"><path d="M1114 127h2v6h-2zm4 0h2v6h-2z"/><path d="M1121 121c0-.6-.4-1-1-1h-6c-.6 0-1 .4-1 1v2h-4v2h1v10c0 .6.4 1 1 1h12c.6 0 1-.4 1-1v-10h1v-2h-4v-2zm-6 1h4v1h-4v-1zm7 3v9h-10v-9h10z"/></g></svg>