<?xml version="1.0" encoding="UTF-8"?>
<svg width="864px" height="100px" viewBox="0 0 864 100" version="1.1" xmlns="http://www.w3.org/2000/svg" xmlns:xlink="http://www.w3.org/1999/xlink">
    <!-- Generator: Sketch 49.3 (51167) - http://www.bohemiancoding.com/sketch -->
    <title>Group 11</title>
    <desc>Created with Sketch.</desc>
    <defs></defs>
    <g id="Page-1-Copy" stroke="none" stroke-width="1" fill="none" fill-rule="evenodd">
        <g id="Group-5" transform="translate(-7.000000, 0.000000)" fill="#FFFFFF">
            <g id="Group-2" transform="translate(7.000000, 0.000000)">
                <g id="Group-11">
                    <path d="M0.685,2.995 L20.695,2.995 C20.8883343,4.25167295 21.0333329,5.48416063 21.13,6.6925 C21.2266672,7.90083938 21.3233329,9.13332705 21.42,10.39 C23.6433445,7.58665265 26.4949826,5.43584083 29.975,3.9375 C33.4550174,2.43915918 37.0799811,1.69 40.85,1.69 C45.7800247,1.69 50.1299812,2.656657 53.9,4.59 C57.6700188,6.523343 60.8116541,9.10915048 63.325,12.3475 C65.8383459,15.5858495 67.723327,19.307479 68.98,23.5125 C70.2366729,27.717521 70.865,32.0433111 70.865,36.49 C70.865,42.7733648 69.8016773,48.2349768 67.675,52.875 C65.5483227,57.5150232 62.7933503,61.3333184 59.41,64.33 C56.0266497,67.3266817 52.2083546,69.5499928 47.955,71 C43.7016454,72.4500072 39.4966874,73.175 35.34,73.175 C32.0533169,73.175 29.3466773,72.8850029 27.22,72.305 C25.0933227,71.7249971 23.1600087,71.1450029 21.42,70.565 L21.42,100 L0.685,100 L0.685,2.995 Z M21.42,53.02 C24.1266802,54.8566759 28.1383068,55.775 33.455,55.775 C38.5783589,55.775 42.6141519,54.0591838 45.5625,50.6275 C48.5108481,47.1958162 49.985,42.6283619 49.985,36.925 C49.985,34.7016556 49.7191693,32.5266773 49.1875,30.4 C48.6558307,28.2733227 47.8341722,26.412508 46.7225,24.8175 C45.6108278,23.222492 44.1608423,21.9416715 42.3725,20.975 C40.5841577,20.0083285 38.385013,19.525 35.775,19.525 C33.4549884,19.525 31.4008423,19.9599957 29.6125,20.83 C27.8241577,21.7000044 26.3258394,22.8599928 25.1175,24.31 C23.9091606,25.7600073 22.9908365,27.4033242 22.3625,29.24 C21.7341635,31.0766759 21.42,32.961657 21.42,34.895 L21.42,53.02 Z M88.8588094,2.995 L108.868809,2.995 L109.593809,11.55 C111.333818,9.2299884 113.726294,7.0066773 116.771309,4.88 C119.816325,2.7533227 123.755452,1.69 128.588809,1.69 C130.425485,1.69 131.996303,1.7866657 133.301309,1.98 C134.606316,2.1733343 135.887136,2.51166425 137.143809,2.995 L133.808809,21.41 C131.682132,20.7333299 129.168824,20.395 126.268809,20.395 C121.338785,20.395 117.351325,21.8691519 114.306309,24.8175 C111.261294,27.7658481 109.738809,31.9466396 109.738809,37.36 L109.738809,71 L88.8588094,71 L88.8588094,2.995 Z M183.702619,55.195 C186.312632,55.195 188.632609,54.6875051 190.662619,53.6725 C192.692629,52.6574949 194.408445,51.2800087 195.810119,49.54 C197.211793,47.7999913 198.250949,45.8425109 198.927619,43.6675 C199.604289,41.4924891 199.942619,39.2450116 199.942619,36.925 C199.942619,34.6049884 199.604289,32.3575109 198.927619,30.1825 C198.250949,28.0074891 197.211793,26.0741751 195.810119,24.3825 C194.408445,22.6908249 192.692629,21.3375051 190.662619,20.3225 C188.632609,19.3074949 186.312632,18.8 183.702619,18.8 C181.092606,18.8 178.748463,19.3074949 176.670119,20.3225 C174.591775,21.3375051 172.875959,22.6908249 171.522619,24.3825 C170.169279,26.0741751 169.130122,28.0074891 168.405119,30.1825 C167.680115,32.3575109 167.317619,34.6049884 167.317619,36.925 C167.317619,39.2450116 167.680115,41.4924891 168.405119,43.6675 C169.130122,45.8425109 170.169279,47.7999913 171.522619,49.54 C172.875959,51.2800087 174.591775,52.6574949 176.670119,53.6725 C178.748463,54.6875051 181.092606,55.195 183.702619,55.195 Z M147.162619,36.925 C147.162619,31.8983082 148.056777,27.1858553 149.845119,22.7875 C151.633461,18.3891447 154.122603,14.5466831 157.312619,11.26 C160.502635,7.9733169 164.345096,5.38750943 168.840119,3.5025 C173.335141,1.61749058 178.289258,0.675 183.702619,0.675 C189.115979,0.675 194.04593,1.61749058 198.492619,3.5025 C202.939308,5.38750943 206.757603,7.9733169 209.947619,11.26 C213.137635,14.5466831 215.626777,18.3891447 217.415119,22.7875 C219.203461,27.1858553 220.097619,31.8983082 220.097619,36.925 C220.097619,41.9516918 219.203461,46.6641447 217.415119,51.0625 C215.626777,55.4608553 213.137635,59.3033169 209.947619,62.59 C206.757603,65.8766831 202.939308,68.486657 198.492619,70.42 C194.04593,72.353343 189.115979,73.32 183.702619,73.32 C178.289258,73.32 173.335141,72.353343 168.840119,70.42 C164.345096,68.486657 160.502635,65.8766831 157.312619,62.59 C154.122603,59.3033169 151.633461,55.4608553 149.845119,51.0625 C148.056777,46.6641447 147.162619,41.9516918 147.162619,36.925 Z M238.091428,2.995 L258.101428,2.995 C258.294763,4.25167295 258.439761,5.48416063 258.536428,6.6925 C258.633095,7.90083938 258.729761,9.13332705 258.826428,10.39 C261.049773,7.58665265 263.901411,5.43584083 267.381428,3.9375 C270.861446,2.43915918 274.486409,1.69 278.256428,1.69 C283.186453,1.69 287.536409,2.656657 291.306428,4.59 C295.076447,6.523343 298.218082,9.10915048 300.731428,12.3475 C303.244774,15.5858495 305.129755,19.307479 306.386428,23.5125 C307.643101,27.717521 308.271428,32.0433111 308.271428,36.49 C308.271428,42.7733648 307.208106,48.2349768 305.081428,52.875 C302.954751,57.5150232 300.199779,61.3333184 296.816428,64.33 C293.433078,67.3266817 289.614783,69.5499928 285.361428,71 C281.108074,72.4500072 276.903116,73.175 272.746428,73.175 C269.459745,73.175 266.753106,72.8850029 264.626428,72.305 C262.499751,71.7249971 260.566437,71.1450029 258.826428,70.565 L258.826428,100 L238.091428,100 L238.091428,2.995 Z M258.826428,53.02 C261.533108,54.8566759 265.544735,55.775 270.861428,55.775 C275.984787,55.775 280.02058,54.0591838 282.968928,50.6275 C285.917276,47.1958162 287.391428,42.6283619 287.391428,36.925 C287.391428,34.7016556 287.125598,32.5266773 286.593928,30.4 C286.062259,28.2733227 285.240601,26.412508 284.128928,24.8175 C283.017256,23.222492 281.567271,21.9416715 279.778928,20.975 C277.990586,20.0083285 275.791441,19.525 273.181428,19.525 C270.861417,19.525 268.807271,19.9599957 267.018928,20.83 C265.230586,21.7000044 263.732268,22.8599928 262.523928,24.31 C261.315589,25.7600073 260.397265,27.4033242 259.768928,29.24 C259.140592,31.0766759 258.826428,32.961657 258.826428,34.895 L258.826428,53.02 Z M422.269047,63.605 C421.49571,64.0883357 420.335722,64.8858278 418.789047,65.9975 C417.242373,67.1091722 415.236559,68.1966613 412.771547,69.26 C410.306535,70.3233386 407.382397,71.2658292 403.999047,72.0875 C400.615697,72.9091708 396.749069,73.32 392.399047,73.32 C386.599018,73.32 381.37907,72.4258423 376.739047,70.6375 C372.099024,68.8491577 368.159897,66.3600159 364.921547,63.17 C361.683198,59.979984 359.218222,56.1375225 357.526547,51.6425 C355.834872,47.1474775 354.989047,42.1933604 354.989047,36.78 C354.989047,32.0433096 355.786539,27.4758553 357.381547,23.0775 C358.976555,18.6791447 361.272366,14.8366831 364.269047,11.55 C367.265729,8.2633169 370.939025,5.62917658 375.289047,3.6475 C379.639069,1.66582343 384.56902,0.675 390.079047,0.675 C395.589075,0.675 400.42236,1.641657 404.579047,3.575 C408.735735,5.508343 412.239866,8.19081618 415.091547,11.6225 C417.943228,15.0541838 420.09404,19.1624761 421.544047,23.9475 C422.994054,28.7325239 423.719047,33.9766382 423.719047,39.68 L423.719047,43.16 L375.289047,43.16 C375.385714,46.8333517 377.004865,50.0474862 380.146547,52.8025 C383.28823,55.5575138 387.61402,56.935 393.124047,56.935 C398.537408,56.935 402.935697,56.137508 406.319047,54.5425 C409.702397,52.947492 412.167373,51.5700058 413.714047,50.41 L422.269047,63.605 Z M403.999047,29.82 C403.999047,28.3699928 403.70905,26.8958408 403.129047,25.3975 C402.549044,23.8991592 401.679053,22.521673 400.519047,21.265 C399.359041,20.008327 397.909056,18.9691708 396.169047,18.1475 C394.429038,17.3258292 392.350726,16.915 389.934047,16.915 C387.517368,16.915 385.390723,17.3258292 383.554047,18.1475 C381.717371,18.9691708 380.194887,20.008327 378.986547,21.265 C377.778208,22.521673 376.859884,23.8991592 376.231547,25.3975 C375.603211,26.8958408 375.289047,28.3699928 375.289047,29.82 L403.999047,29.82 Z M441.132857,2.995 L461.142857,2.995 L461.867857,11.55 C463.607865,9.2299884 466.000341,7.0066773 469.045357,4.88 C472.090372,2.7533227 476.029499,1.69 480.862857,1.69 C482.699532,1.69 484.27035,1.7866657 485.575357,1.98 C486.880363,2.1733343 488.161184,2.51166425 489.417857,2.995 L486.082857,21.41 C483.956179,20.7333299 481.442871,20.395 478.542857,20.395 C473.612832,20.395 469.625372,21.8691519 466.580357,24.8175 C463.535341,27.7658481 462.012857,31.9466396 462.012857,37.36 L462.012857,71 L441.132857,71 L441.132857,2.995 Z M535.555475,2.995 L555.565475,2.995 L556.145475,10.39 C558.36882,7.6833198 561.292957,5.50834155 564.917975,3.865 C568.542994,2.22165845 572.337122,1.4 576.300475,1.4 C584.130515,1.4 590.341286,3.7199768 594.932975,8.36 C599.524665,13.0000232 601.820475,19.8632879 601.820475,28.95 L601.820475,71 L580.940475,71 L580.940475,31.85 C580.940475,28.0799811 579.997985,25.0833444 578.112975,22.86 C576.227966,20.6366556 573.593826,19.525 570.210475,19.525 C567.890464,19.525 565.860484,19.9358292 564.120475,20.7575 C562.380467,21.5791708 560.930481,22.6666599 559.770475,24.02 C558.61047,25.3733401 557.740478,26.9441577 557.160475,28.7325 C556.580473,30.5208423 556.290475,32.4299899 556.290475,34.46 L556.290475,71 L535.555475,71 L535.555475,2.995 Z M655.919285,55.195 C658.529298,55.195 660.849275,54.6875051 662.879285,53.6725 C664.909295,52.6574949 666.625111,51.2800087 668.026785,49.54 C669.428459,47.7999913 670.467615,45.8425109 671.144285,43.6675 C671.820955,41.4924891 672.159285,39.2450116 672.159285,36.925 C672.159285,34.6049884 671.820955,32.3575109 671.144285,30.1825 C670.467615,28.0074891 669.428459,26.0741751 668.026785,24.3825 C666.625111,22.6908249 664.909295,21.3375051 662.879285,20.3225 C660.849275,19.3074949 658.529298,18.8 655.919285,18.8 C653.309272,18.8 650.965129,19.3074949 648.886785,20.3225 C646.808441,21.3375051 645.092625,22.6908249 643.739285,24.3825 C642.385945,26.0741751 641.346789,28.0074891 640.621785,30.1825 C639.896781,32.3575109 639.534285,34.6049884 639.534285,36.925 C639.534285,39.2450116 639.896781,41.4924891 640.621785,43.6675 C641.346789,45.8425109 642.385945,47.7999913 643.739285,49.54 C645.092625,51.2800087 646.808441,52.6574949 648.886785,53.6725 C650.965129,54.6875051 653.309272,55.195 655.919285,55.195 Z M619.379285,36.925 C619.379285,31.8983082 620.273443,27.1858553 622.061785,22.7875 C623.850127,18.3891447 626.339269,14.5466831 629.529285,11.26 C632.719301,7.9733169 636.561762,5.38750943 641.056785,3.5025 C645.551807,1.61749058 650.505924,0.675 655.919285,0.675 C661.332645,0.675 666.262596,1.61749058 670.709285,3.5025 C675.155974,5.38750943 678.974269,7.9733169 682.164285,11.26 C685.354301,14.5466831 687.843443,18.3891447 689.631785,22.7875 C691.420127,27.1858553 692.314285,31.8983082 692.314285,36.925 C692.314285,41.9516918 691.420127,46.6641447 689.631785,51.0625 C687.843443,55.4608553 685.354301,59.3033169 682.164285,62.59 C678.974269,65.8766831 675.155974,68.486657 670.709285,70.42 C666.262596,72.353343 661.332645,73.32 655.919285,73.32 C650.505924,73.32 645.551807,72.353343 641.056785,70.42 C636.561762,68.486657 632.719301,65.8766831 629.529285,62.59 C626.339269,59.3033169 623.850127,55.4608553 622.061785,51.0625 C620.273443,46.6641447 619.379285,41.9516918 619.379285,36.925 Z M710.018094,2.995 L730.898094,2.995 L730.898094,42.145 C730.898094,46.011686 731.840585,49.0566556 733.725594,51.28 C735.610604,53.5033445 738.389743,54.615 742.063094,54.615 C744.189772,54.615 746.074753,54.2041708 747.718094,53.3825 C749.361436,52.5608292 750.763089,51.4733401 751.923094,50.12 C753.0831,48.7666599 753.953091,47.1716758 754.533094,45.335 C755.113097,43.4983242 755.403094,41.613343 755.403094,39.68 L755.403094,2.995 L776.138094,2.995 L776.138094,71 L756.128094,71 L755.548094,63.75 C753.32475,66.360013 750.400612,68.5108249 746.775594,70.2025 C743.150576,71.8941751 739.356447,72.74 735.393094,72.74 C727.563055,72.74 721.37645,70.4200232 716.833094,65.78 C712.289738,61.1399768 710.018094,54.2767121 710.018094,45.19 L710.018094,2.995 Z M797.321904,2.995 L817.331904,2.995 L817.911904,10.39 C820.135248,7.6833198 823.059386,5.50834155 826.684404,3.865 C830.309422,2.22165845 834.103551,1.4 838.066904,1.4 C845.896943,1.4 852.107714,3.7199768 856.699404,8.36 C861.291093,13.0000232 863.586904,19.8632879 863.586904,28.95 L863.586904,71 L842.706904,71 L842.706904,31.85 C842.706904,28.0799811 841.764413,25.0833444 839.879404,22.86 C837.994394,20.6366556 835.360254,19.525 831.976904,19.525 C829.656892,19.525 827.626912,19.9358292 825.886904,20.7575 C824.146895,21.5791708 822.69691,22.6666599 821.536904,24.02 C820.376898,25.3733401 819.506907,26.9441577 818.926904,28.7325 C818.346901,30.5208423 818.056904,32.4299899 818.056904,34.46 L818.056904,71 L797.321904,71 L797.321904,2.995 Z" id="prop-er-noun"></path>
                    <circle id="Oval" cx="330" cy="36" r="12"></circle>
                </g>
            </g>
        </g>
    </g>
</svg>